SplineFontDB: 3.2
FontName: ATM451-Regular
FullName: ATM451-Regular
FamilyName: ATM 451
Weight: Book
Copyright: AzhaguThamizh
Version: 1.001
ItalicAngle: -11
UnderlinePosition: -271
UnderlineWidth: 102
Ascent: 1600
Descent: 400
InvalidEm: 0
sfntRevision: 0x00010042
LayerCount: 2
Layer: 0 1 "Back" 1
Layer: 1 1 "Fore" 0
XUID: [1021 192 2086997156 8522]
StyleMap: 0x0040
FSType: 8
OS2Version: 3
OS2_WeightWidthSlopeOnly: 0
OS2_UseTypoMetrics: 0
CreationTime: 1537575627
ModificationTime: 1545661200
PfmFamily: 17
TTFWeight: 400
TTFWidth: 5
LineGap: 0
VLineGap: 0
Panose: 2 11 6 4 2 2 2 2 2 4
OS2TypoAscent: 2000
OS2TypoAOffset: 0
OS2TypoDescent: -1320
OS2TypoDOffset: 0
OS2TypoLinegap: 0
OS2WinAscent: 2000
OS2WinAOffset: 0
OS2WinDescent: 744
OS2WinDOffset: 0
HheadAscent: 2000
HheadAOffset: 0
HheadDescent: -1320
HheadDOffset: 0
OS2SubXSize: 1400
OS2SubYSize: 1300
OS2SubXOff: 0
OS2SubYOff: 0
OS2SupXSize: 1400
OS2SupYSize: 1300
OS2SupXOff: 0
OS2SupYOff: 0
OS2StrikeYSize: 100
OS2StrikeYPos: 518
OS2CapHeight: 1586
OS2XHeight: -200
OS2Vendor: '    '
OS2CodePages: 00000001.00000000
OS2UnicodeRanges: 00100003.00000000.00000000.00000000
Lookup: 4 0 0 "'akhn' Akhand in Tamil2 lookup 0" { "'akhn' Akhand in Tamil2 lookup 0 subtable"  } ['akhn' ('tml2' <'dflt' > ) ]
Lookup: 4 0 0 "'akhn' Akhand in Tamil lookup 1" { "'akhn' Akhand in Tamil lookup 1 subtable"  } ['akhn' ('taml' <'dflt' > ) ]
Lookup: 4 0 0 "'half' Half Forms in Tamil lookup 2" { "'half' Half Forms in Tamil lookup 2 subtable"  } ['half' ('taml' <'dflt' > ) ]
Lookup: 4 0 0 "'haln' Halant Forms in Tamil2 lookup 3" { "'haln' Halant Forms in Tamil2 lookup 3 subtable"  } ['haln' ('tml2' <'dflt' > ) ]
Lookup: 4 0 0 "'haln' Halant Forms in Tamil lookup 4" { "'haln' Halant Forms in Tamil lookup 4 subtable"  } ['haln' ('taml' <'dflt' > ) ]
Lookup: 4 0 0 "'abvs' Above Base Substitutions lookup 5" { "'abvs' Above Base Substitutions lookup 5 subtable"  } ['abvs' ('taml' <'dflt' > 'tml2' <'dflt' > ) ]

StartChar: .notdef
Encoding: 65536 -1 0
Width: 1600
Flags: W
LayerCount: 2
Fore
SplineSet
100 0 m 1,0,-1
 100 1600 l 1,1,-1
 1500 1600 l 1,2,-1
 1500 0 l 1,3,-1
 100 0 l 1,0,-1
1400 100 m 1,4,-1
 1400 1500 l 1,5,-1
 200 1500 l 1,6,-1
 200 100 l 1,7,-1
 1400 100 l 1,4,-1
EndSplineSet
EndChar

StartChar: exclam
Encoding: 33 33 4
Width: 444
GlyphClass: 2
Flags: W
LayerCount: 2
Fore
SplineSet
180 284 m 1,0,-1
 138 892 l 1,1,-1
 138 1146 l 1,2,-1
 312 1146 l 1,3,-1
 312 892 l 1,4,-1
 270 284 l 1,5,-1
 180 284 l 1,0,-1
144 0 m 1,6,-1
 144 160 l 1,7,-1
 306 160 l 1,8,-1
 306 0 l 1,9,-1
 144 0 l 1,6,-1
EndSplineSet
EndChar

StartChar: quotedbl
Encoding: 34 34 5
Width: 568
GlyphClass: 2
Flags: W
LayerCount: 2
Fore
SplineSet
112 740 m 1,0,-1
 74 958 l 1,1,-1
 74 1146 l 1,2,-1
 234 1146 l 1,3,-1
 234 958 l 1,4,-1
 198 740 l 1,5,-1
 112 740 l 1,0,-1
372 740 m 1,6,-1
 332 958 l 1,7,-1
 332 1146 l 1,8,-1
 492 1146 l 1,9,-1
 492 958 l 1,10,-1
 456 740 l 1,11,-1
 372 740 l 1,6,-1
EndSplineSet
EndChar

StartChar: numbersign
Encoding: 35 35 6
Width: 890
GlyphClass: 2
Flags: W
LayerCount: 2
Fore
SplineSet
876 306 m 1,0,-1
 636 306 l 1,1,-1
 568 -28 l 1,2,-1
 434 -28 l 1,3,-1
 500 306 l 1,4,-1
 272 306 l 1,5,-1
 204 -28 l 1,6,-1
 70 -28 l 1,7,-1
 140 306 l 1,8,-1
 8 306 l 1,9,-1
 8 438 l 1,10,-1
 164 438 l 1,11,-1
 220 706 l 1,12,-1
 8 706 l 1,13,-1
 8 838 l 1,14,-1
 246 838 l 1,15,-1
 316 1172 l 1,16,-1
 448 1172 l 1,17,-1
 380 838 l 1,18,-1
 610 838 l 1,19,-1
 678 1172 l 1,20,-1
 812 1172 l 1,21,-1
 744 838 l 1,22,-1
 876 838 l 1,23,-1
 876 706 l 1,24,-1
 716 706 l 1,25,-1
 662 438 l 1,26,-1
 876 438 l 1,27,-1
 876 306 l 1,0,-1
584 706 m 1,28,-1
 354 706 l 1,29,-1
 300 438 l 1,30,-1
 528 438 l 1,31,-1
 584 706 l 1,28,-1
EndSplineSet
EndChar

StartChar: dollar
Encoding: 36 36 7
Width: 890
GlyphClass: 2
Flags: W
LayerCount: 2
Fore
SplineSet
822 326 m 0,0,1
 822 172 822 172 728 76 c 0,2,3
 684 28 684 28 618 -4 c 1,4,5
 550 -30 550 -30 490 -30 c 1,6,-1
 490 -172 l 1,7,-1
 390 -172 l 1,8,-1
 390 -32 l 1,9,10
 286 -20 286 -20 226 12 c 0,11,12
 156 50 156 50 109 125 c 128,-1,13
 62 200 62 200 50 326 c 1,14,-1
 206 354 l 1,15,16
 220 238 220 238 262 182 c 1,17,18
 316 118 316 118 390 104 c 1,19,-1
 390 536 l 1,20,-1
 310 556 l 1,21,-1
 218 604 l 2,22,23
 158 636 158 636 108 710 c 1,24,-1
 84 782 l 2,25,26
 78 798 78 798 76 818 c 128,-1,27
 74 838 74 838 74 864 c 0,28,29
 74 1012 74 1012 182 1114 c 0,30,31
 214 1140 214 1140 269 1161 c 128,-1,32
 324 1182 324 1182 390 1190 c 1,33,-1
 390 1260 l 1,34,-1
 490 1260 l 1,35,-1
 490 1192 l 1,36,37
 536 1192 536 1192 590 1172 c 0,38,39
 634 1158 634 1158 680 1118 c 0,40,41
 774 1038 774 1038 796 894 c 1,42,-1
 636 872 l 1,43,44
 624 958 624 958 582 1000 c 1,45,46
 554 1036 554 1036 490 1054 c 1,47,-1
 490 666 l 1,48,49
 548 654 548 654 577 645 c 128,-1,50
 606 636 606 636 626 626 c 0,51,52
 692 598 692 598 734 556 c 0,53,54
 754 536 754 536 769 511 c 128,-1,55
 784 486 784 486 800 452 c 0,56,57
 822 390 822 390 822 326 c 0,0,1
390 688 m 1,58,-1
 390 1058 l 1,59,60
 318 1046 318 1046 276 996 c 1,61,62
 230 950 230 950 230 876 c 0,63,64
 230 812 230 812 268 758 c 1,65,66
 302 718 302 718 390 688 c 1,58,-1
662 316 m 0,67,68
 662 388 662 388 627 430 c 128,-1,69
 592 472 592 472 490 510 c 1,70,-1
 490 104 l 1,71,72
 564 116 564 116 612 170 c 0,73,74
 662 232 662 232 662 316 c 0,67,68
EndSplineSet
EndChar

StartChar: percent
Encoding: 37 37 8
Width: 1422
GlyphClass: 2
Flags: W
LayerCount: 2
Fore
SplineSet
92 870 m 0,0,1
 92 992 92 992 154 1078 c 128,-1,2
 216 1164 216 1164 332 1164 c 0,3,4
 440 1164 440 1164 511 1087 c 128,-1,5
 582 1010 582 1010 582 862 c 0,6,7
 582 720 582 720 510 638 c 0,8,9
 474 600 474 600 431 580 c 128,-1,10
 388 560 388 560 334 560 c 0,11,12
 234 560 234 560 162 636 c 0,13,14
 132 670 132 670 110 732 c 0,15,16
 104 760 104 760 98 797 c 128,-1,17
 92 834 92 834 92 870 c 0,0,1
338 1068 m 0,18,19
 286 1068 286 1068 251 1023 c 128,-1,20
 216 978 216 978 216 856 c 0,21,22
 216 750 216 750 250 700 c 0,23,24
 284 656 284 656 338 656 c 256,25,26
 392 656 392 656 426 704 c 128,-1,27
 460 752 460 752 460 868 c 0,28,29
 460 974 460 974 426 1021 c 128,-1,30
 392 1068 392 1068 338 1068 c 0,18,19
338 -42 m 1,31,-1
 964 1164 l 1,32,-1
 1078 1164 l 1,33,-1
 454 -42 l 1,34,-1
 338 -42 l 1,31,-1
834 268 m 0,35,36
 834 396 834 396 896 480 c 128,-1,37
 958 564 958 564 1076 564 c 0,38,39
 1180 564 1180 564 1252 487 c 128,-1,40
 1324 410 1324 410 1324 260 c 0,41,42
 1324 120 1324 120 1251 39 c 128,-1,43
 1178 -42 1178 -42 1076 -42 c 256,44,45
 974 -42 974 -42 902 36 c 0,46,47
 870 70 870 70 852 130 c 128,-1,48
 834 190 834 190 834 268 c 0,35,36
1078 468 m 0,49,50
 1028 468 1028 468 992 422 c 128,-1,51
 956 376 956 376 956 254 c 0,52,53
 956 150 956 150 990 102 c 128,-1,54
 1024 54 1024 54 1078 54 c 256,55,56
 1132 54 1132 54 1167 100 c 128,-1,57
 1202 146 1202 146 1202 266 c 0,58,59
 1202 376 1202 376 1164 420 c 1,60,61
 1130 468 1130 468 1078 468 c 0,49,50
EndSplineSet
EndChar

StartChar: ampersand
Encoding: 38 38 9
Width: 1068
GlyphClass: 2
Flags: W
LayerCount: 2
Fore
SplineSet
760 134 m 1,0,1
 728 96 728 96 689 67 c 128,-1,2
 650 38 650 38 609 19 c 128,-1,3
 568 0 568 0 525 -10 c 128,-1,4
 482 -20 482 -20 432 -20 c 0,5,6
 254 -20 254 -20 152 100 c 0,7,8
 68 200 68 200 68 316 c 0,9,10
 68 418 68 418 135 505 c 128,-1,11
 202 592 202 592 340 658 c 1,12,13
 306 698 306 698 280 734 c 128,-1,14
 254 770 254 770 238 798 c 0,15,16
 212 860 212 860 212 908 c 0,17,18
 212 1010 212 1010 293 1087 c 128,-1,19
 374 1164 374 1164 498 1164 c 0,20,21
 610 1164 610 1164 687 1092 c 128,-1,22
 764 1020 764 1020 764 920 c 0,23,24
 764 756 764 756 548 642 c 1,25,-1
 752 380 l 1,26,27
 782 442 782 442 806 540 c 1,28,-1
 954 508 l 1,29,30
 916 360 916 360 852 260 c 1,31,32
 926 162 926 162 1030 84 c 1,33,-1
 936 -28 l 1,34,35
 892 2 892 2 850 40 c 128,-1,36
 808 78 808 78 760 134 c 1,0,1
474 732 m 1,37,38
 518 758 518 758 548 782 c 128,-1,39
 578 806 578 806 590 826 c 0,40,41
 620 866 620 866 620 916 c 0,42,43
 620 974 620 974 582 1012 c 128,-1,44
 544 1050 544 1050 490 1050 c 256,45,46
 436 1050 436 1050 396 1012 c 0,47,48
 378 994 378 994 367 972 c 128,-1,49
 356 950 356 950 356 924 c 2,50,-1
 358 898 l 1,51,-1
 368 872 l 1,52,-1
 386 838 l 1,53,-1
 412 804 l 1,54,-1
 474 732 l 1,37,38
672 246 m 1,55,-1
 414 566 l 1,56,57
 300 498 300 498 260 438 c 0,58,59
 242 410 242 410 231 380 c 128,-1,60
 220 350 220 350 220 324 c 0,61,62
 220 254 220 254 275 179 c 128,-1,63
 330 104 330 104 434 104 c 0,64,65
 496 104 496 104 564 143 c 128,-1,66
 632 182 632 182 672 246 c 1,55,-1
EndSplineSet
EndChar

StartChar: quotesingle
Encoding: 39 39 10
Width: 306
GlyphClass: 2
Flags: W
LayerCount: 2
Fore
SplineSet
106 740 m 1,0,-1
 70 954 l 1,1,-1
 70 1146 l 1,2,-1
 230 1146 l 1,3,-1
 230 954 l 1,4,-1
 194 740 l 1,5,-1
 106 740 l 1,0,-1
EndSplineSet
EndChar

StartChar: parenleft
Encoding: 40 40 11
Width: 532
GlyphClass: 2
Flags: W
LayerCount: 2
Fore
SplineSet
374 -336 m 1,0,1
 316 -260 316 -260 268 -176 c 128,-1,2
 220 -92 220 -92 178 10 c 0,3,4
 98 202 98 202 98 414 c 0,5,6
 98 606 98 606 156 772 c 0,7,8
 192 872 192 872 246 969 c 128,-1,9
 300 1066 300 1066 374 1164 c 1,10,-1
 476 1164 l 1,11,12
 426 1084 426 1084 396 1027 c 128,-1,13
 366 970 366 970 350 932 c 0,14,15
 306 830 306 830 274 697 c 128,-1,16
 242 564 242 564 242 414 c 0,17,18
 242 32 242 32 476 -336 c 1,19,-1
 374 -336 l 1,0,1
EndSplineSet
EndChar

StartChar: parenright
Encoding: 41 41 12
Width: 532
GlyphClass: 2
Flags: W
LayerCount: 2
Fore
SplineSet
160 -336 m 1,0,-1
 60 -336 l 1,1,2
 292 40 292 40 292 414 c 0,3,4
 292 558 292 558 262 700 c 128,-1,5
 232 842 232 842 184 932 c 1,6,7
 162 984 162 984 60 1164 c 1,8,-1
 160 1164 l 1,9,10
 306 970 306 970 376 772 c 0,11,12
 436 598 436 598 436 414 c 0,13,14
 436 302 436 302 418 206 c 128,-1,15
 400 110 400 110 356 10 c 1,16,17
 282 -182 282 -182 160 -336 c 1,0,-1
EndSplineSet
EndChar

StartChar: asterisk
Encoding: 42 42 13
Width: 622
GlyphClass: 2
Flags: W
LayerCount: 2
Fore
SplineSet
578 930 m 1,0,1
 530 916 530 916 483 905 c 128,-1,2
 436 894 436 894 388 886 c 1,3,4
 438 842 438 842 518 742 c 1,5,-1
 412 668 l 1,6,7
 388 698 388 698 364 735 c 128,-1,8
 340 772 340 772 306 828 c 1,9,10
 280 778 280 778 254 738 c 128,-1,11
 228 698 228 698 204 668 c 1,12,-1
 100 744 l 1,13,14
 126 774 126 774 156 810 c 0,15,16
 196 856 196 856 224 886 c 1,17,18
 194 892 194 892 149 902 c 128,-1,19
 104 912 104 912 40 930 c 1,20,-1
 82 1058 l 1,21,22
 140 1038 140 1038 185 1018 c 128,-1,23
 230 998 230 998 258 982 c 1,24,-1
 244 1172 l 1,25,-1
 372 1172 l 1,26,-1
 372 1110 l 1,27,-1
 366 1072 l 1,28,-1
 356 986 l 1,29,-1
 424 1016 l 1,30,-1
 538 1058 l 1,31,-1
 578 930 l 1,0,1
EndSplineSet
EndChar

StartChar: plus
Encoding: 43 43 14
Width: 934
GlyphClass: 2
Flags: W
LayerCount: 2
Fore
SplineSet
400 186 m 1,0,-1
 400 500 l 1,1,-1
 90 500 l 1,2,-1
 90 630 l 1,3,-1
 400 630 l 1,4,-1
 400 942 l 1,5,-1
 532 942 l 1,6,-1
 532 630 l 1,7,-1
 844 630 l 1,8,-1
 844 500 l 1,9,-1
 532 500 l 1,10,-1
 532 186 l 1,11,-1
 400 186 l 1,0,-1
EndSplineSet
EndChar

StartChar: comma
Encoding: 44 44 15
Width: 444
GlyphClass: 2
Flags: W
LayerCount: 2
Fore
SplineSet
142 0 m 1,0,-1
 142 160 l 1,1,-1
 302 160 l 1,2,-1
 302 0 l 2,3,4
 302 -88 302 -88 272 -140 c 128,-1,5
 242 -192 242 -192 172 -228 c 1,6,-1
 132 -166 l 1,7,8
 172 -152 172 -152 197 -109 c 128,-1,9
 222 -66 222 -66 222 0 c 1,10,-1
 142 0 l 1,0,-1
EndSplineSet
EndChar

StartChar: hyphen
Encoding: 45 45 16
Width: 532
GlyphClass: 2
Flags: W
LayerCount: 2
Fore
SplineSet
52 344 m 1,0,-1
 52 484 l 1,1,-1
 484 484 l 1,2,-1
 484 344 l 1,3,-1
 52 344 l 1,0,-1
EndSplineSet
EndChar

StartChar: period
Encoding: 46 46 17
Width: 444
GlyphClass: 2
Flags: W
LayerCount: 2
Fore
SplineSet
146 0 m 1,0,-1
 146 160 l 1,1,-1
 306 160 l 1,2,-1
 306 0 l 1,3,-1
 146 0 l 1,0,-1
EndSplineSet
EndChar

StartChar: slash
Encoding: 47 47 18
Width: 444
GlyphClass: 2
Flags: W
LayerCount: 2
Fore
SplineSet
0 -20 m 1,0,-1
 332 1164 l 1,1,-1
 444 1164 l 1,2,-1
 114 -20 l 1,3,-1
 0 -20 l 1,0,-1
EndSplineSet
EndChar

StartChar: zero
Encoding: 48 48 19
Width: 1018
GlyphClass: 2
Flags: W
LayerCount: 2
Fore
SplineSet
35 479 m 0,0,1
 35 580 35 580 139 684 c 128,-1,2
 243 788 243 788 414 857 c 2,3,-1
 579 924 l 1,4,5
 614 863 614 863 693.5 827.5 c 128,-1,6
 773 792 773 792 876 792 c 0,7,8
 907 792 907 792 934 797 c 128,-1,9
 961 802 961 802 983 809 c 1,10,11
 940 771 940 771 916 702 c 128,-1,12
 892 633 892 633 892 543 c 0,13,14
 892 504 892 504 909 428 c 128,-1,15
 926 352 926 352 926 313 c 0,16,17
 926 259 926 259 873 197.5 c 128,-1,18
 820 136 820 136 728 82 c 0,19,20
 644 33 644 33 569 8 c 128,-1,21
 494 -17 494 -17 430 -17 c 0,22,23
 349 -17 349 -17 261 53.5 c 128,-1,24
 173 124 173 124 102 247 c 0,25,26
 68 304 68 304 51.5 362.5 c 128,-1,27
 35 421 35 421 35 479 c 0,0,1
241 527 m 0,28,29
 241 481 241 481 254 430.5 c 128,-1,30
 267 380 267 380 292 331 c 0,31,32
 343 224 343 224 408 161.5 c 128,-1,33
 473 99 473 99 531 99 c 0,34,35
 601 99 601 99 672.5 165.5 c 128,-1,36
 744 232 744 232 744 296 c 0,37,38
 744 331 744 331 727.5 396.5 c 128,-1,39
 711 462 711 462 711 495 c 0,40,41
 711 538 711 538 723.5 572.5 c 128,-1,42
 736 607 736 607 761 627 c 1,43,44
 744 623 744 623 732 620 c 128,-1,45
 720 617 720 617 711 617 c 0,46,47
 629 617 629 617 554 666.5 c 128,-1,48
 479 716 479 716 430 800 c 1,49,50
 343 757 343 757 292 684 c 128,-1,51
 241 611 241 611 241 527 c 0,28,29
EndSplineSet
EndChar

StartChar: one
Encoding: 49 49 20
Width: 1018
GlyphClass: 2
Flags: W
LayerCount: 2
Fore
SplineSet
93 660 m 1,0,-1
 621 907 l 2,1,2
 636 915 636 915 664.5 927.5 c 128,-1,3
 693 940 693 940 703 940 c 0,4,5
 714 940 714 940 722 933 c 128,-1,6
 730 926 730 926 730 915 c 0,7,8
 730 909 730 909 723 899.5 c 128,-1,9
 716 890 716 890 703 874 c 0,10,11
 689 855 689 855 680.5 830.5 c 128,-1,12
 672 806 672 806 672 775 c 2,13,-1
 672 132 l 1,14,-1
 770 132 l 2,15,16
 806 132 806 132 835 145 c 128,-1,17
 864 158 864 158 885 181 c 0,18,19
 892 189 892 189 897.5 194 c 128,-1,20
 903 199 903 199 909 199 c 0,21,22
 917 199 917 199 921.5 188.5 c 128,-1,23
 926 178 926 178 926 165 c 0,24,25
 926 89 926 89 861 36 c 128,-1,26
 796 -17 796 -17 703 -17 c 2,27,-1
 588 -17 l 2,28,29
 553 -17 553 -17 485 0 c 128,-1,30
 417 17 417 17 382 17 c 0,31,32
 356 17 356 17 326 3.5 c 128,-1,33
 296 -10 296 -10 267 -33 c 0,34,35
 257 -39 257 -39 252 -29 c 128,-1,36
 247 -19 247 -19 251 -8 c 0,37,38
 276 63 276 63 332.5 105.5 c 128,-1,39
 389 148 389 148 456 148 c 2,40,-1
 506 148 l 1,41,-1
 506 675 l 2,42,43
 506 703 506 703 514.5 724.5 c 128,-1,44
 523 746 523 746 538 759 c 1,45,-1
 308 652 l 2,46,47
 275 635 275 635 245.5 626 c 128,-1,48
 216 617 216 617 193 617 c 0,49,50
 158 617 158 617 131 628.5 c 128,-1,51
 104 640 104 640 93 660 c 1,0,-1
EndSplineSet
EndChar

StartChar: two
Encoding: 50 50 21
Width: 1020
GlyphClass: 2
Flags: W
LayerCount: 2
Fore
SplineSet
65 17 m 0,0,1
 65 121 65 121 170.5 213.5 c 128,-1,2
 276 306 276 306 444 347 c 0,3,4
 577 380 577 380 643 408 c 128,-1,5
 709 436 709 436 709 469 c 0,6,7
 709 488 709 488 701 523.5 c 128,-1,8
 693 559 693 559 693 577 c 0,9,10
 693 603 693 603 701 625.5 c 128,-1,11
 709 648 709 648 726 660 c 1,12,13
 711 653 711 653 685.5 648.5 c 128,-1,14
 660 644 660 644 625 644 c 0,15,16
 538 644 538 644 461 683 c 128,-1,17
 384 722 384 722 337 792 c 1,18,19
 288 763 288 763 259 724 c 128,-1,20
 230 685 230 685 230 644 c 0,21,22
 230 599 230 599 254 567.5 c 128,-1,23
 278 536 278 536 312 536 c 0,24,25
 334 536 334 536 352.5 542.5 c 128,-1,26
 371 549 371 549 386 560 c 0,27,28
 393 566 393 566 402.5 560.5 c 128,-1,29
 412 555 412 555 412 543 c 0,30,31
 412 483 412 483 359 439 c 128,-1,32
 306 395 306 395 230 395 c 0,33,34
 161 395 161 395 113 439 c 128,-1,35
 65 483 65 483 65 543 c 0,36,37
 65 625 65 625 142.5 714.5 c 128,-1,38
 220 804 220 804 354 874 c 2,39,-1
 444 924 l 1,40,41
 495 861 495 861 591 826.5 c 128,-1,42
 687 792 687 792 807 792 c 0,43,44
 853 792 853 792 891.5 800.5 c 128,-1,45
 930 809 930 809 956 824 c 1,46,47
 924 785 924 785 906.5 747 c 128,-1,48
 889 709 889 709 889 675 c 0,49,50
 889 646 889 646 897 585.5 c 128,-1,51
 905 525 905 525 905 495 c 0,52,53
 905 399 905 399 794 331 c 128,-1,54
 683 263 683 263 527 263 c 0,55,56
 378 263 378 263 269.5 213 c 128,-1,57
 161 163 161 163 132 82 c 1,58,59
 189 130 189 130 253 155.5 c 128,-1,60
 317 181 317 181 378 181 c 0,61,62
 438 181 438 181 552 156.5 c 128,-1,63
 666 132 666 132 726 132 c 0,64,65
 792 132 792 132 842 155 c 128,-1,66
 892 178 892 178 905 216 c 0,67,68
 911 230 911 230 917.5 238.5 c 128,-1,69
 924 247 924 247 931 247 c 0,70,71
 939 247 939 247 943.5 237.5 c 128,-1,72
 948 228 948 228 948 216 c 0,73,74
 948 119 948 119 858.5 51 c 128,-1,75
 769 -17 769 -17 642 -17 c 0,76,77
 575 -17 575 -17 444 0 c 128,-1,78
 313 17 313 17 247 17 c 0,79,80
 199 17 199 17 161.5 8.5 c 128,-1,81
 124 0 124 0 105 -17 c 0,82,83
 104 -19 104 -19 94.5 -26 c 128,-1,84
 85 -33 85 -33 82 -33 c 0,85,86
 74 -33 74 -33 69.5 -18.5 c 128,-1,87
 65 -4 65 -4 65 17 c 0,0,1
EndSplineSet
EndChar

StartChar: three
Encoding: 51 51 22
Width: 1018
GlyphClass: 2
Flags: W
LayerCount: 2
Fore
SplineSet
80 296 m 0,0,1
 80 345 80 345 130.5 378.5 c 128,-1,2
 181 412 181 412 255 412 c 1,3,4
 251 405 251 405 248 394.5 c 128,-1,5
 245 384 245 384 245 371 c 0,6,7
 245 280 245 280 344.5 189.5 c 128,-1,8
 444 99 444 99 541 99 c 0,9,10
 623 99 623 99 681.5 138 c 128,-1,11
 740 177 740 177 740 230 c 0,12,13
 740 249 740 249 723.5 284 c 128,-1,14
 707 319 707 319 707 337 c 0,15,16
 707 351 707 351 715.5 375 c 128,-1,17
 724 399 724 399 724 412 c 0,18,19
 724 428 724 428 704.5 440.5 c 128,-1,20
 685 453 685 453 658 453 c 0,21,22
 590 453 590 453 542 429 c 128,-1,23
 494 405 494 405 494 371 c 0,24,25
 494 364 494 364 502 354.5 c 128,-1,26
 510 345 510 345 510 337 c 0,27,28
 510 331 510 331 505.5 326 c 128,-1,29
 501 321 501 321 494 321 c 0,30,31
 465 321 465 321 446 350.5 c 128,-1,32
 427 380 427 380 427 421 c 0,33,34
 427 458 427 458 459.5 488 c 128,-1,35
 492 518 492 518 541 527 c 0,36,37
 635 543 635 543 687.5 563.5 c 128,-1,38
 740 584 740 584 740 611 c 0,39,40
 740 625 740 625 732 651 c 128,-1,41
 724 677 724 677 724 693 c 0,42,43
 724 703 724 703 732 716.5 c 128,-1,44
 740 730 740 730 757 742 c 1,45,46
 711 726 711 726 662 717.5 c 128,-1,47
 613 709 613 709 559 709 c 0,48,49
 518 709 518 709 475 717.5 c 128,-1,50
 432 726 432 726 386 742 c 0,51,52
 362 751 362 751 336 767 c 128,-1,53
 310 783 310 783 302 783 c 0,54,55
 278 783 278 783 261.5 761.5 c 128,-1,56
 245 740 245 740 245 709 c 0,57,58
 245 683 245 683 269.5 663.5 c 128,-1,59
 294 644 294 644 329 644 c 0,60,61
 341 644 341 644 358 648.5 c 128,-1,62
 375 653 375 653 393 660 c 0,63,64
 401 664 401 664 407.5 658 c 128,-1,65
 414 652 414 652 410 644 c 0,66,67
 391 592 391 592 343.5 559.5 c 128,-1,68
 296 527 296 527 237 527 c 0,69,70
 180 527 180 527 138.5 561.5 c 128,-1,71
 97 596 97 596 97 644 c 0,72,73
 97 705 97 705 159.5 772 c 128,-1,74
 222 839 222 839 329 890 c 2,75,-1
 427 940 l 1,76,77
 465 909 465 909 524.5 891.5 c 128,-1,78
 584 874 584 874 658 874 c 0,79,80
 730 874 730 874 800 887 c 128,-1,81
 870 900 870 900 939 924 c 1,82,83
 922 911 922 911 913.5 884 c 128,-1,84
 905 857 905 857 905 824 c 0,85,86
 905 794 905 794 913.5 734 c 128,-1,87
 922 674 922 674 922 644 c 0,88,89
 922 584 922 584 886.5 539.5 c 128,-1,90
 851 495 851 495 798 486 c 1,91,92
 843 486 843 486 874 459 c 128,-1,93
 905 432 905 432 905 395 c 0,94,95
 905 371 905 371 913.5 321 c 128,-1,96
 922 271 922 271 922 247 c 0,97,98
 922 216 922 216 877.5 171 c 128,-1,99
 833 126 833 126 757 82 c 0,100,101
 674 33 674 33 585.5 8 c 128,-1,102
 497 -17 497 -17 410 -17 c 0,103,104
 300 -17 300 -17 190 88 c 128,-1,105
 80 193 80 193 80 296 c 0,0,1
EndSplineSet
EndChar

StartChar: four
Encoding: 52 52 23
Width: 1020
GlyphClass: 2
Flags: W
LayerCount: 2
Fore
SplineSet
11 216 m 0,0,1
 11 343 11 343 208 586 c 128,-1,2
 405 829 405 829 598 940 c 1,3,4
 648 898 648 898 675.5 846 c 128,-1,5
 703 794 703 794 703 742 c 2,6,-1
 703 347 l 1,7,-1
 787 347 l 2,8,9
 848 347 848 347 895 363.5 c 128,-1,10
 942 380 942 380 969 412 c 0,11,12
 976 419 976 419 984.5 423.5 c 128,-1,13
 993 428 993 428 1000 428 c 0,14,15
 1006 428 1006 428 1008.5 422.5 c 128,-1,16
 1011 417 1011 417 1009 412 c 0,17,18
 972 308 972 308 888 244.5 c 128,-1,19
 804 181 804 181 703 181 c 1,20,-1
 703 148 l 2,21,22
 703 121 703 121 719.5 98.5 c 128,-1,23
 736 76 736 76 763 66 c 0,24,25
 781 59 781 59 792.5 46 c 128,-1,26
 804 33 804 33 804 17 c 0,27,28
 804 4 804 4 791.5 -6.5 c 128,-1,29
 779 -17 779 -17 763 -17 c 0,30,31
 738 -17 738 -17 692 0 c 128,-1,32
 646 17 646 17 621 17 c 0,33,34
 598 17 598 17 551 0 c 128,-1,35
 504 -17 504 -17 481 -17 c 0,36,37
 464 -17 464 -17 452 -6.5 c 128,-1,38
 440 4 440 4 440 17 c 0,39,40
 440 29 440 29 455.5 43.5 c 128,-1,41
 471 58 471 58 497 66 c 0,42,43
 516 74 516 74 528 96.5 c 128,-1,44
 540 119 540 119 540 148 c 2,45,-1
 540 199 l 1,46,47
 499 222 499 222 413 234.5 c 128,-1,48
 327 247 327 247 200 247 c 0,49,50
 171 247 171 247 127.5 230.5 c 128,-1,51
 84 214 84 214 28 181 c 0,52,53
 22 178 22 178 16.5 189 c 128,-1,54
 11 200 11 200 11 216 c 0,0,1
169 347 m 1,55,56
 212 362 212 362 255 370 c 128,-1,57
 298 378 298 378 341 378 c 0,58,59
 410 378 410 378 460 374.5 c 128,-1,60
 510 371 510 371 540 364 c 1,61,-1
 540 675 l 2,62,63
 540 716 540 716 530 745.5 c 128,-1,64
 520 775 520 775 506 775 c 0,65,66
 484 775 484 775 449.5 744.5 c 128,-1,67
 415 714 415 714 358 644 c 0,68,69
 259 527 259 527 214 457.5 c 128,-1,70
 169 388 169 388 169 347 c 1,55,56
EndSplineSet
EndChar

StartChar: five
Encoding: 53 53 24
Width: 1020
GlyphClass: 2
Flags: W
LayerCount: 2
Fore
SplineSet
78 247 m 0,0,1
 78 304 78 304 119 346 c 128,-1,2
 160 388 160 388 218 388 c 0,3,4
 236 388 236 388 250.5 385 c 128,-1,5
 265 382 265 382 276 378 c 1,6,7
 269 364 269 364 264 348 c 128,-1,8
 259 332 259 332 259 313 c 0,9,10
 259 224 259 224 339 161.5 c 128,-1,11
 419 99 419 99 531 99 c 0,12,13
 613 99 613 99 671.5 142 c 128,-1,14
 730 185 730 185 730 247 c 0,15,16
 730 261 730 261 726 288 c 128,-1,17
 722 315 722 315 722 331 c 0,18,19
 722 366 722 366 733 391.5 c 128,-1,20
 744 417 744 417 763 428 c 1,21,22
 675 428 675 428 595.5 467 c 128,-1,23
 516 506 516 506 456 577 c 1,24,25
 358 522 358 522 276.5 492 c 128,-1,26
 195 462 195 462 136 462 c 0,27,28
 113 462 113 462 94.5 466.5 c 128,-1,29
 76 471 76 471 61 479 c 1,30,31
 142 619 142 619 184 741 c 128,-1,32
 226 863 226 863 226 958 c 1,33,34
 275 917 275 917 377 895.5 c 128,-1,35
 479 874 479 874 621 874 c 0,36,37
 695 874 695 874 756.5 887 c 128,-1,38
 818 900 818 900 861 924 c 0,39,40
 868 928 868 928 875.5 934 c 128,-1,41
 883 940 883 940 885 940 c 0,42,43
 892 940 892 940 897 933 c 128,-1,44
 902 926 902 926 902 915 c 0,45,46
 902 898 902 898 889 878.5 c 128,-1,47
 876 859 876 859 853 841 c 0,48,49
 787 785 787 785 701.5 755.5 c 128,-1,50
 616 726 616 726 523 726 c 0,51,52
 438 726 438 726 370 745.5 c 128,-1,53
 302 765 302 765 259 800 c 1,54,55
 245 711 245 711 223.5 646.5 c 128,-1,56
 202 582 202 582 177 543 c 1,57,58
 247 543 247 543 353.5 581 c 128,-1,59
 460 619 460 619 598 693 c 1,60,61
 644 638 644 638 710.5 607.5 c 128,-1,62
 777 577 777 577 853 577 c 0,63,64
 887 577 887 577 913.5 581.5 c 128,-1,65
 940 586 940 586 959 594 c 1,66,67
 931 560 931 560 916.5 504.5 c 128,-1,68
 902 449 902 449 902 378 c 0,69,70
 902 356 902 356 910.5 312.5 c 128,-1,71
 919 269 919 269 919 247 c 0,72,73
 919 218 919 218 871.5 175 c 128,-1,74
 824 132 824 132 736 82 c 0,75,76
 638 26 638 26 554.5 -3.5 c 128,-1,77
 471 -33 471 -33 408 -33 c 0,78,79
 298 -33 298 -33 188 60.5 c 128,-1,80
 78 154 78 154 78 247 c 0,0,1
EndSplineSet
EndChar

StartChar: six
Encoding: 54 54 25
Width: 1018
GlyphClass: 2
Flags: W
LayerCount: 2
Fore
SplineSet
22 495 m 0,0,1
 22 601 22 601 181.5 723.5 c 128,-1,2
 341 846 341 846 601 940 c 1,3,4
 635 902 635 902 682.5 879.5 c 128,-1,5
 730 857 730 857 781 857 c 0,6,7
 826 857 826 857 862 867.5 c 128,-1,8
 898 878 898 878 922 898 c 0,9,10
 930 903 930 903 940 913.5 c 128,-1,11
 950 924 950 924 956 924 c 0,12,13
 967 924 967 924 972.5 913 c 128,-1,14
 978 902 978 902 972 890 c 0,15,16
 924 807 924 807 850.5 758 c 128,-1,17
 777 709 777 709 699 709 c 0,18,19
 627 709 627 709 559.5 730 c 128,-1,20
 492 751 492 751 436 792 c 1,21,22
 352 751 352 751 303.5 684 c 128,-1,23
 255 617 255 617 255 543 c 0,24,25
 255 481 255 481 267.5 430.5 c 128,-1,26
 280 380 280 380 304 347 c 1,27,28
 313 380 313 380 373.5 423.5 c 128,-1,29
 434 467 434 467 534 512 c 2,30,-1
 814 644 l 1,31,32
 818 623 818 623 834.5 600 c 128,-1,33
 851 577 851 577 882 553 c 0,34,35
 935 506 935 506 966 457 c 128,-1,36
 997 408 997 408 997 364 c 0,37,38
 997 310 997 310 934.5 243.5 c 128,-1,39
 872 177 872 177 765 115 c 0,40,41
 653 50 653 50 569.5 16.5 c 128,-1,42
 486 -17 486 -17 436 -17 c 0,43,44
 364 -17 364 -17 276.5 53 c 128,-1,45
 189 123 189 123 105 247 c 0,46,47
 65 308 65 308 43.5 371 c 128,-1,48
 22 434 22 434 22 495 c 0,0,1
403 199 m 1,49,50
 430 160 430 160 472 137.5 c 128,-1,51
 514 115 514 115 559 115 c 0,52,53
 592 115 592 115 627 128 c 128,-1,54
 662 141 662 141 699 165 c 0,55,56
 765 208 765 208 798 241.5 c 128,-1,57
 831 275 831 275 831 296 c 0,58,59
 831 323 831 323 809.5 353.5 c 128,-1,60
 788 384 788 384 750 412 c 0,61,62
 726 428 726 428 710.5 452.5 c 128,-1,63
 695 477 695 477 691 503 c 1,64,65
 575 462 575 462 505.5 407 c 128,-1,66
 436 352 436 352 436 304 c 0,67,68
 436 288 436 288 455.5 275.5 c 128,-1,69
 475 263 475 263 501 263 c 0,70,71
 512 263 512 263 519.5 259 c 128,-1,72
 527 255 527 255 527 247 c 0,73,74
 527 226 527 226 491 212.5 c 128,-1,75
 455 199 455 199 403 199 c 1,49,50
EndSplineSet
EndChar

StartChar: seven
Encoding: 55 55 26
Width: 1020
GlyphClass: 2
Flags: W
LayerCount: 2
Fore
SplineSet
68 652 m 0,0,1
 68 670 68 670 76.5 698 c 128,-1,2
 85 726 85 726 102 759 c 0,3,4
 146 850 146 850 170.5 887 c 128,-1,5
 195 924 195 924 218 924 c 0,6,7
 249 924 249 924 282 919.5 c 128,-1,8
 315 915 315 915 349 907 c 0,9,10
 415 890 415 890 481 882 c 128,-1,11
 547 874 547 874 613 874 c 0,12,13
 707 874 707 874 778.5 887 c 128,-1,14
 850 900 850 900 892 924 c 0,15,16
 896 926 896 926 908.5 933 c 128,-1,17
 921 940 921 940 926 940 c 0,18,19
 937 940 937 940 944.5 933 c 128,-1,20
 952 926 952 926 952 915 c 0,21,22
 952 894 952 894 932.5 866.5 c 128,-1,23
 913 839 913 839 878 809 c 0,24,25
 744 695 744 695 670 535.5 c 128,-1,26
 596 376 596 376 596 199 c 0,27,28
 596 163 596 163 607.5 139 c 128,-1,29
 619 115 619 115 638 115 c 0,30,31
 644 115 644 115 659.5 121.5 c 128,-1,32
 675 128 675 128 687 132 c 0,33,34
 693 134 693 134 698 128.5 c 128,-1,35
 703 123 703 123 703 115 c 0,36,37
 703 105 703 105 675.5 85 c 128,-1,38
 648 65 648 65 629 50 c 0,39,40
 572 2 572 2 518.5 -24 c 128,-1,41
 465 -50 465 -50 423 -50 c 0,42,43
 399 -50 399 -50 382.5 -20.5 c 128,-1,44
 366 9 366 9 366 50 c 0,45,46
 366 230 366 230 473 420.5 c 128,-1,47
 580 611 580 611 777 775 c 1,48,49
 720 742 720 742 649.5 725.5 c 128,-1,50
 579 709 579 709 497 709 c 0,51,52
 456 709 456 709 377 725.5 c 128,-1,53
 298 742 298 742 257 742 c 256,54,55
 216 742 216 742 178.5 719.5 c 128,-1,56
 141 697 141 697 119 660 c 0,57,58
 109 646 109 646 101 636.5 c 128,-1,59
 93 627 93 627 85 627 c 0,60,61
 78 627 78 627 73 634.5 c 128,-1,62
 68 642 68 642 68 652 c 0,0,1
EndSplineSet
EndChar

StartChar: eight
Encoding: 56 56 27
Width: 1018
GlyphClass: 2
Flags: W
LayerCount: 2
Fore
SplineSet
72 199 m 0,0,1
 72 280 72 280 141 348.5 c 128,-1,2
 210 417 210 417 319 446 c 1,3,4
 228 490 228 490 174.5 544 c 128,-1,5
 121 598 121 598 121 644 c 0,6,7
 121 716 121 716 217 789.5 c 128,-1,8
 313 863 313 863 467 907 c 2,9,-1
 599 948 l 1,10,11
 619 924 619 924 648 902 c 128,-1,12
 677 880 677 880 714 857 c 0,13,14
 807 804 807 804 860 751.5 c 128,-1,15
 913 699 913 699 913 660 c 0,16,17
 913 599 913 599 845 548 c 128,-1,18
 777 497 777 497 674 479 c 1,19,20
 794 449 794 449 870 379.5 c 128,-1,21
 946 310 946 310 946 230 c 0,22,23
 946 121 946 121 801 44 c 128,-1,24
 656 -33 656 -33 451 -33 c 0,25,26
 295 -33 295 -33 183.5 34.5 c 128,-1,27
 72 102 72 102 72 199 c 0,0,1
269 273 m 0,28,29
 269 193 269 193 371 137.5 c 128,-1,30
 473 82 473 82 616 82 c 0,31,32
 685 82 685 82 733 106 c 128,-1,33
 781 130 781 130 781 165 c 0,34,35
 781 218 781 218 685.5 275 c 128,-1,36
 590 332 590 332 417 395 c 1,37,38
 351 376 351 376 310 342 c 128,-1,39
 269 308 269 308 269 273 c 0,28,29
319 701 m 0,40,41
 319 650 319 650 392 599.5 c 128,-1,42
 465 549 465 549 582 520 c 1,43,44
 648 531 648 531 689.5 552.5 c 128,-1,45
 731 574 731 574 731 594 c 0,46,47
 731 621 731 621 690.5 651 c 128,-1,48
 650 681 650 681 541 742 c 0,49,50
 512 759 512 759 490.5 783 c 128,-1,51
 469 807 469 807 460 833 c 1,52,53
 397 811 397 811 358 774.5 c 128,-1,54
 319 738 319 738 319 701 c 0,40,41
EndSplineSet
EndChar

StartChar: nine
Encoding: 57 57 28
Width: 1018
GlyphClass: 2
Flags: W
LayerCount: 2
Fore
SplineSet
56 222 m 0,0,1
 56 263 56 263 102 298.5 c 128,-1,2
 148 334 148 334 220 347 c 1,3,4
 220 271 220 271 322.5 193 c 128,-1,5
 425 115 425 115 525 115 c 0,6,7
 611 115 611 115 671.5 163.5 c 128,-1,8
 732 212 732 212 732 280 c 0,9,10
 732 317 732 317 715.5 387.5 c 128,-1,11
 699 458 699 458 699 495 c 0,12,13
 699 547 699 547 712.5 586 c 128,-1,14
 726 625 726 625 748 644 c 1,15,16
 742 646 742 646 727 636.5 c 128,-1,17
 712 627 712 627 699 627 c 1,18,19
 614 525 614 525 518.5 468.5 c 128,-1,20
 423 412 423 412 336 412 c 0,21,22
 292 412 292 412 245.5 429 c 128,-1,23
 199 446 199 446 154 479 c 0,24,25
 107 512 107 512 81.5 547 c 128,-1,26
 56 582 56 582 56 611 c 0,27,28
 56 653 56 653 109.5 702 c 128,-1,29
 163 751 163 751 255 792 c 2,30,-1
 568 931 l 1,31,32
 605 866 605 866 675.5 829 c 128,-1,33
 746 792 746 792 831 792 c 0,34,35
 882 792 882 792 915 797 c 128,-1,36
 948 802 948 802 963 809 c 1,37,38
 924 763 924 763 903 702.5 c 128,-1,39
 882 642 882 642 882 577 c 0,40,41
 882 531 882 531 897.5 437 c 128,-1,42
 913 343 913 343 913 296 c 0,43,44
 913 255 913 255 855.5 197 c 128,-1,45
 798 139 798 139 699 82 c 0,46,47
 616 33 616 33 544.5 8 c 128,-1,48
 473 -17 473 -17 419 -17 c 0,49,50
 352 -17 352 -17 286 8 c 128,-1,51
 220 33 220 33 163 82 c 0,52,53
 111 124 111 124 83.5 161.5 c 128,-1,54
 56 199 56 199 56 222 c 0,0,1
288 660 m 0,55,56
 288 625 288 625 329 601 c 128,-1,57
 370 577 370 577 427 577 c 0,58,59
 488 577 488 577 541 595 c 128,-1,60
 594 613 594 613 633 644 c 1,61,62
 564 664 564 664 510 702 c 128,-1,63
 456 740 456 740 427 792 c 1,64,65
 364 761 364 761 326 726 c 128,-1,66
 288 691 288 691 288 660 c 0,55,56
EndSplineSet
EndChar

StartChar: colon
Encoding: 58 58 29
Width: 444
GlyphClass: 2
Flags: W
LayerCount: 2
Fore
SplineSet
144 668 m 1,0,-1
 144 830 l 1,1,-1
 304 830 l 1,2,-1
 304 668 l 1,3,-1
 144 668 l 1,0,-1
144 0 m 1,4,-1
 144 160 l 1,5,-1
 304 160 l 1,6,-1
 304 0 l 1,7,-1
 144 0 l 1,4,-1
EndSplineSet
EndChar

StartChar: semicolon
Encoding: 59 59 30
Width: 444
GlyphClass: 2
Flags: W
LayerCount: 2
Fore
SplineSet
142 668 m 1,0,-1
 142 830 l 1,1,-1
 302 830 l 1,2,-1
 302 668 l 1,3,-1
 142 668 l 1,0,-1
142 0 m 1,4,-1
 142 160 l 1,5,-1
 302 160 l 1,6,-1
 302 0 l 2,7,8
 302 -88 302 -88 272 -140 c 128,-1,9
 242 -192 242 -192 172 -228 c 1,10,-1
 132 -166 l 1,11,12
 172 -152 172 -152 197 -109 c 128,-1,13
 222 -66 222 -66 222 0 c 1,14,-1
 142 0 l 1,4,-1
EndSplineSet
EndChar

StartChar: less
Encoding: 60 60 31
Width: 934
GlyphClass: 2
Flags: W
LayerCount: 2
Fore
SplineSet
854 164 m 1,0,-1
 80 494 l 1,1,-1
 80 638 l 1,2,-1
 854 964 l 1,3,-1
 854 806 l 1,4,-1
 268 566 l 1,5,-1
 854 324 l 1,6,-1
 854 164 l 1,0,-1
EndSplineSet
EndChar

StartChar: equal
Encoding: 61 61 32
Width: 934
GlyphClass: 2
Flags: W
LayerCount: 2
Fore
SplineSet
844 674 m 1,0,-1
 90 674 l 1,1,-1
 90 804 l 1,2,-1
 844 804 l 1,3,-1
 844 674 l 1,0,-1
844 326 m 1,4,-1
 90 326 l 1,5,-1
 90 458 l 1,6,-1
 844 458 l 1,7,-1
 844 326 l 1,4,-1
EndSplineSet
EndChar

StartChar: greater
Encoding: 62 62 33
Width: 934
GlyphClass: 2
Flags: W
LayerCount: 2
Fore
SplineSet
854 494 m 1,0,-1
 80 164 l 1,1,-1
 80 324 l 1,2,-1
 666 566 l 1,3,-1
 80 806 l 1,4,-1
 80 964 l 1,5,-1
 854 638 l 1,6,-1
 854 494 l 1,0,-1
EndSplineSet
EndChar

StartChar: question
Encoding: 63 63 34
Width: 890
GlyphClass: 2
Flags: W
LayerCount: 2
Fore
SplineSet
368 282 m 1,0,-1
 368 324 l 2,1,2
 368 402 368 402 392 468 c 0,3,4
 404 510 404 510 446 558 c 0,5,6
 466 584 466 584 542 652 c 128,-1,7
 618 720 618 720 642 758 c 128,-1,8
 666 796 666 796 666 844 c 0,9,10
 666 924 666 924 601 987 c 128,-1,11
 536 1050 536 1050 444 1050 c 0,12,13
 358 1050 358 1050 298 994 c 128,-1,14
 238 938 238 938 214 818 c 1,15,-1
 70 834 l 1,16,17
 90 992 90 992 185 1078 c 128,-1,18
 280 1164 280 1164 442 1164 c 0,19,20
 602 1164 602 1164 708 1074 c 1,21,22
 810 978 810 978 810 852 c 0,23,24
 810 776 810 776 772 714 c 0,25,26
 756 682 756 682 721 643 c 128,-1,27
 686 604 686 604 636 560 c 0,28,29
 570 500 570 500 548 470 c 0,30,31
 534 450 534 450 516 402 c 1,32,33
 504 356 504 356 504 282 c 1,34,-1
 368 282 l 1,0,-1
360 0 m 1,35,-1
 360 160 l 1,36,-1
 520 160 l 1,37,-1
 520 0 l 1,38,-1
 360 0 l 1,35,-1
EndSplineSet
EndChar

StartChar: at
Encoding: 64 64 35
Width: 1624
GlyphClass: 2
Flags: W
LayerCount: 2
Fore
SplineSet
1580 22 m 1,0,1
 1556 -28 1556 -28 1521 -71 c 128,-1,2
 1486 -114 1486 -114 1436 -158 c 0,3,4
 1342 -240 1342 -240 1204 -294 c 0,5,6
 1136 -318 1136 -318 1057 -331 c 128,-1,7
 978 -344 978 -344 876 -344 c 0,8,9
 700 -344 700 -344 554 -299 c 128,-1,10
 408 -254 408 -254 307 -168 c 128,-1,11
 206 -82 206 -82 144 44 c 1,12,13
 78 198 78 198 78 366 c 0,14,15
 78 558 78 558 156 732 c 1,16,17
 256 942 256 942 431 1058 c 128,-1,18
 606 1174 606 1174 860 1174 c 0,19,20
 1060 1174 1060 1174 1212 1092 c 1,21,22
 1366 1018 1366 1018 1460 854 c 0,23,24
 1536 718 1536 718 1536 556 c 0,25,26
 1536 326 1536 326 1374 150 c 0,27,28
 1230 -12 1230 -12 1058 -12 c 2,29,-1
 1036 -12 l 1,30,-1
 1004 -8 l 2,31,32
 980 -4 980 -4 964 6 c 0,33,34
 934 26 934 26 916 58 c 0,35,36
 906 70 906 70 900 108 c 1,37,38
 880 84 880 84 859 68 c 128,-1,39
 838 52 838 52 800 28 c 0,40,41
 734 -10 734 -10 668 -10 c 0,42,43
 596 -10 596 -10 526 32 c 0,44,45
 490 54 490 54 465 83 c 128,-1,46
 440 112 440 112 418 162 c 0,47,48
 376 250 376 250 376 348 c 0,49,50
 376 474 376 474 440 600 c 128,-1,51
 504 726 504 726 600 790 c 128,-1,52
 696 854 696 854 790 854 c 0,53,54
 828 854 828 854 861 845 c 128,-1,55
 894 836 894 836 924 816 c 0,56,57
 978 786 978 786 1022 724 c 1,58,-1
 1046 832 l 1,59,-1
 1202 832 l 1,60,-1
 1088 300 l 1,61,-1
 1064 178 l 2,62,63
 1064 164 1064 164 1076 148 c 1,64,65
 1092 136 1092 136 1110 136 c 0,66,67
 1152 136 1152 136 1214 180 c 0,68,69
 1256 210 1256 210 1290 250 c 128,-1,70
 1324 290 1324 290 1354 346 c 0,71,72
 1404 448 1404 448 1404 560 c 0,73,74
 1404 684 1404 684 1340 796 c 0,75,76
 1304 856 1304 856 1257 899 c 128,-1,77
 1210 942 1210 942 1144 976 c 128,-1,78
 1078 1010 1078 1010 1005 1027 c 128,-1,79
 932 1044 932 1044 854 1044 c 0,80,81
 674 1044 674 1044 524 960 c 128,-1,82
 374 876 374 876 292 714 c 128,-1,83
 210 552 210 552 210 380 c 0,84,85
 210 192 210 192 290 56 c 128,-1,86
 370 -80 370 -80 527 -146 c 128,-1,87
 684 -212 684 -212 876 -212 c 0,88,89
 1074 -212 1074 -212 1210 -145 c 128,-1,90
 1346 -78 1346 -78 1422 22 c 1,91,-1
 1580 22 l 1,0,1
972 508 m 0,92,93
 972 610 972 610 923 667 c 128,-1,94
 874 724 874 724 800 724 c 0,95,96
 754 724 754 724 711 699 c 128,-1,97
 668 674 668 674 629 619 c 128,-1,98
 590 564 590 564 562 484 c 0,99,100
 538 406 538 406 538 340 c 0,101,102
 538 238 538 238 584 180 c 128,-1,103
 630 122 630 122 696 122 c 0,104,105
 738 122 738 122 786 146 c 0,106,107
 804 158 804 158 829 178 c 128,-1,108
 854 198 854 198 874 222 c 0,109,110
 918 272 918 272 944 350 c 0,111,112
 960 390 960 390 966 427 c 128,-1,113
 972 464 972 464 972 508 c 0,92,93
EndSplineSet
EndChar

StartChar: bracketleft
Encoding: 91 91 36
Width: 444
GlyphClass: 2
Flags: W
LayerCount: 2
Fore
SplineSet
428 -326 m 1,0,-1
 100 -326 l 1,1,-1
 100 1154 l 1,2,-1
 428 1154 l 1,3,-1
 428 1020 l 1,4,-1
 258 1020 l 1,5,-1
 258 -194 l 1,6,-1
 428 -194 l 1,7,-1
 428 -326 l 1,0,-1
EndSplineSet
EndChar

StartChar: backslash
Encoding: 92 92 37
Width: 444
GlyphClass: 2
Flags: W
LayerCount: 2
Fore
SplineSet
456 -28 m 1,0,-1
 326 -28 l 1,1,-1
 -12 1172 l 1,2,-1
 120 1172 l 1,3,-1
 456 -28 l 1,0,-1
EndSplineSet
EndChar

StartChar: bracketright
Encoding: 93 93 38
Width: 444
GlyphClass: 2
Flags: W
LayerCount: 2
Fore
SplineSet
348 -326 m 1,0,-1
 22 -326 l 1,1,-1
 22 -194 l 1,2,-1
 192 -194 l 1,3,-1
 192 1020 l 1,4,-1
 22 1020 l 1,5,-1
 22 1154 l 1,6,-1
 348 1154 l 1,7,-1
 348 -326 l 1,0,-1
EndSplineSet
EndChar

StartChar: asciicircum
Encoding: 94 94 39
Width: 750
GlyphClass: 2
Flags: W
LayerCount: 2
Fore
SplineSet
722 532 m 1,0,-1
 560 532 l 1,1,-1
 374 982 l 1,2,-1
 194 532 l 1,3,-1
 28 532 l 1,4,-1
 312 1172 l 1,5,-1
 438 1172 l 1,6,-1
 722 532 l 1,0,-1
EndSplineSet
EndChar

StartChar: underscore
Encoding: 95 95 40
Width: 890
GlyphClass: 2
Flags: W
LayerCount: 2
Fore
SplineSet
916 -326 m 1,0,-1
 -32 -326 l 1,1,-1
 -32 -208 l 1,2,-1
 916 -208 l 1,3,-1
 916 -326 l 1,0,-1
EndSplineSet
EndChar

StartChar: grave
Encoding: 96 96 41
Width: 308
GlyphClass: 2
Flags: W
LayerCount: 2
Fore
SplineSet
292 660 m 1,0,-1
 256 620 l 1,1,-1
 184 620 l 1,2,-1
 134 662 l 1,3,-1
 92 708 l 2,4,5
 84 720 84 720 80 726 c 0,6,7
 66 748 66 748 56 768 c 2,8,-1
 46 796 l 1,9,-1
 44 830 l 2,10,11
 40 860 40 860 50 876 c 1,12,13
 52 890 52 890 62 907 c 128,-1,14
 72 924 72 924 88 933 c 128,-1,15
 104 942 104 942 140 948 c 1,16,-1
 204 948 l 1,17,-1
 232 944 l 1,18,-1
 254 928 l 1,19,-1
 268 906 l 2,20,21
 276 898 276 898 276 878 c 0,22,23
 276 856 276 856 268 837 c 128,-1,24
 260 818 260 818 242 812 c 2,25,-1
 222 802 l 1,26,-1
 204 798 l 1,27,-1
 138 798 l 1,28,-1
 130 800 l 1,29,-1
 116 804 l 1,30,-1
 106 806 l 1,31,-1
 108 822 l 1,32,-1
 178 822 l 1,33,-1
 182 802 l 1,34,-1
 184 788 l 1,35,-1
 190 768 l 1,36,-1
 204 742 l 1,37,-1
 220 720 l 1,38,-1
 240 702 l 1,39,-1
 260 684 l 1,40,-1
 292 660 l 1,0,-1
EndSplineSet
EndChar

StartChar: braceleft
Encoding: 123 123 42
Width: 534
GlyphClass: 2
Flags: W
LayerCount: 2
Fore
SplineSet
506 -344 m 1,0,-1
 452 -344 l 2,1,2
 376 -344 376 -344 340 -332 c 0,3,4
 290 -312 290 -312 258 -274 c 128,-1,5
 226 -236 226 -236 208 -166 c 1,6,7
 198 -96 198 -96 198 38 c 2,8,-1
 198 72 l 2,9,10
 198 182 198 182 186 234 c 128,-1,11
 174 286 174 286 135 314 c 128,-1,12
 96 342 96 342 36 342 c 1,13,-1
 36 486 l 1,14,15
 100 486 100 486 136 516 c 128,-1,16
 172 546 172 546 186 596 c 1,17,-1
 194 684 l 1,18,-1
 198 780 l 1,19,20
 198 912 198 912 204 964 c 1,21,22
 204 1012 204 1012 230 1058 c 0,23,24
 246 1090 246 1090 252 1098 c 128,-1,25
 258 1106 258 1106 279 1125 c 128,-1,26
 300 1144 300 1144 354 1164 c 0,27,28
 384 1172 384 1172 452 1172 c 2,29,-1
 506 1172 l 1,30,-1
 506 1034 l 1,31,-1
 472 1034 l 2,32,33
 438 1034 438 1034 413 1030 c 128,-1,34
 388 1026 388 1026 370 1006 c 0,35,36
 346 978 346 978 346 882 c 2,37,-1
 346 834 l 1,38,-1
 346 796 l 1,39,-1
 346 764 l 1,40,-1
 346 740 l 1,41,-1
 346 718 l 1,42,-1
 344 660 l 2,43,44
 344 636 344 636 336 622 c 1,45,46
 322 540 322 540 288 492 c 1,47,48
 256 454 256 454 192 416 c 1,49,50
 270 380 270 380 308 308 c 128,-1,51
 346 236 346 236 346 62 c 2,52,-1
 348 -118 l 2,53,54
 352 -144 352 -144 357 -160 c 128,-1,55
 362 -176 362 -176 376 -188 c 1,56,-1
 406 -198 l 2,57,58
 428 -206 428 -206 472 -206 c 2,59,-1
 506 -206 l 1,60,-1
 506 -344 l 1,0,-1
EndSplineSet
EndChar

StartChar: bar
Encoding: 124 124 43
Width: 416
GlyphClass: 2
Flags: W
LayerCount: 2
Fore
SplineSet
276 -344 m 1,0,-1
 140 -344 l 1,1,-1
 140 1172 l 1,2,-1
 276 1172 l 1,3,-1
 276 -344 l 1,0,-1
EndSplineSet
EndChar

StartChar: braceright
Encoding: 125 125 44
Width: 534
GlyphClass: 2
Flags: W
LayerCount: 2
Fore
SplineSet
498 342 m 1,0,1
 436 342 436 342 398 315 c 128,-1,2
 360 288 360 288 348 230 c 1,3,-1
 340 160 l 1,4,-1
 336 50 l 1,5,-1
 336 20 l 1,6,-1
 336 -6 l 1,7,-1
 336 -28 l 1,8,-1
 332 -124 l 2,9,10
 332 -184 332 -184 302 -228 c 1,11,12
 294 -248 294 -248 283 -263 c 128,-1,13
 272 -278 272 -278 254 -298 c 1,14,-1
 224 -316 l 1,15,-1
 180 -336 l 1,16,-1
 140 -342 l 1,17,-1
 80 -344 l 1,18,-1
 28 -344 l 1,19,-1
 28 -206 l 1,20,-1
 60 -206 l 2,21,22
 138 -206 138 -206 162 -178 c 1,23,24
 188 -154 188 -154 188 -52 c 2,25,-1
 188 100 l 1,26,-1
 194 196 l 2,27,28
 202 278 202 278 246 338 c 0,29,30
 280 384 280 384 340 414 c 1,31,32
 258 458 258 458 228 522 c 1,33,34
 188 590 188 590 188 766 c 2,35,-1
 188 862 l 1,36,-1
 182 960 l 2,37,38
 182 990 182 990 158 1012 c 128,-1,39
 134 1034 134 1034 60 1034 c 2,40,-1
 28 1034 l 1,41,-1
 28 1172 l 1,42,-1
 80 1172 l 2,43,44
 140 1172 140 1172 160 1169 c 128,-1,45
 180 1166 180 1166 214 1153 c 128,-1,46
 248 1140 248 1140 280 1101 c 128,-1,47
 312 1062 312 1062 324 994 c 1,48,-1
 332 910 l 1,49,-1
 336 790 l 1,50,51
 336 644 336 644 348 597 c 128,-1,52
 360 550 360 550 396 516 c 1,53,54
 420 500 420 500 436 494 c 2,55,-1
 460 488 l 1,56,-1
 498 486 l 1,57,-1
 498 342 l 1,0,1
EndSplineSet
EndChar

StartChar: asciitilde
Encoding: 126 126 45
Width: 934
GlyphClass: 2
Flags: W
LayerCount: 2
Fore
SplineSet
876 524 m 1,0,1
 848 498 848 498 823 481 c 128,-1,2
 798 464 798 464 772 453 c 128,-1,3
 746 442 746 442 720 435 c 128,-1,4
 694 428 694 428 652 428 c 0,5,6
 596 428 596 428 561 437 c 128,-1,7
 526 446 526 446 503 455 c 128,-1,8
 480 464 480 464 426 490 c 0,9,10
 332 532 332 532 272 532 c 0,11,12
 238 532 238 532 223 529 c 128,-1,13
 208 526 208 526 180 514 c 1,14,-1
 134 484 l 2,15,16
 120 474 120 474 103 458 c 128,-1,17
 86 442 86 442 60 412 c 1,18,-1
 60 598 l 1,19,20
 148 698 148 698 284 698 c 0,21,22
 302 698 302 698 326 695 c 128,-1,23
 350 692 350 692 386 684 c 0,24,25
 426 672 426 672 452 663 c 128,-1,26
 478 654 478 654 534 628 c 1,27,-1
 612 600 l 1,28,-1
 644 592 l 1,29,-1
 666 592 l 2,30,31
 702 592 702 592 762 620 c 0,32,33
 788 634 788 634 815 655 c 128,-1,34
 842 676 842 676 876 710 c 1,35,-1
 876 524 l 1,0,1
EndSplineSet
EndChar

StartChar: cent
Encoding: 162 162 46
Width: 721
GlyphClass: 2
Flags: W
LayerCount: 2
Fore
SplineSet
598 156 m 1,0,1
 537 71 537 71 467 31 c 128,-1,2
 397 -9 397 -9 304 -17 c 1,3,-1
 228 -265 l 1,4,-1
 187 -265 l 1,5,-1
 262 -17 l 1,6,7
 177 -8 177 -8 128.5 47 c 128,-1,8
 80 102 80 102 80 188 c 0,9,10
 80 345 80 345 191.5 478.5 c 128,-1,11
 303 612 303 612 457 638 c 1,12,-1
 541 917 l 1,13,-1
 580 917 l 1,14,-1
 499 638 l 1,15,16
 580 638 580 638 616.5 607 c 128,-1,17
 653 576 653 576 653 523 c 0,18,19
 653 482 653 482 631.5 455.5 c 128,-1,20
 610 429 610 429 580 429 c 0,21,22
 557 429 557 429 544 442 c 128,-1,23
 531 455 531 455 531 476 c 0,24,25
 531 491 531 491 536 502 c 128,-1,26
 541 513 541 513 560.5 534.5 c 128,-1,27
 580 556 580 556 580 570 c 0,28,29
 580 578 580 578 575 585 c 0,30,31
 565 596 565 596 549.5 601 c 128,-1,32
 534 606 534 606 489 606 c 1,33,-1
 322 49 l 1,34,-1
 352 47 l 1,35,36
 470 47 470 47 580 173 c 1,37,-1
 598 156 l 1,0,1
284 57 m 1,38,-1
 445 598 l 1,39,40
 383 570 383 570 342 533 c 0,41,42
 274 467 274 467 237 380.5 c 128,-1,43
 200 294 200 294 200 205 c 0,44,45
 200 146 200 146 224 108 c 0,46,47
 243 81 243 81 284 57 c 1,38,-1
EndSplineSet
EndChar

StartChar: multiply
Encoding: 215 215 47
Width: 975
GlyphClass: 2
Flags: W
LayerCount: 2
Fore
SplineSet
267 230 m 1,0,-1
 515 479 l 1,1,-1
 267 728 l 1,2,-1
 308 768 l 1,3,-1
 556 520 l 1,4,-1
 805 768 l 1,5,-1
 844 728 l 1,6,-1
 595 480 l 1,7,-1
 845 230 l 1,8,-1
 805 190 l 1,9,-1
 555 439 l 1,10,-1
 307 190 l 1,11,-1
 267 230 l 1,0,-1
EndSplineSet
EndChar

StartChar: divide
Encoding: 247 247 48
Width: 792
GlyphClass: 2
Flags: W
LayerCount: 2
Fore
SplineSet
418 757 m 0,0,1
 443 757 443 757 461 739 c 128,-1,2
 479 721 479 721 479 695 c 0,3,4
 479 670 479 670 461 652 c 128,-1,5
 443 634 443 634 417 634 c 0,6,7
 392 634 392 634 373.5 652 c 128,-1,8
 355 670 355 670 355 695 c 0,9,10
 355 721 355 721 373.5 739 c 128,-1,11
 392 757 392 757 418 757 c 0,0,1
797 450 m 1,12,-1
 38 450 l 1,13,-1
 38 508 l 1,14,-1
 797 508 l 1,15,-1
 797 450 l 1,12,-1
418 320 m 0,16,17
 443 320 443 320 461 301.5 c 128,-1,18
 479 283 479 283 479 257 c 0,19,20
 479 233 479 233 461 215 c 128,-1,21
 443 197 443 197 418 197 c 0,22,23
 392 197 392 197 373.5 215 c 128,-1,24
 355 233 355 233 355 257 c 0,25,26
 355 283 355 283 373.5 301.5 c 128,-1,27
 392 320 392 320 418 320 c 0,16,17
EndSplineSet
EndChar

StartChar: tm_visarga
Encoding: 2947 2947 49
Width: 1186
GlyphClass: 2
Flags: W
LayerCount: 2
Fore
SplineSet
814 680 m 0,0,1
 814 624 814 624 768 576 c 128,-1,2
 722 528 722 528 658 528 c 0,3,4
 626 528 626 528 536 560 c 128,-1,5
 446 592 446 592 414 592 c 0,6,7
 380 592 380 592 358 582 c 2,8,-1
 332 572 l 1,9,10
 310 572 310 572 310 632 c 2,11,-1
 310 886 l 2,12,13
 310 946 310 946 332 968 c 0,14,15
 364 994 364 994 462 994 c 0,16,17
 584 994 584 994 699 900 c 128,-1,18
 814 806 814 806 814 680 c 0,0,1
1156 118 m 0,19,20
 1156 -26 1156 -26 1000 -26 c 0,21,22
 968 -26 968 -26 898 -1 c 128,-1,23
 828 24 828 24 792 24 c 0,24,25
 748 24 748 24 716 8 c 2,26,-1
 680 -6 l 1,27,28
 652 -6 652 -6 652 44 c 2,29,-1
 652 316 l 2,30,31
 652 384 652 384 676 409 c 128,-1,32
 700 434 700 434 766 434 c 0,33,34
 910 434 910 434 1033 340 c 128,-1,35
 1156 246 1156 246 1156 118 c 0,19,20
536 118 m 0,36,37
 536 48 536 48 480 4 c 0,38,39
 432 -34 432 -34 382 -34 c 0,40,41
 316 -34 316 -34 250 -8 c 0,42,43
 238 -4 238 -4 200 7 c 128,-1,44
 162 18 162 18 136 18 c 0,45,46
 102 18 102 18 82 8 c 2,47,-1
 56 -2 l 1,48,49
 30 -2 30 -2 30 52 c 2,50,-1
 30 344 l 2,51,52
 30 430 30 430 122 430 c 0,53,54
 298 430 298 430 417 339 c 128,-1,55
 536 248 536 248 536 118 c 0,36,37
628 710 m 256,56,57
 628 782 628 782 578 852 c 0,58,59
 536 912 536 912 504 912 c 0,60,61
 478 912 478 912 478 866 c 2,62,-1
 478 656 l 1,63,64
 504 656 504 656 540 644 c 1,65,-1
 590 638 l 1,66,67
 628 638 628 638 628 710 c 256,56,57
976 154 m 0,68,69
 976 204 976 204 929 274 c 128,-1,70
 882 344 882 344 848 344 c 0,71,72
 822 344 822 344 820 312 c 2,73,-1
 820 86 l 1,74,-1
 844 94 l 1,75,-1
 882 86 l 1,76,-1
 930 78 l 1,77,78
 976 78 976 78 976 154 c 0,68,69
358 144 m 0,79,80
 358 212 358 212 309 279 c 128,-1,81
 260 346 260 346 218 346 c 0,82,83
 206 346 206 346 202 322 c 1,84,-1
 202 74 l 1,85,86
 226 76 226 76 258 68 c 2,87,-1
 290 60 l 1,88,89
 320 60 320 60 339 85 c 128,-1,90
 358 110 358 110 358 144 c 0,79,80
EndSplineSet
EndChar

StartChar: tm_a
Encoding: 2949 2949 50
Width: 1720
GlyphClass: 2
Flags: W
LayerCount: 2
Fore
SplineSet
1706 0 m 1,0,-1
 1528 0 l 2,1,2
 1492 0 1492 0 1461 19 c 128,-1,3
 1430 38 1430 38 1428 70 c 2,4,-1
 1428 372 l 1,5,-1
 1324 372 l 1,6,-1
 1328 284 l 1,7,8
 1328 96 1328 96 1258 -20 c 0,9,10
 1180 -156 1180 -156 1022 -156 c 0,11,12
 948 -156 948 -156 838 -100 c 2,13,-1
 644 4 l 1,14,15
 520 60 520 60 404 60 c 0,16,17
 314 60 314 60 206 6 c 2,18,-1
 94 -46 l 1,19,20
 60 -46 60 -46 60 36 c 2,21,-1
 60 600 l 2,22,23
 60 722 60 722 160 722 c 0,24,25
 318 722 318 722 450 666 c 1,26,-1
 450 848 l 2,27,28
 450 928 450 928 481 950 c 128,-1,29
 512 972 512 972 634 972 c 0,30,31
 944 972 944 972 1098 856 c 128,-1,32
 1252 740 1252 740 1322 452 c 1,33,-1
 1428 452 l 1,34,-1
 1428 734 l 2,35,36
 1428 794 1428 794 1364 794 c 2,37,-1
 1330 794 l 1,38,-1
 1330 872 l 1,39,-1
 1516 872 l 2,40,41
 1582 872 1582 872 1605 850 c 128,-1,42
 1628 828 1628 828 1628 764 c 2,43,-1
 1628 118 l 2,44,45
 1628 76 1628 76 1670 76 c 2,46,-1
 1706 76 l 1,47,-1
 1706 0 l 1,0,-1
1142 474 m 1,48,49
 1142 544 1142 544 1117 613 c 128,-1,50
 1092 682 1092 682 1044 748 c 0,51,52
 932 902 932 902 764 902 c 0,53,54
 692 902 692 902 670 892 c 128,-1,55
 648 882 648 882 646 850 c 2,56,-1
 646 776 l 1,57,58
 766 752 766 752 861 678 c 128,-1,59
 956 604 956 604 982 510 c 1,60,61
 1040 488 1040 488 1142 474 c 1,48,49
784 364 m 1,62,63
 792 388 792 388 796 410 c 128,-1,64
 800 432 800 432 800 460 c 0,65,66
 800 538 800 538 760 602 c 128,-1,67
 720 666 720 666 646 692 c 1,68,-1
 646 412 l 1,69,70
 694 412 694 412 784 364 c 1,62,63
1150 382 m 1,71,-1
 1000 422 l 1,72,73
 1000 342 1000 342 964 300 c 128,-1,74
 928 258 928 258 866 258 c 0,75,76
 816 258 816 258 736 304 c 128,-1,77
 656 350 656 350 616 350 c 0,78,79
 584 350 584 350 556 340 c 1,80,-1
 506 330 l 1,81,82
 450 330 450 330 450 416 c 2,83,-1
 450 576 l 1,84,85
 340 628 340 628 296 628 c 0,86,87
 254 628 254 628 254 568 c 2,88,-1
 254 114 l 1,89,90
 342 142 342 142 400 142 c 0,91,92
 534 142 534 142 720 60 c 128,-1,93
 906 -22 906 -22 950 -22 c 0,94,95
 1046 -22 1046 -22 1104 90 c 0,96,97
 1152 186 1152 186 1152 324 c 1,98,-1
 1150 382 l 1,71,-1
EndSplineSet
EndChar

StartChar: tm_aa
Encoding: 2950 2950 51
Width: 2006
GlyphClass: 2
Flags: W
LayerCount: 2
Fore
SplineSet
1976 -38 m 0,0,1
 1976 -144 1976 -144 1884 -210 c 0,2,3
 1844 -238 1844 -238 1796 -252 c 128,-1,4
 1748 -266 1748 -266 1684 -266 c 0,5,6
 1590 -266 1590 -266 1494 -229 c 128,-1,7
 1398 -192 1398 -192 1362 -140 c 1,8,-1
 1362 -24 l 1,9,10
 1398 -72 1398 -72 1475 -116 c 128,-1,11
 1552 -160 1552 -160 1610 -160 c 0,12,13
 1786 -160 1786 -160 1786 4 c 0,14,15
 1786 140 1786 140 1636 198 c 1,16,-1
 1636 134 l 2,17,18
 1636 76 1636 76 1676 76 c 2,19,-1
 1712 76 l 1,20,-1
 1712 0 l 1,21,-1
 1548 0 l 2,22,23
 1436 0 1436 0 1436 92 c 2,24,-1
 1436 378 l 1,25,-1
 1328 378 l 1,26,-1
 1332 294 l 1,27,28
 1332 98 1332 98 1258 -26 c 0,29,30
 1176 -160 1176 -160 1030 -160 c 0,31,32
 944 -160 944 -160 748 -49 c 128,-1,33
 552 62 552 62 418 62 c 0,34,35
 324 62 324 62 248 36 c 0,36,37
 210 20 210 20 192 10 c 0,38,39
 186 6 186 6 148 -16 c 128,-1,40
 110 -38 110 -38 94 -42 c 1,41,42
 60 -42 60 -42 60 12 c 2,43,-1
 60 608 l 2,44,45
 60 728 60 728 198 728 c 0,46,47
 260 728 260 728 350 702 c 0,48,49
 426 684 426 684 458 664 c 1,50,-1
 458 838 l 2,51,52
 458 930 458 930 486 950 c 0,53,54
 520 970 520 970 666 970 c 0,55,56
 978 970 978 970 1138 824 c 0,57,58
 1262 710 1262 710 1322 458 c 1,59,-1
 1436 458 l 1,60,-1
 1436 738 l 2,61,62
 1436 786 1436 786 1392 786 c 2,63,-1
 1340 786 l 1,64,-1
 1340 868 l 1,65,-1
 1530 868 l 2,66,67
 1592 868 1592 868 1614 849 c 128,-1,68
 1636 830 1636 830 1636 780 c 2,69,-1
 1636 294 l 1,70,71
 1976 224 1976 224 1976 -38 c 0,0,1
1146 472 m 1,72,73
 1122 672 1122 672 1014 786 c 128,-1,74
 906 900 906 900 736 900 c 0,75,76
 650 900 650 900 650 856 c 2,77,-1
 650 772 l 1,78,79
 900 730 900 730 988 502 c 1,80,-1
 1146 472 l 1,72,73
800 452 m 0,81,82
 800 630 800 630 648 692 c 1,83,-1
 648 416 l 1,84,85
 676 416 676 416 730 392 c 2,86,-1
 782 370 l 1,87,88
 800 370 800 370 800 452 c 0,81,82
1154 400 m 1,89,-1
 1002 418 l 1,90,91
 1002 340 1002 340 965 299 c 128,-1,92
 928 258 928 258 862 258 c 0,93,94
 830 258 830 258 739 305 c 128,-1,95
 648 352 648 352 618 352 c 0,96,97
 590 352 590 352 558 342 c 1,98,-1
 510 334 l 1,99,100
 458 334 458 334 458 398 c 2,101,-1
 458 584 l 1,102,103
 332 632 332 632 288 632 c 0,104,105
 254 632 254 632 254 578 c 2,106,-1
 254 116 l 1,107,108
 314 146 314 146 388 146 c 0,109,110
 508 146 508 146 628 102 c 0,111,112
 660 90 660 90 698 73 c 128,-1,113
 736 56 736 56 810 20 c 0,114,115
 908 -24 908 -24 948 -24 c 0,116,117
 1062 -24 1062 -24 1116 112 c 0,118,119
 1138 168 1138 168 1146 235 c 128,-1,120
 1154 302 1154 302 1154 400 c 1,89,-1
EndSplineSet
EndChar

StartChar: tm_i
Encoding: 2951 2951 52
Width: 1832
GlyphClass: 2
Flags: W
LayerCount: 2
Fore
SplineSet
1762 390 m 1,0,-1
 1602 390 l 2,1,2
 1530 390 1530 390 1502 442 c 1,3,-1
 1454 566 l 1,4,5
 1324 844 1324 844 956 844 c 2,6,-1
 654 844 l 2,7,8
 566 844 566 844 566 774 c 2,9,-1
 566 522 l 1,10,-1
 642 508 l 1,11,-1
 642 632 l 2,12,13
 642 704 642 704 678 728 c 128,-1,14
 714 752 714 752 836 752 c 0,15,16
 1302 752 1302 752 1416 350 c 1,17,18
 1718 226 1718 226 1718 0 c 0,19,20
 1718 -102 1718 -102 1638 -173 c 128,-1,21
 1558 -244 1558 -244 1470 -244 c 0,22,23
 1302 -244 1302 -244 1116 -124 c 1,24,25
 1034 -150 1034 -150 950 -150 c 0,26,27
 794 -150 794 -150 550 -53 c 128,-1,28
 306 44 306 44 258 44 c 0,29,30
 196 44 196 44 157 24 c 128,-1,31
 118 4 118 4 96 0 c 1,32,33
 70 0 70 0 70 46 c 2,34,-1
 70 420 l 2,35,36
 70 544 70 544 236 544 c 2,37,-1
 366 544 l 1,38,-1
 366 776 l 2,39,40
 366 920 366 920 526 920 c 2,41,-1
 950 920 l 2,42,43
 1326 920 1326 920 1530 714 c 0,44,45
 1580 664 1580 664 1654 538 c 0,46,47
 1702 454 1702 454 1736 454 c 2,48,-1
 1762 454 l 1,49,-1
 1762 390 l 1,0,-1
1196 398 m 1,50,51
 1196 486 1196 486 1111 582 c 128,-1,52
 1026 678 1026 678 932 678 c 0,53,54
 870 678 870 678 852 668 c 0,55,56
 834 662 834 662 834 626 c 2,57,-1
 834 586 l 1,58,59
 994 568 994 568 1080 426 c 1,60,-1
 1196 398 l 1,50,51
930 334 m 1,61,62
 936 348 936 348 940 380 c 1,63,64
 940 426 940 426 910 468 c 128,-1,65
 880 510 880 510 834 522 c 1,66,-1
 834 374 l 1,67,-1
 930 334 l 1,61,62
1210 252 m 1,68,-1
 1208 310 l 1,69,-1
 1160 330 l 2,70,71
 1124 342 1124 342 1098 342 c 1,72,73
 1104 308 1104 308 1076 266 c 128,-1,74
 1048 224 1048 224 1004 224 c 0,75,76
 958 224 958 224 870 264 c 128,-1,77
 782 304 782 304 752 304 c 0,78,79
 726 304 726 304 710 300 c 2,80,-1
 674 298 l 2,81,82
 642 298 642 298 642 344 c 2,83,-1
 642 426 l 1,84,-1
 566 438 l 1,85,-1
 566 246 l 1,86,87
 684 222 684 222 809 159 c 128,-1,88
 934 96 934 96 1058 -4 c 1,89,90
 1210 62 1210 62 1210 252 c 1,68,-1
970 -36 m 1,91,92
 650 178 650 178 450 178 c 0,93,94
 400 178 400 178 383 197 c 128,-1,95
 366 216 366 216 366 262 c 2,96,-1
 366 466 l 1,97,-1
 308 466 l 2,98,99
 264 466 264 466 264 408 c 2,100,-1
 264 124 l 1,101,102
 320 124 320 124 390 105 c 128,-1,103
 460 86 460 86 550 42 c 0,104,105
 740 -44 740 -44 872 -44 c 0,106,107
 924 -44 924 -44 970 -36 c 1,91,92
1542 44 m 0,108,109
 1542 174 1542 174 1422 250 c 1,110,111
 1392 24 1392 24 1200 -84 c 1,112,113
 1288 -126 1288 -126 1370 -126 c 0,114,115
 1542 -126 1542 -126 1542 44 c 0,108,109
EndSplineSet
EndChar

StartChar: tm_ii
Encoding: 2952 2952 53
Width: 1208
GlyphClass: 2
Flags: W
LayerCount: 2
Fore
SplineSet
1178 268 m 0,0,1
 1178 202 1178 202 1094 202 c 2,2,-1
 1016 202 l 2,3,4
 974 202 974 202 952 218 c 128,-1,5
 930 234 930 234 930 294 c 2,6,-1
 930 430 l 2,7,8
 930 468 930 468 942 485 c 128,-1,9
 954 502 954 502 994 502 c 0,10,11
 1072 502 1072 502 1125 429 c 128,-1,12
 1178 356 1178 356 1178 268 c 0,0,1
608 284 m 0,13,14
 608 204 608 204 530 204 c 2,15,-1
 446 204 l 2,16,17
 364 204 364 204 364 284 c 2,18,-1
 364 422 l 2,19,20
 364 502 364 502 416 502 c 0,21,22
 496 502 496 502 556 430 c 0,23,24
 608 362 608 362 608 284 c 0,13,14
1026 688 m 1,25,-1
 870 688 l 1,26,-1
 870 90 l 2,27,28
 870 0 870 0 918 0 c 2,29,-1
 950 0 l 1,30,-1
 950 -66 l 1,31,-1
 758 -66 l 2,32,33
 658 -66 658 -66 658 64 c 2,34,-1
 658 688 l 1,35,36
 568 688 568 688 501 663 c 128,-1,37
 434 638 434 638 384 578 c 0,38,39
 286 456 286 456 286 238 c 0,40,41
 286 78 286 78 356 0 c 1,42,-1
 30 0 l 1,43,-1
 30 72 l 1,44,-1
 84 72 l 1,45,46
 80 86 80 86 78 109 c 128,-1,47
 76 132 76 132 76 184 c 0,48,49
 76 300 76 300 150 442 c 0,50,51
 234 604 234 604 360 688 c 1,52,-1
 158 688 l 1,53,-1
 158 768 l 1,54,-1
 1026 768 l 1,55,-1
 1026 688 l 1,25,-1
EndSplineSet
EndChar

StartChar: tm_u
Encoding: 2953 2953 54
Width: 1798
GlyphClass: 2
Flags: W
LayerCount: 2
Fore
SplineSet
1784 88 m 1,0,1
 1784 -18 1784 -18 1652 -70 c 128,-1,2
 1520 -122 1520 -122 1224 -122 c 0,3,4
 1000 -122 1000 -122 742 -49 c 128,-1,5
 484 24 484 24 408 24 c 0,6,7
 308 24 308 24 214 -10 c 2,8,-1
 116 -46 l 1,9,10
 70 -46 70 -46 70 14 c 2,11,-1
 70 182 l 2,12,13
 70 240 70 240 124 268 c 0,14,15
 178 292 178 292 322 292 c 0,16,17
 418 292 418 292 490 280 c 1,18,-1
 586 270 l 1,19,20
 658 270 658 270 710 328 c 128,-1,21
 762 386 762 386 762 474 c 0,22,23
 762 658 762 658 652 759 c 128,-1,24
 542 860 542 860 362 860 c 0,25,26
 270 860 270 860 270 796 c 0,27,28
 270 726 270 726 350 670 c 1,29,-1
 498 578 l 1,30,31
 578 522 578 522 578 462 c 0,32,33
 578 364 578 364 486 364 c 0,34,35
 460 364 460 364 392 387 c 128,-1,36
 324 410 324 410 286 410 c 0,37,38
 186 410 186 410 148 394 c 2,39,-1
 104 378 l 1,40,41
 70 378 70 378 70 460 c 2,42,-1
 70 776 l 2,43,44
 70 864 70 864 106 900 c 0,45,46
 150 938 150 938 290 938 c 0,47,48
 614 938 614 938 798 780 c 0,49,50
 958 642 958 642 958 438 c 0,51,52
 958 180 958 180 680 180 c 0,53,54
 634 180 634 180 616 182 c 0,55,56
 576 192 576 192 554 194 c 0,57,58
 512 202 512 202 482 206 c 128,-1,59
 452 210 452 210 426 210 c 0,60,61
 306 210 306 210 276 192 c 1,62,63
 268 180 268 180 264 150 c 0,64,65
 264 120 264 120 272 112 c 1,66,-1
 380 124 l 1,67,68
 456 124 456 124 582 80 c 0,69,70
 678 48 678 48 731 31 c 128,-1,71
 784 14 784 14 856 -3 c 128,-1,72
 928 -20 928 -20 1031 -32 c 128,-1,73
 1134 -44 1134 -44 1240 -44 c 0,74,75
 1440 -44 1440 -44 1512 2 c 0,76,77
 1546 24 1546 24 1561 61 c 128,-1,78
 1576 98 1576 98 1576 154 c 1,79,-1
 1784 88 l 1,0,1
386 516 m 0,80,81
 386 574 386 574 350 640 c 128,-1,82
 314 706 314 706 266 700 c 1,83,-1
 266 494 l 1,84,85
 310 472 310 472 350 472 c 0,86,87
 386 472 386 472 386 516 c 0,80,81
EndSplineSet
EndChar

StartChar: tm_uu
Encoding: 2954 2954 55
Width: 2394
GlyphClass: 2
Flags: W
LayerCount: 2
Fore
SplineSet
2158 688 m 1,0,-1
 2046 688 l 1,1,-1
 2046 250 l 1,2,-1
 2048 204 l 2,3,4
 2050 192 2050 192 2070 190 c 2,5,-1
 2096 190 l 1,6,-1
 2096 136 l 1,7,-1
 1942 108 l 1,8,-1
 1914 106 l 1,9,10
 1856 106 1856 106 1856 198 c 2,11,-1
 1856 680 l 1,12,13
 1822 686 1822 686 1768 656 c 0,14,15
 1720 626 1720 626 1690 572 c 1,16,17
 1762 458 1762 458 1762 334 c 0,18,19
 1762 248 1762 248 1724 170 c 1,20,-1
 1772 152 l 1,21,-1
 1772 92 l 1,22,23
 1664 92 1664 92 1506 144 c 1,24,25
 1600 210 1600 210 1600 368 c 0,26,27
 1600 516 1600 516 1509 604 c 128,-1,28
 1418 692 1418 692 1290 692 c 0,29,30
 1204 692 1204 692 1204 652 c 2,31,-1
 1204 554 l 1,32,33
 1248 554 1248 554 1295 532 c 128,-1,34
 1342 510 1342 510 1392 470 c 0,35,36
 1494 386 1494 386 1494 290 c 256,37,38
 1494 194 1494 194 1424 164 c 1,39,40
 1324 200 1324 200 1268 200 c 0,41,42
 1178 200 1178 200 1128 172 c 2,43,-1
 1078 144 l 1,44,45
 1060 144 1060 144 1054 154 c 1,46,-1
 1050 210 l 1,47,-1
 1050 668 l 2,48,49
 1050 724 1050 724 1075 745 c 128,-1,50
 1100 766 1100 766 1196 766 c 0,51,52
 1476 766 1476 766 1632 634 c 1,53,54
 1722 766 1722 766 1878 766 c 2,55,-1
 2158 766 l 1,56,-1
 2158 688 l 1,0,-1
2380 166 m 1,57,58
 2380 30 2380 30 2122 -59 c 128,-1,59
 1864 -148 1864 -148 1388 -148 c 0,60,61
 1198 -148 1198 -148 976 -104 c 0,62,63
 860 -80 860 -80 632 -20 c 0,64,65
 456 24 456 24 420 24 c 0,66,67
 308 24 308 24 206 -12 c 0,68,69
 164 -28 164 -28 136 -40 c 0,70,71
 128 -44 128 -44 114 -50 c 1,72,73
 70 -50 70 -50 70 26 c 2,74,-1
 70 164 l 2,75,76
 70 240 70 240 118 268 c 0,77,78
 166 292 166 292 332 292 c 0,79,80
 394 292 394 292 476 280 c 1,81,-1
 588 270 l 1,82,83
 652 270 652 270 710 330 c 0,84,85
 764 390 764 390 764 480 c 0,86,87
 764 664 764 664 640 768 c 0,88,89
 528 862 528 862 366 862 c 0,90,91
 268 862 268 862 268 800 c 2,92,-1
 268 782 l 1,93,94
 408 752 408 752 500 648 c 0,95,96
 578 560 578 560 578 466 c 0,97,98
 578 364 578 364 500 364 c 0,99,100
 484 364 484 364 393 389 c 128,-1,101
 302 414 302 414 242 414 c 0,102,103
 208 414 208 414 195 411 c 128,-1,104
 182 408 182 408 156 398 c 2,105,-1
 108 382 l 1,106,107
 70 382 70 382 70 438 c 2,108,-1
 70 784 l 2,109,110
 70 882 70 882 111 911 c 128,-1,111
 152 940 152 940 312 940 c 0,112,113
 608 940 608 940 794 784 c 0,114,115
 962 640 962 640 962 436 c 0,116,117
 962 302 962 302 872 232 c 0,118,119
 798 176 798 176 684 176 c 0,120,121
 660 176 660 176 642 178 c 0,122,123
 594 186 594 186 562 192 c 0,124,125
 466 210 466 210 408 210 c 0,126,127
 294 210 294 210 268 184 c 1,128,129
 266 168 266 168 265 152 c 128,-1,130
 264 136 264 136 264 132 c 0,131,132
 264 116 264 116 270 112 c 1,133,134
 322 124 322 124 380 124 c 0,135,136
 436 124 436 124 592 74 c 0,137,138
 682 44 682 44 768 20 c 128,-1,139
 854 -4 854 -4 926 -20 c 0,140,141
 1176 -70 1176 -70 1424 -70 c 0,142,143
 2174 -70 2174 -70 2174 164 c 0,144,145
 2174 190 2174 190 2162 224 c 1,146,-1
 2370 200 l 1,147,-1
 2380 166 l 1,57,58
386 522 m 0,148,149
 386 584 386 584 348 642 c 0,150,151
 314 700 314 700 266 700 c 1,152,-1
 266 492 l 1,153,154
 310 470 310 470 366 470 c 0,155,156
 386 470 386 470 386 522 c 0,148,149
1332 318 m 0,157,158
 1332 376 1332 376 1283 435 c 128,-1,159
 1234 494 1234 494 1200 488 c 1,160,-1
 1200 260 l 1,161,162
 1226 268 1226 268 1260 268 c 0,163,164
 1284 268 1284 268 1318 258 c 1,165,166
 1332 280 1332 280 1332 318 c 0,157,158
EndSplineSet
EndChar

StartChar: tm_e
Encoding: 2958 2958 56
Width: 1106
GlyphClass: 2
Flags: W
LayerCount: 2
Fore
SplineSet
1090 690 m 1,0,-1
 936 690 l 1,1,-1
 936 60 l 2,2,3
 936 -2 936 -2 994 -2 c 2,4,-1
 1022 -2 l 1,5,-1
 1022 -66 l 1,6,-1
 850 -66 l 2,7,8
 722 -66 722 -66 722 74 c 2,9,-1
 722 694 l 1,10,-1
 550 694 l 2,11,12
 474 694 474 694 398 642 c 128,-1,13
 322 590 322 590 288 508 c 1,14,15
 384 508 384 508 500 397 c 128,-1,16
 616 286 616 286 616 164 c 0,17,18
 616 92 616 92 568 42 c 128,-1,19
 520 -8 520 -8 456 -8 c 0,20,21
 434 -8 434 -8 363 23 c 128,-1,22
 292 54 292 54 230 54 c 0,23,24
 178 54 178 54 134 26 c 1,25,-1
 84 0 l 1,26,27
 30 0 30 0 30 182 c 0,28,29
 30 334 30 334 116 482 c 0,30,31
 192 612 192 612 310 690 c 1,32,-1
 106 690 l 1,33,-1
 106 766 l 1,34,-1
 1090 766 l 1,35,-1
 1090 690 l 1,0,-1
410 210 m 0,36,37
 410 276 410 276 358 348 c 0,38,39
 310 420 310 420 260 426 c 1,40,41
 226 364 226 364 226 208 c 0,42,43
 226 150 226 150 234 124 c 1,44,45
 242 130 242 130 264 134 c 1,46,-1
 314 122 l 1,47,-1
 362 110 l 1,48,49
 410 110 410 110 410 210 c 0,36,37
EndSplineSet
EndChar

StartChar: tm_ee
Encoding: 2959 2959 57
Width: 1100
GlyphClass: 2
Flags: W
LayerCount: 2
Fore
SplineSet
1084 692 m 1,0,-1
 934 692 l 1,1,-1
 934 50 l 2,2,3
 934 -114 934 -114 858 -204 c 128,-1,4
 782 -294 782 -294 658 -294 c 0,5,6
 532 -294 532 -294 420 -219 c 128,-1,7
 308 -144 308 -144 218 -144 c 0,8,9
 132 -144 132 -144 68 -194 c 0,10,11
 26 -228 26 -228 -16 -290 c 0,12,13
 -48 -336 -48 -336 -58 -340 c 1,14,15
 -94 -340 -94 -340 -94 -274 c 2,16,-1
 -94 -152 l 2,17,18
 -94 -100 -94 -100 -50 -76 c 1,19,20
 4 -52 4 -52 158 -52 c 0,21,22
 268 -52 268 -52 401 -108 c 128,-1,23
 534 -164 534 -164 590 -164 c 0,24,25
 644 -164 644 -164 681 -120 c 128,-1,26
 718 -76 718 -76 718 -14 c 2,27,-1
 718 692 l 1,28,-1
 536 692 l 2,29,30
 474 692 474 692 403 644 c 128,-1,31
 332 596 332 596 296 508 c 1,32,33
 400 496 400 496 504 404 c 0,34,35
 622 302 622 302 622 174 c 0,36,37
 622 98 622 98 582 46 c 128,-1,38
 542 -6 542 -6 470 -6 c 0,39,40
 412 -6 412 -6 323 24 c 128,-1,41
 234 54 234 54 212 54 c 0,42,43
 180 54 180 54 140 26 c 1,44,45
 100 4 100 4 84 0 c 1,46,47
 28 0 28 0 28 186 c 0,48,49
 28 294 28 294 102 440 c 0,50,51
 186 612 186 612 316 692 c 1,52,-1
 110 692 l 1,53,-1
 110 768 l 1,54,-1
 1084 768 l 1,55,-1
 1084 692 l 1,0,-1
422 182 m 0,56,57
 422 344 422 344 264 434 c 1,58,59
 238 342 238 342 238 242 c 0,60,61
 238 152 238 152 254 136 c 1,62,63
 276 140 276 140 318 122 c 1,64,-1
 376 106 l 1,65,66
 422 106 422 106 422 182 c 0,56,57
EndSplineSet
EndChar

StartChar: tm_ai
Encoding: 2960 2960 58
Width: 1292
GlyphClass: 2
Flags: W
LayerCount: 2
Fore
SplineSet
1260 -86 m 0,0,1
 1260 -180 1260 -180 1186 -250 c 128,-1,2
 1112 -320 1112 -320 994 -320 c 0,3,4
 804 -320 804 -320 726 -148 c 1,5,6
 726 -174 726 -174 709 -193 c 128,-1,7
 692 -212 692 -212 666 -216 c 0,8,9
 640 -216 640 -216 543 -185 c 128,-1,10
 446 -154 446 -154 386 -154 c 0,11,12
 240 -154 240 -154 182 -174 c 2,13,-1
 114 -194 l 1,14,15
 76 -194 76 -194 76 -160 c 2,16,-1
 76 172 l 2,17,18
 76 248 76 248 118 282 c 0,19,20
 160 312 160 312 278 312 c 2,21,-1
 560 306 l 2,22,23
 578 306 578 306 613 304 c 128,-1,24
 648 302 648 302 698 296 c 2,25,-1
 832 286 l 1,26,27
 1036 286 1036 286 1036 466 c 0,28,29
 1036 572 1036 572 954 646 c 0,30,31
 884 710 884 710 816 710 c 0,32,33
 784 710 784 710 784 674 c 2,34,-1
 784 490 l 2,35,36
 784 448 784 448 834 448 c 1,37,-1
 850 452 l 1,38,-1
 850 378 l 1,39,-1
 664 384 l 2,40,41
 630 384 630 384 604 418 c 0,42,43
 596 428 596 428 590 444 c 0,44,45
 578 474 578 474 578 512 c 0,46,47
 578 600 578 600 510 659 c 128,-1,48
 442 718 442 718 348 718 c 2,49,-1
 300 718 l 2,50,51
 284 718 284 718 274 702 c 128,-1,52
 264 686 264 686 266 662 c 1,53,54
 368 662 368 662 455 597 c 128,-1,55
 542 532 542 532 542 436 c 0,56,57
 542 394 542 394 510 362 c 128,-1,58
 478 330 478 330 418 330 c 0,59,60
 402 330 402 330 384 334 c 128,-1,61
 366 338 366 338 318 352 c 0,62,63
 246 376 246 376 196 376 c 1,64,-1
 136 370 l 1,65,-1
 108 364 l 1,66,67
 76 364 76 364 76 404 c 2,68,-1
 76 702 l 2,69,70
 76 792 76 792 222 792 c 2,71,-1
 358 792 l 2,72,73
 528 792 528 792 592 704 c 1,74,75
 604 798 604 798 698 798 c 2,76,-1
 794 798 l 2,77,78
 958 798 958 798 1086 712 c 0,79,80
 1228 616 1228 616 1228 462 c 0,81,82
 1228 328 1228 328 1104 264 c 0,83,84
 994 206 994 206 812 206 c 0,85,86
 748 206 748 206 618 218 c 2,87,-1
 424 232 l 1,88,89
 342 232 342 232 312 220 c 0,90,91
 286 206 286 206 286 162 c 2,92,-1
 286 -84 l 1,93,94
 300 -74 300 -74 382 -74 c 0,95,96
 512 -74 512 -74 592 -118 c 1,97,-1
 592 12 l 2,98,99
 592 30 592 30 572 38 c 0,100,101
 552 44 552 44 536 34 c 1,102,-1
 536 112 l 1,103,-1
 716 112 l 2,104,105
 786 112 786 112 786 66 c 2,106,-1
 786 -38 l 2,107,108
 786 -192 786 -192 938 -192 c 0,109,110
 996 -192 996 -192 1040 -157 c 128,-1,111
 1084 -122 1084 -122 1084 -68 c 0,112,113
 1084 -2 1084 -2 1051 47 c 128,-1,114
 1018 96 1018 96 954 108 c 1,115,-1
 954 192 l 1,116,117
 1064 192 1064 192 1154 122 c 0,118,119
 1260 40 1260 40 1260 -86 c 0,0,1
364 450 m 0,120,121
 364 498 364 498 335 540 c 128,-1,122
 306 582 306 582 264 594 c 1,123,-1
 264 428 l 1,124,-1
 286 430 l 2,125,126
 298 430 298 430 314 422 c 2,127,-1
 338 414 l 1,128,129
 364 414 364 414 364 450 c 0,120,121
EndSplineSet
EndChar

StartChar: tm_o
Encoding: 2962 2962 59
Width: 1164
GlyphClass: 2
Flags: W
LayerCount: 2
Fore
SplineSet
1132 390 m 0,0,1
 1132 262 1132 262 1060 178 c 0,2,3
 1000 106 1000 106 924 106 c 0,4,5
 846 106 846 106 794 140 c 1,6,7
 794 40 794 40 894 40 c 2,8,-1
 1016 40 l 1,9,-1
 1016 -42 l 1,10,-1
 872 -42 l 2,11,12
 826 -42 826 -42 786 -102 c 0,13,14
 730 -194 730 -194 710 -210 c 0,15,16
 650 -270 650 -270 528 -270 c 0,17,18
 472 -270 472 -270 400 -244 c 128,-1,19
 328 -218 328 -218 284 -218 c 0,20,21
 252 -218 252 -218 218 -230 c 2,22,-1
 176 -242 l 1,23,24
 144 -242 144 -242 144 -172 c 2,25,-1
 144 -16 l 1,26,-1
 82 -16 l 1,27,-1
 82 60 l 1,28,-1
 240 60 l 2,29,30
 302 60 302 60 325 29 c 128,-1,31
 348 -2 348 -2 348 -92 c 2,32,-1
 348 -160 l 1,33,-1
 370 -156 l 2,34,35
 382 -156 382 -156 390 -158 c 128,-1,36
 398 -160 398 -160 426 -170 c 2,37,-1
 488 -184 l 1,38,39
 524 -184 524 -184 584 -111 c 128,-1,40
 644 -38 644 -38 722 -8 c 1,41,42
 594 14 594 14 594 156 c 2,43,-1
 594 452 l 2,44,45
 594 506 594 506 564 506 c 2,46,-1
 538 506 l 1,47,-1
 538 578 l 1,48,-1
 664 578 l 2,49,50
 732 578 732 578 760 553 c 128,-1,51
 788 528 788 528 788 462 c 2,52,-1
 788 276 l 2,53,54
 788 206 788 206 838 206 c 0,55,56
 880 206 880 206 918 264 c 0,57,58
 956 328 956 328 956 424 c 0,59,60
 956 594 956 594 810 707 c 128,-1,61
 664 820 664 820 440 820 c 0,62,63
 316 820 316 820 280 806 c 128,-1,64
 244 792 244 792 244 756 c 2,65,-1
 244 614 l 1,66,67
 352 602 352 602 451 511 c 128,-1,68
 550 420 550 420 550 316 c 0,69,70
 550 178 550 178 472 178 c 1,71,-1
 404 194 l 2,72,73
 344 212 344 212 294 212 c 0,74,75
 232 212 232 212 176 178 c 1,76,-1
 112 146 l 1,77,78
 90 146 90 146 79 165 c 128,-1,79
 68 184 68 184 68 242 c 2,80,-1
 68 762 l 2,81,82
 68 828 68 828 85 853 c 128,-1,83
 102 878 102 878 161 884 c 128,-1,84
 220 890 220 890 272 892 c 128,-1,85
 324 894 324 894 434 894 c 0,86,87
 724 894 724 894 934 738 c 0,88,89
 1132 588 1132 588 1132 390 c 0,0,1
364 350 m 0,90,91
 364 390 364 390 322 452 c 128,-1,92
 280 514 280 514 248 522 c 1,93,-1
 248 274 l 1,94,-1
 296 278 l 2,95,96
 330 278 330 278 344 274 c 1,97,98
 364 280 364 280 364 350 c 0,90,91
EndSplineSet
EndChar

StartChar: tm_oo
Encoding: 2963 2963 60
Width: 1168
GlyphClass: 2
Flags: W
LayerCount: 2
Fore
SplineSet
1138 396 m 0,0,1
 1138 272 1138 272 1066 184 c 0,2,3
 1002 110 1002 110 922 110 c 256,4,5
 842 110 842 110 800 152 c 1,6,7
 800 44 800 44 882 44 c 2,8,-1
 1018 44 l 1,9,-1
 1018 -36 l 1,10,-1
 874 -36 l 2,11,12
 834 -36 834 -36 804 -72 c 1,13,-1
 756 -146 l 1,14,15
 670 -268 670 -268 518 -268 c 0,16,17
 446 -268 446 -268 354 -231 c 128,-1,18
 262 -194 262 -194 214 -194 c 0,19,20
 164 -194 164 -194 141 -205 c 128,-1,21
 118 -216 118 -216 108 -216 c 0,22,23
 70 -216 70 -216 70 -132 c 2,24,-1
 70 44 l 2,25,26
 70 118 70 118 146 118 c 2,27,-1
 220 118 l 2,28,29
 324 118 324 118 412 35 c 128,-1,30
 500 -48 500 -48 500 -142 c 0,31,32
 500 -162 500 -162 496 -174 c 1,33,34
 520 -186 520 -186 550 -160 c 1,35,-1
 592 -92 l 1,36,37
 638 -32 638 -32 720 -2 c 1,38,39
 598 34 598 34 598 132 c 2,40,-1
 598 470 l 2,41,42
 598 504 598 504 578 510 c 1,43,-1
 544 510 l 1,44,-1
 544 584 l 1,45,-1
 694 584 l 2,46,47
 792 584 792 584 792 480 c 2,48,-1
 792 282 l 2,49,50
 792 212 792 212 848 212 c 0,51,52
 880 212 880 212 921 273 c 128,-1,53
 962 334 962 334 962 408 c 0,54,55
 962 620 962 620 796 732 c 0,56,57
 646 830 646 830 408 830 c 0,58,59
 304 830 304 830 276 811 c 128,-1,60
 248 792 248 792 248 736 c 2,61,-1
 248 626 l 1,62,63
 366 612 366 612 461 517 c 128,-1,64
 556 422 556 422 556 312 c 0,65,66
 556 264 556 264 528 225 c 128,-1,67
 500 186 500 186 474 184 c 1,68,-1
 410 202 l 2,69,70
 340 222 340 222 300 222 c 0,71,72
 230 222 230 222 170 188 c 0,73,74
 152 178 152 178 128 164 c 0,75,76
 122 162 122 162 114 156 c 1,77,78
 70 156 70 156 70 224 c 2,79,-1
 70 770 l 2,80,81
 70 862 70 862 118 884 c 128,-1,82
 166 906 166 906 404 906 c 0,83,84
 748 906 748 906 960 730 c 0,85,86
 1138 580 1138 580 1138 396 c 0,0,1
364 354 m 256,87,88
 364 404 364 404 326 462 c 0,89,90
 292 520 292 520 248 532 c 1,91,-1
 248 286 l 1,92,93
 270 292 270 292 294 292 c 0,94,95
 308 292 308 292 348 284 c 1,96,97
 364 304 364 304 364 354 c 256,87,88
344 -110 m 1,98,99
 344 -58 344 -58 314 -14 c 128,-1,100
 284 30 284 30 254 26 c 1,101,-1
 254 -124 l 1,102,103
 262 -120 262 -120 296 -120 c 1,104,105
 322 -126 322 -126 340 -138 c 1,106,-1
 344 -110 l 1,98,99
EndSplineSet
EndChar

StartChar: tm_au
Encoding: 2964 2964 61
Width: 2616
GlyphClass: 2
Flags: W
LayerCount: 2
Fore
SplineSet
2572 684 m 1,0,-1
 2410 684 l 1,1,-1
 2410 78 l 2,2,3
 2410 42 2410 42 2428 42 c 1,4,-1
 2448 48 l 1,5,-1
 2476 62 l 1,6,-1
 2476 -8 l 1,7,-1
 2344 -62 l 2,8,9
 2312 -72 2312 -72 2278 -76 c 1,10,11
 2204 -76 2204 -76 2204 0 c 2,12,-1
 2204 686 l 1,13,-1
 2108 686 l 2,14,15
 1956 686 1956 686 1910 632 c 1,16,17
 2108 488 2108 488 2108 222 c 0,18,19
 2108 160 2108 160 2082 96 c 2,20,-1
 2038 -8 l 1,21,22
 2054 -18 2054 -18 2070 -18 c 0,23,24
 2084 -18 2084 -18 2108 -8 c 1,25,-1
 2108 -84 l 1,26,27
 2042 -84 2042 -84 2006 -81 c 128,-1,28
 1970 -78 1970 -78 1922 -66 c 0,29,30
 1834 -46 1834 -46 1788 -6 c 1,31,32
 1824 6 1824 6 1866 99 c 128,-1,33
 1908 192 1908 192 1908 282 c 0,34,35
 1908 482 1908 482 1804 590 c 128,-1,36
 1700 698 1700 698 1522 698 c 0,37,38
 1410 698 1410 698 1410 640 c 2,39,-1
 1410 506 l 1,40,41
 1548 494 1548 494 1660 390 c 128,-1,42
 1772 286 1772 286 1772 154 c 0,43,44
 1772 112 1772 112 1744 67 c 128,-1,45
 1716 22 1716 22 1682 18 c 1,46,-1
 1620 38 l 2,47,48
 1558 60 1558 60 1454 60 c 0,49,50
 1376 60 1376 60 1314 26 c 2,51,-1
 1248 -6 l 1,52,53
 1214 -6 1214 -6 1214 56 c 2,54,-1
 1214 628 l 2,55,56
 1214 718 1214 718 1241 747 c 128,-1,57
 1268 776 1268 776 1368 776 c 0,58,59
 1566 776 1566 776 1660 754 c 0,60,61
 1734 740 1734 740 1838 686 c 1,62,63
 1940 766 1940 766 2132 766 c 2,64,-1
 2572 766 l 1,65,-1
 2572 684 l 1,0,-1
1566 206 m 0,66,67
 1566 276 1566 276 1519 343 c 128,-1,68
 1472 410 1472 410 1410 422 c 1,69,-1
 1410 132 l 1,70,71
 1430 134 1430 134 1445 135 c 128,-1,72
 1460 136 1460 136 1470 136 c 0,73,74
 1512 136 1512 136 1550 128 c 1,75,76
 1566 160 1566 160 1566 206 c 0,66,67
1132 390 m 0,77,78
 1132 262 1132 262 1060 178 c 0,79,80
 1000 106 1000 106 924 106 c 0,81,82
 846 106 846 106 794 140 c 1,83,84
 794 40 794 40 894 40 c 2,85,-1
 1016 40 l 1,86,-1
 1016 -42 l 1,87,-1
 872 -42 l 2,88,89
 826 -42 826 -42 786 -102 c 0,90,91
 730 -194 730 -194 710 -210 c 0,92,93
 650 -270 650 -270 528 -270 c 0,94,95
 472 -270 472 -270 400 -244 c 128,-1,96
 328 -218 328 -218 284 -218 c 0,97,98
 252 -218 252 -218 218 -230 c 2,99,-1
 176 -242 l 1,100,101
 144 -242 144 -242 144 -172 c 2,102,-1
 144 -16 l 1,103,-1
 82 -16 l 1,104,-1
 82 60 l 1,105,-1
 240 60 l 2,106,107
 302 60 302 60 325 29 c 128,-1,108
 348 -2 348 -2 348 -92 c 2,109,-1
 348 -160 l 1,110,-1
 370 -156 l 2,111,112
 382 -156 382 -156 390 -158 c 128,-1,113
 398 -160 398 -160 426 -170 c 2,114,-1
 488 -184 l 1,115,116
 524 -184 524 -184 584 -111 c 128,-1,117
 644 -38 644 -38 722 -8 c 1,118,119
 594 14 594 14 594 156 c 2,120,-1
 594 452 l 2,121,122
 594 506 594 506 564 506 c 2,123,-1
 538 506 l 1,124,-1
 538 578 l 1,125,-1
 664 578 l 2,126,127
 732 578 732 578 760 553 c 128,-1,128
 788 528 788 528 788 462 c 2,129,-1
 788 276 l 2,130,131
 788 206 788 206 838 206 c 0,132,133
 880 206 880 206 918 264 c 0,134,135
 956 328 956 328 956 424 c 0,136,137
 956 594 956 594 810 707 c 128,-1,138
 664 820 664 820 440 820 c 0,139,140
 316 820 316 820 280 806 c 128,-1,141
 244 792 244 792 244 756 c 2,142,-1
 244 614 l 1,143,144
 352 602 352 602 451 511 c 128,-1,145
 550 420 550 420 550 316 c 0,146,147
 550 178 550 178 472 178 c 1,148,-1
 404 194 l 2,149,150
 344 212 344 212 294 212 c 0,151,152
 232 212 232 212 176 178 c 1,153,-1
 112 146 l 1,154,155
 90 146 90 146 79 165 c 128,-1,156
 68 184 68 184 68 242 c 2,157,-1
 68 762 l 2,158,159
 68 828 68 828 85 853 c 128,-1,160
 102 878 102 878 161 884 c 128,-1,161
 220 890 220 890 272 892 c 128,-1,162
 324 894 324 894 434 894 c 0,163,164
 724 894 724 894 934 738 c 0,165,166
 1132 588 1132 588 1132 390 c 0,77,78
364 350 m 0,167,168
 364 390 364 390 322 452 c 128,-1,169
 280 514 280 514 248 522 c 1,170,-1
 248 274 l 1,171,-1
 296 278 l 2,172,173
 330 278 330 278 344 274 c 1,174,175
 364 280 364 280 364 350 c 0,167,168
EndSplineSet
EndChar

StartChar: tm_ka
Encoding: 2965 2965 62
Width: 1176
GlyphClass: 2
Flags: W
LayerCount: 2
Fore
SplineSet
1144 166 m 0,0,1
 1144 60 1144 60 1064 -11 c 128,-1,2
 984 -82 984 -82 874 -82 c 0,3,4
 768 -82 768 -82 732 -38 c 1,5,-1
 732 40 l 1,6,7
 768 26 768 26 802 26 c 0,8,9
 948 26 948 26 948 194 c 0,10,11
 948 288 948 288 884 350 c 1,12,13
 824 414 824 414 714 428 c 1,14,-1
 714 86 l 2,15,16
 714 26 714 26 697 6 c 128,-1,17
 680 -14 680 -14 632 -14 c 1,18,-1
 528 18 l 2,19,20
 426 50 426 50 364 50 c 0,21,22
 276 50 276 50 196 10 c 1,23,-1
 108 -28 l 1,24,25
 80 -28 80 -28 68 -16 c 0,26,27
 64 -8 64 -8 62 4 c 128,-1,28
 60 16 60 16 60 46 c 2,29,-1
 60 380 l 2,30,31
 60 442 60 442 83 466 c 128,-1,32
 106 490 106 490 180 504 c 1,33,-1
 180 654 l 2,34,35
 180 766 180 766 290 766 c 2,36,-1
 994 766 l 1,37,-1
 994 680 l 1,38,-1
 714 680 l 1,39,-1
 714 516 l 1,40,41
 808 516 808 516 882 490 c 128,-1,42
 956 464 956 464 1024 412 c 0,43,44
 1144 318 1144 318 1144 166 c 0,0,1
514 526 m 1,45,-1
 514 680 l 1,46,-1
 440 680 l 2,47,48
 398 680 398 680 398 644 c 2,49,-1
 398 526 l 1,50,-1
 514 526 l 1,45,-1
514 116 m 1,51,-1
 514 450 l 1,52,-1
 398 450 l 2,53,54
 262 450 262 450 262 380 c 2,55,-1
 262 132 l 1,56,57
 312 146 312 146 364 146 c 0,58,59
 448 146 448 146 514 116 c 1,51,-1
EndSplineSet
EndChar

StartChar: tm_nga
Encoding: 2969 2969 63
Width: 1664
GlyphClass: 2
Flags: W
LayerCount: 2
Fore
SplineSet
1648 -18 m 1,0,1
 1558 -66 1558 -66 1497 -82 c 128,-1,2
 1436 -98 1436 -98 1308 -98 c 0,3,4
 1108 -98 1108 -98 950 -22 c 1,5,-1
 950 38 l 1,6,7
 1054 62 1054 62 1054 172 c 0,8,9
 1054 284 1054 284 984 347 c 128,-1,10
 914 410 914 410 808 410 c 0,11,12
 784 410 784 410 784 380 c 2,13,-1
 784 48 l 2,14,15
 784 4 784 4 842 4 c 0,16,17
 856 6 856 6 864 6 c 1,18,-1
 864 -56 l 1,19,-1
 686 -56 l 2,20,21
 610 -56 610 -56 586 -30 c 0,22,23
 566 -4 566 -4 566 70 c 2,24,-1
 566 686 l 1,25,26
 456 686 456 686 365 560 c 128,-1,27
 274 434 274 434 274 244 c 0,28,29
 274 88 274 88 342 -10 c 1,30,-1
 12 -10 l 1,31,-1
 12 66 l 1,32,-1
 62 66 l 1,33,-1
 62 164 l 2,34,35
 62 294 62 294 141 450 c 128,-1,36
 220 606 220 606 346 684 c 1,37,-1
 146 684 l 1,38,-1
 146 766 l 1,39,-1
 1094 766 l 1,40,-1
 1094 684 l 1,41,-1
 784 684 l 1,42,-1
 784 490 l 1,43,-1
 852 490 l 2,44,45
 1016 490 1016 490 1127 413 c 128,-1,46
 1238 336 1238 336 1238 206 c 0,47,48
 1238 74 1238 74 1142 16 c 1,49,50
 1200 -22 1200 -22 1308 -22 c 1,51,-1
 1378 -16 l 1,52,-1
 1378 638 l 2,53,54
 1378 688 1378 688 1332 688 c 2,55,-1
 1298 688 l 1,56,-1
 1298 766 l 1,57,-1
 1476 766 l 2,58,59
 1582 766 1582 766 1582 652 c 2,60,-1
 1582 60 l 2,61,62
 1582 30 1582 30 1598 30 c 0,63,64
 1608 30 1608 30 1648 54 c 1,65,-1
 1648 -18 l 1,0,1
EndSplineSet
EndChar

StartChar: tm_ca
Encoding: 2970 2970 64
Width: 1082
GlyphClass: 2
Flags: W
LayerCount: 2
Fore
SplineSet
1068 404 m 1,0,-1
 706 446 l 1,1,-1
 706 104 l 2,2,3
 706 -2 706 -2 658 -48 c 0,4,5
 618 -82 618 -82 532 -82 c 0,6,7
 460 -82 460 -82 367 -31 c 128,-1,8
 274 20 274 20 240 20 c 0,9,10
 220 20 220 20 201 16 c 128,-1,11
 182 12 182 12 139 -3 c 128,-1,12
 96 -18 96 -18 84 -18 c 0,13,14
 60 -18 60 -18 52 -2 c 128,-1,15
 44 14 44 14 44 68 c 2,16,-1
 44 394 l 2,17,18
 44 458 44 458 72 481 c 128,-1,19
 100 504 100 504 170 504 c 1,20,-1
 170 664 l 2,21,22
 170 768 170 768 276 768 c 2,23,-1
 982 768 l 1,24,-1
 982 680 l 1,25,-1
 706 680 l 1,26,-1
 706 528 l 1,27,28
 786 528 786 528 859 520 c 128,-1,29
 932 512 932 512 1068 486 c 1,30,-1
 1068 404 l 1,0,-1
506 536 m 1,31,-1
 506 682 l 1,32,-1
 440 682 l 2,33,34
 408 682 408 682 399 673 c 128,-1,35
 390 664 390 664 386 630 c 1,36,-1
 386 536 l 1,37,-1
 506 536 l 1,31,-1
506 98 m 2,38,-1
 506 454 l 1,39,-1
 354 454 l 2,40,41
 260 454 260 454 260 410 c 2,42,-1
 260 94 l 1,43,44
 316 94 316 94 366 66 c 1,45,46
 414 44 414 44 444 40 c 1,47,48
 506 40 506 40 506 98 c 2,38,-1
EndSplineSet
EndChar

StartChar: tm_ja
Encoding: 2972 2972 65
Width: 1240
GlyphClass: 2
Flags: W
LayerCount: 2
Fore
SplineSet
1196 432 m 0,0,1
 1196 268 1196 268 986 198 c 1,2,3
 1188 98 1188 98 1188 -94 c 0,4,5
 1188 -208 1188 -208 1102 -276 c 0,6,7
 1030 -336 1030 -336 926 -336 c 0,8,9
 856 -336 856 -336 812 -308 c 1,10,-1
 812 -230 l 1,11,-1
 852 -234 l 1,12,13
 922 -234 922 -234 957 -179 c 128,-1,14
 992 -124 992 -124 992 -58 c 0,15,16
 992 26 992 26 930 89 c 128,-1,17
 868 152 868 152 810 152 c 0,18,19
 754 152 754 152 754 54 c 2,20,-1
 754 -196 l 2,21,22
 754 -270 754 -270 690 -270 c 0,23,24
 674 -270 674 -270 536 -221 c 128,-1,25
 398 -172 398 -172 350 -172 c 0,26,27
 220 -172 220 -172 146 -192 c 0,28,29
 104 -204 104 -204 93 -208 c 128,-1,30
 82 -212 82 -212 80 -214 c 0,31,32
 44 -214 44 -214 44 -146 c 2,33,-1
 44 140 l 2,34,35
 44 288 44 288 184 288 c 2,36,-1
 416 288 l 2,37,38
 476 288 476 288 505 286 c 128,-1,39
 534 284 534 284 630 272 c 1,40,-1
 832 256 l 1,41,42
 916 256 916 256 966 318 c 0,43,44
 1004 368 1004 368 1004 428 c 0,45,46
 1004 534 1004 534 930 608 c 0,47,48
 864 674 864 674 788 674 c 0,49,50
 756 674 756 674 756 632 c 2,51,-1
 756 452 l 2,52,53
 756 418 756 418 804 418 c 2,54,-1
 820 418 l 1,55,-1
 820 352 l 1,56,-1
 668 352 l 2,57,58
 550 352 550 352 550 464 c 0,59,60
 550 578 550 578 481 635 c 128,-1,61
 412 692 412 692 304 692 c 0,62,63
 244 692 244 692 244 640 c 1,64,65
 330 640 330 640 418 573 c 128,-1,66
 506 506 506 506 506 406 c 0,67,68
 506 308 506 308 402 308 c 0,69,70
 362 308 362 308 286 331 c 128,-1,71
 210 354 210 354 176 354 c 0,72,73
 134 354 134 354 110 348 c 2,74,-1
 86 342 l 1,75,76
 50 342 50 342 50 400 c 2,77,-1
 50 648 l 2,78,79
 50 716 50 716 82 740 c 0,80,81
 124 766 124 766 258 766 c 0,82,83
 376 766 376 766 440 748 c 128,-1,84
 504 730 504 730 564 682 c 1,85,86
 576 732 576 732 606 750 c 128,-1,87
 636 768 636 768 706 768 c 0,88,89
 916 768 916 768 1056 680 c 128,-1,90
 1196 592 1196 592 1196 432 c 0,0,1
336 430 m 0,91,92
 336 468 336 468 310 513 c 128,-1,93
 284 558 284 558 240 564 c 1,94,-1
 240 410 l 1,95,96
 272 410 272 410 284 400 c 0,97,98
 296 394 296 394 316 394 c 256,99,100
 336 394 336 394 336 430 c 0,91,92
638 196 m 1,101,102
 568 204 568 204 514 208 c 128,-1,103
 460 212 460 212 416 212 c 0,104,105
 300 212 300 212 270 196 c 128,-1,106
 240 180 240 180 240 114 c 2,107,-1
 240 -96 l 1,108,-1
 312 -90 l 1,109,110
 422 -90 422 -90 558 -138 c 1,111,-1
 558 98 l 2,112,113
 558 126 558 126 580 155 c 128,-1,114
 602 184 602 184 638 196 c 1,101,102
EndSplineSet
EndChar

StartChar: tm_nya
Encoding: 2974 2974 66
Width: 1654
GlyphClass: 2
Flags: W
LayerCount: 2
Fore
SplineSet
1622 28 m 0,0,1
 1622 -122 1622 -122 1528 -214 c 0,2,3
 1418 -320 1418 -320 1200 -320 c 0,4,5
 1106 -320 1106 -320 875 -248 c 128,-1,6
 644 -176 644 -176 460 -176 c 0,7,8
 336 -176 336 -176 252 -204 c 0,9,10
 216 -214 216 -214 198 -222 c 128,-1,11
 180 -230 180 -230 142 -254 c 128,-1,12
 104 -278 104 -278 86 -282 c 1,13,14
 56 -282 56 -282 56 -238 c 2,15,-1
 56 470 l 2,16,17
 56 618 56 618 190 618 c 2,18,-1
 334 618 l 1,19,-1
 334 498 l 1,20,21
 292 516 292 516 278 516 c 0,22,23
 254 516 254 516 254 472 c 2,24,-1
 254 -116 l 1,25,26
 312 -98 312 -98 482 -98 c 0,27,28
 574 -98 574 -98 659 -112 c 128,-1,29
 744 -126 744 -126 854 -162 c 0,30,31
 1056 -228 1056 -228 1152 -228 c 0,32,33
 1268 -228 1268 -228 1344 -164 c 0,34,35
 1440 -86 1440 -86 1440 64 c 0,36,37
 1440 270 1440 270 1354 364 c 0,38,39
 1300 424 1300 424 1230 424 c 0,40,41
 1208 424 1208 424 1198 418 c 1,42,-1
 1194 384 l 1,43,-1
 1194 88 l 2,44,45
 1194 28 1194 28 1240 28 c 1,46,-1
 1280 34 l 1,47,-1
 1280 -44 l 1,48,-1
 1098 -44 l 2,49,50
 1024 -44 1024 -44 996 -8 c 0,51,52
 978 20 978 20 978 96 c 2,53,-1
 978 684 l 1,54,-1
 818 684 l 2,55,56
 666 684 666 684 584 510 c 1,57,58
 710 480 710 480 813 384 c 128,-1,59
 916 288 916 288 916 162 c 0,60,61
 916 100 916 100 878 56 c 0,62,63
 850 28 850 28 822 24 c 1,64,65
 718 70 718 70 610 70 c 0,66,67
 524 70 524 70 452 34 c 2,68,-1
 386 -2 l 1,69,70
 320 -2 320 -2 320 214 c 0,71,72
 320 330 320 330 402 469 c 128,-1,73
 484 608 484 608 590 684 c 1,74,-1
 400 684 l 1,75,-1
 400 768 l 1,76,-1
 1520 768 l 1,77,-1
 1520 684 l 1,78,-1
 1196 684 l 1,79,-1
 1196 504 l 1,80,81
 1346 504 1346 504 1484 360 c 128,-1,82
 1622 216 1622 216 1622 28 c 0,0,1
710 222 m 0,83,84
 710 280 710 280 660 344 c 1,85,86
 616 410 616 410 558 428 c 1,87,88
 542 406 542 406 542 288 c 0,89,90
 542 178 542 178 556 142 c 1,91,92
 598 142 598 142 625 142 c 128,-1,93
 652 142 652 142 694 136 c 1,94,95
 710 160 710 160 710 222 c 0,83,84
EndSplineSet
EndChar

StartChar: tm_tta
Encoding: 2975 2975 67
Width: 1020
GlyphClass: 2
Flags: W
LayerCount: 2
Fore
SplineSet
1004 38 m 1,0,1
 998 -24 998 -24 955 -61 c 128,-1,2
 912 -98 912 -98 860 -98 c 0,3,4
 738 -98 738 -98 616 -14 c 128,-1,5
 494 70 494 70 348 70 c 0,6,7
 278 70 278 70 208 28 c 2,8,-1
 140 -12 l 1,9,10
 120 -12 120 -12 113 -2 c 128,-1,11
 106 8 106 8 106 52 c 2,12,-1
 106 654 l 2,13,14
 106 686 106 686 70 686 c 2,15,-1
 12 686 l 1,16,-1
 12 766 l 1,17,-1
 190 766 l 2,18,19
 260 766 260 766 282 742 c 0,20,21
 292 730 292 730 298 706 c 128,-1,22
 304 682 304 682 304 642 c 2,23,-1
 304 150 l 1,24,25
 428 150 428 150 518 124 c 0,26,27
 558 114 558 114 636 76 c 0,28,29
 694 50 694 50 726 50 c 0,30,31
 798 50 798 50 798 138 c 1,32,-1
 1004 38 l 1,0,1
EndSplineSet
EndChar

StartChar: tm_nna
Encoding: 2979 2979 68
Width: 2116
GlyphClass: 2
Flags: W
LayerCount: 2
Fore
SplineSet
2100 682 m 1,0,-1
 1984 682 l 2,1,2
 1954 682 1954 682 1948 676 c 128,-1,3
 1942 670 1942 670 1938 638 c 1,4,-1
 1938 112 l 2,5,6
 1938 94 1938 94 1952 94 c 0,7,8
 1968 94 1968 94 2002 124 c 1,9,-1
 2002 48 l 1,10,-1
 1862 -8 l 2,11,12
 1834 -20 1834 -20 1808 -20 c 0,13,14
 1738 -20 1738 -20 1738 66 c 2,15,-1
 1738 682 l 1,16,-1
 1468 682 l 2,17,18
 1402 682 1402 682 1388 656 c 1,19,20
 1638 512 1638 512 1638 256 c 0,21,22
 1638 118 1638 118 1551 21 c 128,-1,23
 1464 -76 1464 -76 1302 -76 c 0,24,25
 1210 -76 1210 -76 1176 -73 c 128,-1,26
 1142 -70 1142 -70 1075 -58 c 128,-1,27
 1008 -46 1008 -46 1006 -22 c 1,28,29
 1010 -14 1010 -14 1014 -10 c 0,30,31
 1026 6 1026 6 1044 26 c 0,32,33
 1086 72 1086 72 1114 120 c 1,34,35
 1152 200 1152 200 1152 288 c 0,36,37
 1152 450 1152 450 1012 596 c 1,38,-1
 1170 668 l 1,39,40
 1046 692 1046 692 956 692 c 0,41,42
 896 692 896 692 864 682 c 1,43,44
 964 634 964 634 1047 524 c 128,-1,45
 1130 414 1130 414 1130 300 c 0,46,47
 1130 154 1130 154 1046 53 c 128,-1,48
 962 -48 962 -48 842 -48 c 0,49,50
 790 -48 790 -48 700 -24 c 2,51,-1
 586 2 l 1,52,53
 658 50 658 50 658 174 c 0,54,55
 658 236 658 236 608 312 c 0,56,57
 570 372 570 372 516 416 c 1,58,-1
 516 594 l 1,59,-1
 654 662 l 1,60,61
 552 690 552 690 410 690 c 0,62,63
 322 690 322 690 296 674 c 1,64,65
 266 662 266 662 266 616 c 2,66,-1
 266 496 l 1,67,68
 402 496 402 496 524 380 c 0,69,70
 640 270 640 270 640 160 c 0,71,72
 640 88 640 88 604 42 c 0,73,74
 580 12 580 12 552 12 c 1,75,-1
 484 32 l 2,76,77
 454 40 454 40 415 46 c 128,-1,78
 376 52 376 52 336 52 c 0,79,80
 248 52 248 52 178 14 c 2,81,-1
 110 -22 l 1,82,83
 70 -22 70 -22 70 54 c 2,84,-1
 70 648 l 2,85,86
 70 726 70 726 110 747 c 128,-1,87
 150 768 150 768 296 768 c 0,88,89
 658 768 658 768 752 718 c 1,90,-1
 828 756 l 1,91,-1
 946 762 l 1,92,93
 1160 762 1160 762 1280 712 c 1,94,95
 1422 766 1422 766 1516 766 c 2,96,-1
 2100 766 l 1,97,-1
 2100 682 l 1,0,-1
954 300 m 0,98,99
 954 412 954 412 907 508 c 128,-1,100
 860 604 860 604 772 634 c 1,101,-1
 718 606 l 1,102,-1
 718 44 l 1,103,104
 744 32 744 32 780 28 c 1,105,106
 852 28 852 28 903 100 c 128,-1,107
 954 172 954 172 954 300 c 0,98,99
1452 276 m 0,108,109
 1452 522 1452 522 1268 628 c 1,110,-1
 1214 610 l 1,111,-1
 1214 12 l 1,112,113
 1244 2 1244 2 1280 -2 c 1,114,115
 1356 -2 1356 -2 1408 82 c 0,116,117
 1452 160 1452 160 1452 276 c 0,108,109
430 196 m 0,118,119
 430 258 430 258 383 325 c 128,-1,120
 336 392 336 392 266 410 c 1,121,-1
 266 116 l 1,122,123
 304 124 304 124 348 124 c 0,124,125
 382 124 382 124 418 118 c 1,126,127
 430 128 430 128 430 196 c 0,118,119
EndSplineSet
EndChar

StartChar: tm_ta
Encoding: 2980 2980 69
Width: 1096
GlyphClass: 2
Flags: W
LayerCount: 2
Fore
SplineSet
1064 16 m 0,0,1
 1064 -118 1064 -118 971 -221 c 128,-1,2
 878 -324 878 -324 758 -324 c 0,3,4
 674 -324 674 -324 500 -234 c 128,-1,5
 326 -144 326 -144 234 -144 c 0,6,7
 146 -144 146 -144 74 -192 c 0,8,9
 30 -224 30 -224 -10 -280 c 0,10,11
 -28 -304 -28 -304 -40 -316 c 0,12,13
 -44 -320 -44 -320 -54 -328 c 1,14,15
 -82 -328 -82 -328 -82 -272 c 2,16,-1
 -82 -142 l 2,17,18
 -82 -96 -82 -96 -46 -74 c 0,19,20
 6 -48 6 -48 134 -48 c 0,21,22
 268 -48 268 -48 442 -123 c 128,-1,23
 616 -198 616 -198 694 -198 c 0,24,25
 780 -198 780 -198 833 -113 c 128,-1,26
 886 -28 886 -28 886 72 c 0,27,28
 886 198 886 198 831 294 c 128,-1,29
 776 390 776 390 674 436 c 1,30,-1
 674 114 l 2,31,32
 674 -64 674 -64 502 -64 c 0,33,34
 424 -64 424 -64 340 -21 c 128,-1,35
 256 22 256 22 214 22 c 0,36,37
 182 22 182 22 164 20 c 128,-1,38
 146 18 146 18 112 8 c 2,39,-1
 58 -6 l 1,40,41
 26 -6 26 -6 26 66 c 2,42,-1
 26 386 l 2,43,44
 26 446 26 446 51 476 c 128,-1,45
 76 506 76 506 144 506 c 1,46,-1
 144 666 l 2,47,48
 144 766 144 766 240 766 c 2,49,-1
 952 766 l 1,50,-1
 952 682 l 1,51,-1
 676 682 l 1,52,-1
 676 514 l 1,53,54
 858 488 858 488 966 344 c 0,55,56
 1064 210 1064 210 1064 16 c 0,0,1
480 532 m 1,57,-1
 480 684 l 1,58,-1
 400 684 l 2,59,60
 358 684 358 684 358 636 c 2,61,-1
 358 532 l 1,62,-1
 480 532 l 1,57,-1
478 100 m 2,63,-1
 478 456 l 1,64,-1
 362 456 l 2,65,66
 226 456 226 456 226 394 c 2,67,-1
 226 86 l 1,68,69
 258 86 258 86 318 63 c 128,-1,70
 378 40 378 40 406 36 c 1,71,72
 478 36 478 36 478 100 c 2,63,-1
EndSplineSet
EndChar

StartChar: tm_na
Encoding: 2984 2984 70
Width: 1236
GlyphClass: 2
Flags: W
LayerCount: 2
Fore
SplineSet
1206 46 m 0,0,1
 1206 -160 1206 -160 1090 -258 c 0,2,3
 998 -332 998 -332 856 -332 c 0,4,5
 786 -332 786 -332 593 -251 c 128,-1,6
 400 -170 400 -170 292 -170 c 0,7,8
 194 -170 194 -170 112 -218 c 0,9,10
 60 -248 60 -248 14 -306 c 0,11,12
 -2 -328 -2 -328 -16 -342 c 0,13,14
 -20 -346 -20 -346 -28 -354 c 1,15,16
 -46 -354 -46 -354 -46 -306 c 2,17,-1
 -46 -204 l 2,18,19
 -46 -132 -46 -132 20 -96 c 128,-1,20
 86 -60 86 -60 254 -60 c 0,21,22
 366 -60 366 -60 547 -141 c 128,-1,23
 728 -222 728 -222 800 -222 c 0,24,25
 898 -222 898 -222 960 -148 c 128,-1,26
 1022 -74 1022 -74 1022 56 c 0,27,28
 1022 418 1022 418 784 418 c 1,29,-1
 784 64 l 2,30,31
 784 20 784 20 842 20 c 0,32,33
 858 20 858 20 868 22 c 1,34,-1
 868 -44 l 1,35,-1
 682 -44 l 2,36,37
 616 -44 616 -44 594 -17 c 128,-1,38
 572 10 572 10 572 96 c 2,39,-1
 572 690 l 1,40,41
 518 690 518 690 469 665 c 128,-1,42
 420 640 420 640 376 586 c 0,43,44
 274 460 274 460 274 242 c 0,45,46
 274 106 274 106 342 0 c 1,47,-1
 14 0 l 1,48,-1
 14 72 l 1,49,-1
 62 72 l 1,50,-1
 62 162 l 2,51,52
 62 304 62 304 143 460 c 128,-1,53
 224 616 224 616 344 690 c 1,54,-1
 138 690 l 1,55,-1
 138 768 l 1,56,-1
 1096 768 l 1,57,-1
 1096 690 l 1,58,-1
 788 690 l 1,59,-1
 788 498 l 1,60,61
 984 472 984 472 1104 328 c 0,62,63
 1206 204 1206 204 1206 46 c 0,0,1
EndSplineSet
EndChar

StartChar: tm_nnna
Encoding: 2985 2985 71
Width: 1578
GlyphClass: 2
Flags: W
LayerCount: 2
Fore
SplineSet
1564 684 m 1,0,-1
 1408 684 l 1,1,-1
 1408 62 l 2,2,3
 1408 34 1408 34 1434 42 c 2,4,-1
 1476 62 l 1,5,-1
 1476 -10 l 1,6,7
 1438 -16 1438 -16 1326 -70 c 1,8,-1
 1290 -78 l 1,9,10
 1252 -78 1252 -78 1227 -46 c 128,-1,11
 1202 -14 1202 -14 1202 40 c 2,12,-1
 1202 684 l 1,13,-1
 1008 684 l 2,14,15
 884 684 884 684 844 656 c 1,16,17
 956 610 956 610 1032 483 c 128,-1,18
 1108 356 1108 356 1108 206 c 0,19,20
 1108 -74 1108 -74 858 -74 c 0,21,22
 796 -74 796 -74 700 -40 c 2,23,-1
 560 8 l 1,24,25
 630 60 630 60 630 140 c 0,26,27
 630 302 630 302 486 416 c 1,28,-1
 486 580 l 1,29,-1
 624 664 l 1,30,31
 536 692 536 692 388 692 c 0,32,33
 248 692 248 692 248 634 c 2,34,-1
 248 496 l 1,35,36
 382 496 382 496 499 384 c 128,-1,37
 616 272 616 272 616 142 c 0,38,39
 616 102 616 102 586 54 c 0,40,41
 556 12 556 12 526 12 c 1,42,-1
 452 36 l 2,43,44
 380 60 380 60 318 60 c 0,45,46
 230 60 230 60 154 24 c 2,47,-1
 84 -10 l 1,48,49
 44 -10 44 -10 44 82 c 2,50,-1
 44 610 l 2,51,52
 44 710 44 710 80 738 c 1,53,54
 124 766 124 766 304 766 c 0,55,56
 450 766 450 766 579 747 c 128,-1,57
 708 728 708 728 748 704 c 1,58,-1
 878 766 l 1,59,-1
 1564 766 l 1,60,-1
 1564 684 l 1,0,-1
900 246 m 0,61,62
 900 504 900 504 752 616 c 1,63,-1
 690 578 l 1,64,-1
 690 56 l 1,65,66
 712 38 712 38 729 31 c 128,-1,67
 746 24 746 24 772 24 c 0,68,69
 826 24 826 24 863 81 c 128,-1,70
 900 138 900 138 900 246 c 0,61,62
410 196 m 0,71,72
 410 270 410 270 352 341 c 128,-1,73
 294 412 294 412 240 418 c 1,74,-1
 240 124 l 1,75,-1
 316 132 l 1,76,77
 370 132 370 132 388 120 c 1,78,79
 410 148 410 148 410 196 c 0,71,72
EndSplineSet
EndChar

StartChar: tm_pa
Encoding: 2986 2986 72
Width: 972
GlyphClass: 2
Flags: W
LayerCount: 2
Fore
SplineSet
942 252 m 0,0,1
 942 78 942 78 850 -6 c 0,2,3
 774 -76 774 -76 652 -76 c 0,4,5
 562 -76 562 -76 454 -23 c 128,-1,6
 346 30 346 30 290 30 c 0,7,8
 226 30 226 30 180 6 c 0,9,10
 160 -6 160 -6 152 -10 c 128,-1,11
 144 -14 144 -14 134 -18 c 1,12,13
 98 -18 98 -18 98 46 c 2,14,-1
 98 656 l 2,15,16
 98 684 98 684 68 688 c 1,17,-1
 12 688 l 1,18,-1
 12 768 l 1,19,-1
 216 768 l 2,20,21
 304 768 304 768 304 682 c 2,22,-1
 304 102 l 1,23,24
 334 102 334 102 373 95 c 128,-1,25
 412 88 412 88 472 66 c 0,26,27
 550 36 550 36 582 36 c 0,28,29
 664 36 664 36 712 122 c 1,30,31
 750 202 750 202 750 322 c 0,32,33
 750 462 750 462 694 568 c 0,34,35
 624 694 624 694 504 694 c 1,36,-1
 504 766 l 1,37,38
 660 766 660 766 792 634 c 0,39,40
 942 484 942 484 942 252 c 0,0,1
EndSplineSet
EndChar

StartChar: tm_ma
Encoding: 2990 2990 73
Width: 1224
GlyphClass: 2
Flags: W
LayerCount: 2
Fore
SplineSet
1194 286 m 0,0,1
 1194 132 1194 132 1108 34 c 128,-1,2
 1022 -64 1022 -64 900 -64 c 0,3,4
 798 -64 798 -64 625 8 c 128,-1,5
 452 80 452 80 354 80 c 0,6,7
 292 80 292 80 222 36 c 2,8,-1
 152 -6 l 1,9,10
 112 -6 112 -6 112 56 c 2,11,-1
 112 654 l 2,12,13
 112 690 112 690 72 690 c 2,14,-1
 14 690 l 1,15,-1
 14 768 l 1,16,-1
 198 768 l 2,17,18
 270 768 270 768 289 750 c 128,-1,19
 308 732 308 732 308 676 c 2,20,-1
 308 158 l 1,21,22
 322 160 322 160 339 160 c 128,-1,23
 356 160 356 160 364 160 c 0,24,25
 408 160 408 160 453 152 c 128,-1,26
 498 144 498 144 542 126 c 1,27,-1
 542 640 l 2,28,29
 542 716 542 716 573 749 c 128,-1,30
 604 782 604 782 702 782 c 0,31,32
 906 782 906 782 1056 624 c 0,33,34
 1194 476 1194 476 1194 286 c 0,0,1
1016 336 m 0,35,36
 1016 498 1016 498 949 598 c 128,-1,37
 882 698 882 698 806 698 c 0,38,39
 754 698 754 698 754 646 c 2,40,-1
 754 52 l 1,41,42
 774 46 774 46 812 42 c 1,43,44
 894 42 894 42 955 118 c 128,-1,45
 1016 194 1016 194 1016 336 c 0,35,36
EndSplineSet
EndChar

StartChar: tm_ya
Encoding: 2991 2991 74
Width: 1300
GlyphClass: 2
Flags: W
LayerCount: 2
Fore
SplineSet
1268 288 m 0,0,1
 1268 132 1268 132 1195 30 c 128,-1,2
 1122 -72 1122 -72 994 -72 c 0,3,4
 956 -72 956 -72 832 -25 c 128,-1,5
 708 22 708 22 666 22 c 0,6,7
 604 22 604 22 566 0 c 2,8,-1
 520 -22 l 1,9,10
 500 -22 500 -22 493 -14 c 128,-1,11
 486 -6 486 -6 486 32 c 2,12,-1
 486 110 l 1,13,14
 366 92 366 92 286 60 c 0,15,16
 232 42 232 42 194 10 c 1,17,-1
 162 -12 l 1,18,19
 134 -12 134 -12 122 2 c 1,20,21
 114 18 114 18 114 56 c 2,22,-1
 114 654 l 2,23,24
 114 688 114 688 70 688 c 2,25,-1
 14 688 l 1,26,-1
 14 766 l 1,27,-1
 208 766 l 2,28,29
 268 766 268 766 289 745 c 128,-1,30
 310 724 310 724 310 668 c 2,31,-1
 310 154 l 1,32,-1
 488 190 l 1,33,-1
 488 656 l 2,34,35
 488 672 488 672 470 676 c 1,36,-1
 398 676 l 1,37,-1
 398 756 l 1,38,-1
 608 756 l 2,39,40
 686 756 686 756 686 666 c 2,41,-1
 686 98 l 1,42,43
 734 92 734 92 813 64 c 128,-1,44
 892 36 892 36 938 36 c 0,45,46
 998 36 998 36 1042 118 c 128,-1,47
 1086 200 1086 200 1086 344 c 0,48,49
 1086 478 1086 478 1032 572 c 0,50,51
 998 628 998 628 951 658 c 128,-1,52
 904 688 904 688 844 688 c 1,53,-1
 844 762 l 1,54,55
 1058 740 1058 740 1170 596 c 0,56,57
 1268 470 1268 470 1268 288 c 0,0,1
EndSplineSet
EndChar

StartChar: tm_ra
Encoding: 2992 2992 75
Width: 960
GlyphClass: 2
Flags: W
LayerCount: 2
Fore
SplineSet
944 690 m 1,0,-1
 788 690 l 1,1,-1
 788 -142 l 2,2,3
 788 -286 788 -286 622 -286 c 0,4,5
 522 -286 522 -286 418 -238 c 128,-1,6
 314 -190 314 -190 250 -190 c 0,7,8
 166 -190 166 -190 98 -234 c 0,9,10
 62 -258 62 -258 18 -314 c 0,11,12
 -14 -354 -14 -354 -30 -358 c 1,13,14
 -54 -358 -54 -358 -54 -314 c 2,15,-1
 -54 -196 l 2,16,17
 -54 -134 -54 -134 -12 -106 c 128,-1,18
 30 -78 30 -78 152 -78 c 0,19,20
 264 -78 264 -78 365 -126 c 128,-1,21
 466 -174 466 -174 498 -174 c 0,22,23
 570 -174 570 -174 570 -94 c 2,24,-1
 570 692 l 1,25,26
 422 674 422 674 342 540 c 0,27,28
 272 418 272 418 272 238 c 0,29,30
 272 88 272 88 348 0 c 1,31,-1
 14 0 l 1,32,-1
 14 68 l 1,33,-1
 68 68 l 1,34,-1
 60 182 l 1,35,36
 60 292 60 292 128 434 c 0,37,38
 210 602 210 602 344 692 c 1,39,-1
 138 692 l 1,40,-1
 138 768 l 1,41,-1
 944 768 l 1,42,-1
 944 690 l 1,0,-1
EndSplineSet
EndChar

StartChar: tm_rra
Encoding: 2993 2993 76
Width: 1192
GlyphClass: 2
Flags: W
LayerCount: 2
Fore
SplineSet
1160 112 m 0,0,1
 1160 -316 1160 -316 844 -316 c 0,2,3
 776 -316 776 -316 603 -235 c 128,-1,4
 430 -154 430 -154 324 -154 c 0,5,6
 194 -154 194 -154 110 -200 c 0,7,8
 62 -226 62 -226 16 -284 c 0,9,10
 -18 -328 -18 -328 -30 -330 c 0,11,12
 -52 -330 -52 -330 -52 -280 c 2,13,-1
 -52 -118 l 1,14,15
 -2 -44 -2 -44 160 -44 c 0,16,17
 318 -44 318 -44 444 -84 c 0,18,19
 492 -98 492 -98 626 -156 c 0,20,21
 718 -196 718 -196 772 -196 c 0,22,23
 980 -196 980 -196 980 146 c 0,24,25
 980 320 980 320 914 488 c 0,26,27
 836 678 836 678 728 678 c 0,28,29
 712 678 712 678 706 668 c 2,30,-1
 702 662 l 1,31,-1
 702 96 l 2,32,33
 702 74 702 74 720 54 c 128,-1,34
 738 34 738 34 754 34 c 2,35,-1
 794 34 l 1,36,-1
 794 -36 l 1,37,-1
 600 -36 l 2,38,39
 488 -36 488 -36 488 84 c 2,40,-1
 488 572 l 2,41,42
 488 642 488 642 438 642 c 0,43,44
 380 642 380 642 324 532 c 0,45,46
 262 408 262 408 262 266 c 0,47,48
 262 188 262 188 287 104 c 128,-1,49
 312 20 312 20 344 0 c 1,50,-1
 14 0 l 1,51,-1
 14 68 l 1,52,-1
 66 68 l 1,53,54
 60 114 60 114 60 184 c 0,55,56
 60 306 60 306 131 456 c 128,-1,57
 202 606 202 606 324 692 c 1,58,-1
 116 692 l 1,59,-1
 116 766 l 1,60,-1
 320 766 l 2,61,62
 456 766 456 766 492 692 c 1,63,64
 510 732 510 732 536 750 c 1,65,66
 564 764 564 764 634 764 c 0,67,68
 886 764 886 764 1032 556 c 0,69,70
 1160 374 1160 374 1160 112 c 0,0,1
EndSplineSet
EndChar

StartChar: tm_la
Encoding: 2994 2994 77
Width: 1310
GlyphClass: 2
Flags: W
LayerCount: 2
Fore
SplineSet
1280 248 m 0,0,1
 1280 82 1280 82 1172 -14 c 0,2,3
 1080 -94 1080 -94 952 -94 c 0,4,5
 830 -94 830 -94 742 -20 c 0,6,7
 646 62 646 62 646 186 c 2,8,-1
 646 328 l 2,9,10
 646 484 646 484 566 588 c 128,-1,11
 486 692 486 692 362 692 c 0,12,13
 234 692 234 692 234 630 c 2,14,-1
 234 496 l 1,15,16
 314 496 314 496 382 461 c 128,-1,17
 450 426 450 426 506 364 c 0,18,19
 596 262 596 262 596 156 c 0,20,21
 596 80 596 80 560 38 c 0,22,23
 536 8 536 8 508 8 c 1,24,-1
 440 30 l 2,25,26
 368 54 368 54 288 54 c 0,27,28
 250 54 250 54 212 46 c 128,-1,29
 174 38 174 38 138 20 c 2,30,-1
 72 -14 l 1,31,32
 40 -14 40 -14 40 28 c 2,33,-1
 40 670 l 2,34,35
 40 766 40 766 156 766 c 2,36,-1
 334 766 l 2,37,38
 552 766 552 766 698 618 c 0,39,40
 776 536 776 536 816 427 c 128,-1,41
 856 318 856 318 856 178 c 0,42,43
 856 74 856 74 874 36 c 128,-1,44
 892 -2 892 -2 946 -2 c 0,45,46
 1008 -2 1008 -2 1054 83 c 128,-1,47
 1100 168 1100 168 1100 328 c 0,48,49
 1100 474 1100 474 1041 574 c 128,-1,50
 982 674 982 674 888 674 c 1,51,-1
 860 672 l 1,52,-1
 860 764 l 1,53,54
 1038 746 1038 746 1164 590 c 1,55,56
 1280 440 1280 440 1280 248 c 0,0,1
390 200 m 0,57,58
 390 262 390 262 342 338 c 1,59,60
 290 410 290 410 228 420 c 1,61,-1
 228 120 l 1,62,63
 240 126 240 126 288 126 c 2,64,-1
 380 120 l 1,65,66
 390 146 390 146 390 200 c 0,57,58
EndSplineSet
EndChar

StartChar: tm_lla
Encoding: 2995 2995 78
Width: 1418
GlyphClass: 2
Flags: W
LayerCount: 2
Fore
SplineSet
1402 684 m 1,0,-1
 1240 684 l 1,1,-1
 1240 78 l 2,2,3
 1240 42 1240 42 1258 42 c 1,4,-1
 1278 48 l 1,5,-1
 1306 62 l 1,6,-1
 1306 -8 l 1,7,-1
 1174 -62 l 2,8,9
 1142 -72 1142 -72 1108 -76 c 1,10,11
 1034 -76 1034 -76 1034 0 c 2,12,-1
 1034 686 l 1,13,-1
 938 686 l 2,14,15
 786 686 786 686 740 632 c 1,16,17
 938 488 938 488 938 222 c 0,18,19
 938 160 938 160 912 96 c 2,20,-1
 868 -8 l 1,21,22
 884 -18 884 -18 900 -18 c 0,23,24
 914 -18 914 -18 938 -8 c 1,25,-1
 938 -84 l 1,26,27
 872 -84 872 -84 836 -81 c 128,-1,28
 800 -78 800 -78 752 -66 c 0,29,30
 664 -46 664 -46 618 -6 c 1,31,32
 654 6 654 6 696 99 c 128,-1,33
 738 192 738 192 738 282 c 0,34,35
 738 482 738 482 634 590 c 128,-1,36
 530 698 530 698 352 698 c 0,37,38
 240 698 240 698 240 640 c 2,39,-1
 240 506 l 1,40,41
 378 494 378 494 490 390 c 128,-1,42
 602 286 602 286 602 154 c 0,43,44
 602 112 602 112 574 67 c 128,-1,45
 546 22 546 22 512 18 c 1,46,-1
 450 38 l 2,47,48
 388 60 388 60 284 60 c 0,49,50
 206 60 206 60 144 26 c 2,51,-1
 78 -6 l 1,52,53
 44 -6 44 -6 44 56 c 2,54,-1
 44 628 l 2,55,56
 44 718 44 718 71 747 c 128,-1,57
 98 776 98 776 198 776 c 0,58,59
 396 776 396 776 490 754 c 0,60,61
 564 740 564 740 668 686 c 1,62,63
 770 766 770 766 962 766 c 2,64,-1
 1402 766 l 1,65,-1
 1402 684 l 1,0,-1
396 206 m 0,66,67
 396 276 396 276 349 343 c 128,-1,68
 302 410 302 410 240 422 c 1,69,-1
 240 132 l 1,70,71
 260 134 260 134 275 135 c 128,-1,72
 290 136 290 136 300 136 c 0,73,74
 342 136 342 136 380 128 c 1,75,76
 396 160 396 160 396 206 c 0,66,67
EndSplineSet
EndChar

StartChar: tm_llla
Encoding: 2996 2996 79
Width: 1212
GlyphClass: 2
Flags: W
LayerCount: 2
Fore
SplineSet
1182 280 m 0,0,1
 1182 102 1182 102 1086 0 c 0,2,3
 1000 -86 1000 -86 878 -86 c 0,4,5
 806 -86 806 -86 744 -54 c 1,6,-1
 744 -214 l 1,7,8
 788 -242 788 -242 848 -242 c 0,9,10
 878 -242 878 -242 906 -220 c 128,-1,11
 934 -198 934 -198 934 -162 c 0,12,13
 934 -144 934 -144 926 -122 c 1,14,-1
 1150 -172 l 1,15,-1
 1152 -204 l 1,16,17
 1152 -354 1152 -354 942 -354 c 0,18,19
 872 -354 872 -354 688 -274 c 0,20,21
 592 -232 592 -232 529 -213 c 128,-1,22
 466 -194 466 -194 420 -194 c 0,23,24
 370 -194 370 -194 332 -202 c 128,-1,25
 294 -210 294 -210 246 -234 c 0,26,27
 148 -278 148 -278 92 -368 c 1,28,-1
 92 -158 l 1,29,30
 168 -82 168 -82 292 -82 c 0,31,32
 394 -82 394 -82 542 -136 c 1,33,-1
 542 28 l 1,34,35
 410 68 410 68 362 68 c 0,36,37
 290 68 290 68 220 24 c 2,38,-1
 154 -18 l 1,39,40
 108 -18 108 -18 108 46 c 2,41,-1
 108 646 l 2,42,43
 108 682 108 682 78 682 c 2,44,-1
 14 682 l 1,45,-1
 14 766 l 1,46,-1
 200 766 l 2,47,48
 268 766 268 766 292 742 c 0,49,50
 308 722 308 722 308 660 c 2,51,-1
 308 144 l 1,52,-1
 360 146 l 2,53,54
 460 146 460 146 542 112 c 1,55,-1
 542 628 l 2,56,57
 542 712 542 712 567 743 c 128,-1,58
 592 774 592 774 684 774 c 0,59,60
 920 774 920 774 1064 600 c 0,61,62
 1182 454 1182 454 1182 280 c 0,0,1
1002 334 m 0,63,64
 1002 510 1002 510 924 610 c 0,65,66
 864 686 864 686 790 686 c 0,67,68
 754 686 754 686 748 664 c 1,69,-1
 748 42 l 1,70,71
 778 30 778 30 812 30 c 0,72,73
 894 30 894 30 948 111 c 128,-1,74
 1002 192 1002 192 1002 334 c 0,63,64
EndSplineSet
EndChar

StartChar: tm_va
Encoding: 2997 2997 80
Width: 1360
GlyphClass: 2
Flags: W
LayerCount: 2
Fore
SplineSet
1344 -8 m 1,0,1
 1214 -74 1214 -74 1046 -74 c 0,2,3
 834 -74 834 -74 654 4 c 1,4,5
 768 92 768 92 768 288 c 0,6,7
 768 468 768 468 676 578 c 0,8,9
 574 698 574 698 372 698 c 0,10,11
 264 698 264 698 264 624 c 2,12,-1
 264 512 l 1,13,14
 378 512 378 512 500 410 c 0,15,16
 634 294 634 294 634 162 c 0,17,18
 634 138 634 138 628 116 c 128,-1,19
 622 94 622 94 606 70 c 0,20,21
 578 26 578 26 542 26 c 1,22,-1
 468 46 l 2,23,24
 436 56 436 56 406 62 c 128,-1,25
 376 68 376 68 346 68 c 0,26,27
 252 68 252 68 176 34 c 0,28,29
 148 22 148 22 122 8 c 0,30,31
 116 4 116 4 106 0 c 1,32,33
 70 0 70 0 70 50 c 2,34,-1
 70 654 l 2,35,36
 70 732 70 732 112 754 c 0,37,38
 158 774 158 774 322 774 c 0,39,40
 616 774 616 774 800 614 c 0,41,42
 972 464 972 464 972 238 c 0,43,44
 972 74 972 74 900 16 c 1,45,-1
 1032 2 l 2,46,47
 1060 2 1060 2 1068 6 c 1,48,-1
 1068 630 l 2,49,50
 1068 688 1068 688 1038 692 c 1,51,-1
 988 692 l 1,52,-1
 988 768 l 1,53,-1
 1154 768 l 2,54,55
 1274 768 1274 768 1274 642 c 2,56,-1
 1274 60 l 1,57,58
 1282 52 1282 52 1286 50 c 0,59,60
 1300 50 1300 50 1308 54 c 2,61,-1
 1344 76 l 1,62,-1
 1344 -8 l 1,0,1
424 214 m 0,63,64
 424 248 424 248 412 280 c 128,-1,65
 400 312 400 312 372 348 c 0,66,67
 320 414 320 414 260 426 c 1,68,-1
 260 136 l 1,69,70
 284 144 284 144 324 144 c 0,71,72
 356 144 356 144 410 134 c 1,73,74
 424 176 424 176 424 214 c 0,63,64
EndSplineSet
EndChar

StartChar: tm_ssa
Encoding: 2999 2999 81
Width: 1850
GlyphClass: 2
Flags: W
LayerCount: 2
Fore
SplineSet
1836 154 m 0,0,1
 1836 48 1836 48 1660 -20 c 0,2,3
 1574 -52 1574 -52 1458 -70 c 128,-1,4
 1342 -88 1342 -88 1202 -88 c 1,5,6
 1170 -156 1170 -156 1170 -210 c 0,7,8
 1170 -282 1170 -282 1240 -282 c 0,9,10
 1282 -282 1282 -282 1328 -256 c 1,11,-1
 1328 -330 l 1,12,-1
 1122 -364 l 1,13,-1
 1064 -370 l 1,14,15
 974 -370 974 -370 974 -290 c 0,16,17
 974 -184 974 -184 1054 -86 c 1,18,19
 1000 -86 1000 -86 944 -78 c 128,-1,20
 888 -70 888 -70 814 -56 c 0,21,22
 676 -30 676 -30 636 4 c 1,23,24
 682 26 682 26 718 112 c 0,25,26
 734 158 734 158 742 198 c 128,-1,27
 750 238 750 238 750 288 c 0,28,29
 750 458 750 458 662 566 c 0,30,31
 562 690 562 690 376 690 c 0,32,33
 244 690 244 690 244 622 c 2,34,-1
 244 508 l 1,35,36
 316 508 316 508 379 476 c 128,-1,37
 442 444 442 444 504 382 c 0,38,39
 618 274 618 274 618 150 c 0,40,41
 618 100 618 100 587 63 c 128,-1,42
 556 26 556 26 526 26 c 1,43,-1
 458 44 l 2,44,45
 392 62 392 62 314 62 c 0,46,47
 230 62 230 62 154 26 c 2,48,-1
 86 -8 l 1,49,50
 44 -8 44 -8 44 62 c 2,51,-1
 44 628 l 2,52,53
 44 716 44 716 74 740 c 0,54,55
 114 766 114 766 270 766 c 0,56,57
 624 766 624 766 812 578 c 1,58,59
 952 432 952 432 952 246 c 0,60,61
 952 88 952 88 888 18 c 1,62,63
 1008 -12 1008 -12 1058 -12 c 0,64,65
 1148 -12 1148 -12 1238 72 c 1,66,67
 1204 66 1204 66 1171 62 c 128,-1,68
 1138 58 1138 58 1112 58 c 0,69,70
 1040 58 1040 58 1040 146 c 2,71,-1
 1040 660 l 2,72,73
 1040 770 1040 770 1166 770 c 0,74,75
 1352 770 1352 770 1469 648 c 128,-1,76
 1586 526 1586 526 1586 350 c 0,77,78
 1586 228 1586 228 1498 142 c 0,79,80
 1424 72 1424 72 1242 -14 c 1,81,-1
 1298 -16 l 1,82,83
 1440 -16 1440 -16 1534 36 c 128,-1,84
 1628 88 1628 88 1628 160 c 0,85,86
 1628 190 1628 190 1614 226 c 1,87,88
 1690 214 1690 214 1734 208 c 128,-1,89
 1778 202 1778 202 1824 196 c 1,90,91
 1836 178 1836 178 1836 154 c 0,0,1
1408 380 m 0,92,93
 1408 510 1408 510 1366 600 c 1,94,95
 1322 680 1322 680 1268 680 c 0,96,97
 1244 680 1244 680 1244 652 c 2,98,-1
 1244 142 l 1,99,-1
 1264 140 l 1,100,101
 1330 140 1330 140 1374 226 c 0,102,103
 1408 298 1408 298 1408 380 c 0,92,93
410 204 m 0,104,105
 410 276 410 276 350 346 c 128,-1,106
 290 416 290 416 244 416 c 1,107,-1
 244 130 l 1,108,-1
 330 130 l 2,109,110
 376 130 376 130 394 126 c 1,111,112
 410 152 410 152 410 204 c 0,104,105
EndSplineSet
EndChar

StartChar: tm_sa
Encoding: 3000 3000 82
Width: 1798
GlyphClass: 2
Flags: W
LayerCount: 2
Fore
SplineSet
1768 324 m 0,0,1
 1768 -72 1768 -72 1424 -72 c 0,2,3
 1366 -72 1366 -72 1300 -46 c 0,4,5
 1210 -10 1210 -10 1160 64 c 0,6,7
 1116 134 1116 134 1116 402 c 0,8,9
 1116 534 1116 534 1052 615 c 128,-1,10
 988 696 988 696 888 696 c 0,11,12
 822 696 822 696 740 638 c 1,13,14
 952 484 952 484 952 240 c 0,15,16
 952 114 952 114 884 -2 c 1,17,-1
 956 -2 l 1,18,-1
 956 -54 l 1,19,-1
 930 -58 l 1,20,21
 902 -58 902 -58 863 -52 c 128,-1,22
 824 -46 824 -46 768 -30 c 0,23,24
 662 -2 662 -2 654 14 c 1,25,26
 688 42 688 42 717 123 c 128,-1,27
 746 204 746 204 746 280 c 0,28,29
 746 464 746 464 645 578 c 128,-1,30
 544 692 544 692 364 692 c 0,31,32
 234 692 234 692 234 614 c 2,33,-1
 234 500 l 1,34,35
 358 500 358 500 485 397 c 128,-1,36
 612 294 612 294 612 168 c 0,37,38
 612 116 612 116 593 77 c 128,-1,39
 574 38 574 38 552 36 c 1,40,-1
 500 48 l 2,41,42
 470 54 470 54 426 58 c 128,-1,43
 382 62 382 62 322 62 c 0,44,45
 246 62 246 62 186 44 c 0,46,47
 152 32 152 32 122 10 c 1,48,-1
 84 -10 l 1,49,50
 42 -10 42 -10 42 78 c 2,51,-1
 42 644 l 2,52,53
 42 714 42 714 72 742 c 0,54,55
 102 766 102 766 212 766 c 0,56,57
 510 766 510 766 668 686 c 1,58,-1
 744 738 l 1,59,60
 776 754 776 754 813 762 c 128,-1,61
 850 770 850 770 904 770 c 0,62,63
 1124 770 1124 770 1236 626 c 0,64,65
 1330 502 1330 502 1330 286 c 0,66,67
 1330 102 1330 102 1342 57 c 128,-1,68
 1354 12 1354 12 1408 12 c 0,69,70
 1494 12 1494 12 1544 116 c 0,71,72
 1586 206 1586 206 1586 358 c 0,73,74
 1586 494 1586 494 1530 586 c 0,75,76
 1468 690 1468 690 1352 690 c 1,77,-1
 1314 688 l 1,78,-1
 1314 772 l 1,79,80
 1530 772 1530 772 1658 620 c 0,81,82
 1768 488 1768 488 1768 324 c 0,0,1
404 206 m 0,83,84
 404 276 404 276 347 345 c 128,-1,85
 290 414 290 414 234 420 c 1,86,-1
 234 132 l 1,87,88
 282 138 282 138 318 138 c 0,89,90
 350 138 350 138 364 136 c 0,91,92
 382 130 382 130 388 130 c 1,93,94
 404 158 404 158 404 206 c 0,83,84
EndSplineSet
EndChar

StartChar: tm_ha
Encoding: 3001 3001 83
Width: 2194
GlyphClass: 2
Flags: W
LayerCount: 2
Fore
SplineSet
2164 148 m 0,0,1
 2164 -86 2164 -86 2020 -212 c 0,2,3
 1888 -326 1888 -326 1664 -326 c 0,4,5
 1538 -326 1538 -326 1119 -236 c 128,-1,6
 700 -146 700 -146 522 -146 c 0,7,8
 352 -146 352 -146 228 -202 c 0,9,10
 148 -236 148 -236 74 -304 c 2,11,-1
 12 -360 l 1,12,13
 -22 -360 -22 -360 -22 -292 c 2,14,-1
 -22 -178 l 2,15,16
 -22 -120 -22 -120 99 -82 c 128,-1,17
 220 -44 220 -44 378 -44 c 0,18,19
 584 -44 584 -44 1021 -137 c 128,-1,20
 1458 -230 1458 -230 1572 -230 c 0,21,22
 1772 -230 1772 -230 1874 -125 c 128,-1,23
 1976 -20 1976 -20 1976 154 c 0,24,25
 1976 352 1976 352 1910 512 c 0,26,27
 1838 678 1838 678 1734 678 c 0,28,29
 1712 678 1712 678 1703 667 c 128,-1,30
 1694 656 1694 656 1694 618 c 2,31,-1
 1694 132 l 2,32,33
 1694 106 1694 106 1710 89 c 128,-1,34
 1726 72 1726 72 1744 72 c 2,35,-1
 1782 72 l 1,36,-1
 1782 8 l 1,37,-1
 1588 -36 l 1,38,-1
 1552 -40 l 1,39,40
 1476 -40 1476 -40 1476 58 c 2,41,-1
 1476 576 l 2,42,43
 1476 646 1476 646 1416 646 c 0,44,45
 1366 646 1366 646 1314 550 c 0,46,47
 1254 438 1254 438 1254 280 c 0,48,49
 1254 224 1254 224 1256 196 c 128,-1,50
 1258 168 1258 168 1270 116 c 2,51,-1
 1286 14 l 1,52,53
 1286 -34 1286 -34 1222 -52 c 128,-1,54
 1158 -70 1158 -70 974 -70 c 0,55,56
 938 -70 938 -70 892 -64 c 128,-1,57
 846 -58 846 -58 776 -42 c 0,58,59
 654 -16 654 -16 636 0 c 1,60,61
 746 86 746 86 746 286 c 0,62,63
 746 452 746 452 656 566 c 0,64,65
 556 690 556 690 368 690 c 0,66,67
 234 690 234 690 234 612 c 2,68,-1
 234 494 l 1,69,70
 312 494 312 494 375 465 c 128,-1,71
 438 436 438 436 500 380 c 0,72,73
 612 280 612 280 612 156 c 0,74,75
 612 114 612 114 590 68 c 128,-1,76
 568 22 568 22 526 22 c 1,77,-1
 452 40 l 2,78,79
 418 48 418 48 383 54 c 128,-1,80
 348 60 348 60 318 60 c 0,81,82
 222 60 222 60 152 22 c 2,83,-1
 86 -16 l 1,84,85
 44 -16 44 -16 44 78 c 2,86,-1
 44 642 l 2,87,88
 44 712 44 712 74 734 c 0,89,90
 118 762 118 762 270 762 c 0,91,92
 638 762 638 762 820 568 c 0,93,94
 950 428 950 428 950 240 c 0,95,96
 950 62 950 62 882 20 c 1,97,98
 920 4 920 4 990 4 c 0,99,100
 1058 4 1058 4 1068 20 c 1,101,102
 1046 92 1046 92 1046 184 c 0,103,104
 1046 310 1046 310 1120 465 c 128,-1,105
 1194 620 1194 620 1294 676 c 1,106,-1
 1108 676 l 1,107,-1
 1108 768 l 1,108,-1
 1366 768 l 2,109,110
 1458 768 1458 768 1486 696 c 1,111,112
 1502 768 1502 768 1608 768 c 0,113,114
 1870 768 1870 768 2026 574 c 0,115,116
 2164 400 2164 400 2164 148 c 0,0,1
404 192 m 0,117,118
 404 274 404 274 354 337 c 128,-1,119
 304 400 304 400 240 414 c 1,120,-1
 240 126 l 1,121,122
 270 132 270 132 310 132 c 0,123,124
 328 132 328 132 346 132 c 0,125,126
 376 128 376 128 390 128 c 1,127,128
 404 142 404 142 404 192 c 0,117,118
EndSplineSet
EndChar

StartChar: tm_aakaar
Encoding: 3006 3006 84
Width: 952
GlyphClass: 2
Flags: W
LayerCount: 2
Fore
SplineSet
938 686 m 1,0,-1
 786 686 l 1,1,-1
 786 50 l 2,2,3
 786 0 786 0 828 0 c 2,4,-1
 860 0 l 1,5,-1
 860 -70 l 1,6,-1
 720 -70 l 2,7,8
 628 -70 628 -70 597 -42 c 128,-1,9
 566 -14 566 -14 566 58 c 2,10,-1
 566 688 l 1,11,12
 504 688 504 688 451 652 c 128,-1,13
 398 616 398 616 354 550 c 0,14,15
 274 426 274 426 274 266 c 0,16,17
 274 176 274 176 288 114 c 128,-1,18
 302 52 302 52 338 0 c 1,19,-1
 10 0 l 1,20,-1
 10 74 l 1,21,-1
 62 74 l 1,22,23
 62 128 62 128 60 146 c 0,24,25
 56 152 56 152 54 158 c 0,26,27
 54 284 54 284 129 437 c 128,-1,28
 204 590 204 590 338 688 c 1,29,-1
 142 688 l 1,30,-1
 142 768 l 1,31,-1
 938 768 l 1,32,-1
 938 686 l 1,0,-1
EndSplineSet
EndChar

StartChar: tm_ikaar
Encoding: 3007 3007 85
Width: 424
GlyphClass: 2
Flags: W
LayerCount: 2
Fore
SplineSet
214 8 m 1,0,-1
 72 8 l 1,1,-1
 72 818 l 2,2,3
 72 1082 72 1082 -84 1082 c 2,4,-1
 -138 1082 l 2,5,6
 -202 1082 -202 1082 -247 1031 c 128,-1,7
 -292 980 -292 980 -292 908 c 2,8,-1
 -292 870 l 2,9,10
 -292 840 -292 840 -282 818 c 128,-1,11
 -272 796 -272 796 -244 772 c 1,12,-1
 -398 772 l 1,13,14
 -414 788 -414 788 -426 818 c 1,15,-1
 -436 870 l 1,16,-1
 -436 908 l 2,17,18
 -436 972 -436 972 -418 1019 c 128,-1,19
 -400 1066 -400 1066 -356 1108 c 0,20,21
 -276 1188 -276 1188 -138 1188 c 2,22,-1
 -84 1188 l 2,23,24
 54 1188 54 1188 134 1083 c 128,-1,25
 214 978 214 978 214 818 c 2,26,-1
 214 8 l 1,0,-1
EndSplineSet
EndChar

StartChar: tm_iikaar
Encoding: 3008 3008 86
Width: 0
GlyphClass: 4
Flags: W
LayerCount: 2
Fore
SplineSet
-96 1074 m 2,0,1
 -96 1038 -96 1038 -140 994 c 0,2,3
 -182 956 -182 956 -232 956 c 2,4,-1
 -304 956 l 2,5,6
 -370 956 -370 956 -411 1000 c 128,-1,7
 -452 1044 -452 1044 -452 1112 c 2,8,-1
 -452 1148 l 1,9,-1
 -444 1172 l 1,10,11
 -462 1170 -462 1170 -474 1163 c 128,-1,12
 -486 1156 -486 1156 -510 1136 c 0,13,14
 -552 1100 -552 1100 -552 1054 c 2,15,-1
 -552 1016 l 2,16,17
 -552 994 -552 994 -549 982 c 128,-1,18
 -546 970 -546 970 -534 944 c 0,19,20
 -526 920 -526 920 -517 905 c 128,-1,21
 -508 890 -508 890 -488 864 c 1,22,-1
 -636 864 l 1,23,-1
 -658 902 l 1,24,-1
 -674 940 l 2,25,26
 -692 992 -692 992 -692 1016 c 2,27,-1
 -692 1074 l 2,28,29
 -692 1116 -692 1116 -673 1151 c 128,-1,30
 -654 1186 -654 1186 -612 1220 c 0,31,32
 -534 1284 -534 1284 -436 1284 c 2,33,-1
 -332 1284 l 2,34,35
 -252 1284 -252 1284 -174 1238 c 128,-1,36
 -96 1192 -96 1192 -96 1126 c 2,37,-1
 -96 1074 l 2,0,1
-240 1110 m 1,38,-1
 -240 1144 l 2,39,40
 -240 1162 -240 1162 -246 1166 c 2,41,-1
 -262 1182 l 1,42,-1
 -288 1188 l 1,43,44
 -306 1188 -306 1188 -317 1179 c 128,-1,45
 -328 1170 -328 1170 -334 1144 c 1,46,-1
 -334 1110 l 2,47,48
 -334 1090 -334 1090 -322 1078 c 128,-1,49
 -310 1066 -310 1066 -286 1062 c 0,50,51
 -276 1062 -276 1062 -260 1073 c 128,-1,52
 -244 1084 -244 1084 -240 1110 c 1,38,-1
EndSplineSet
EndChar

StartChar: tm_ukaar
Encoding: 3009 3009 87
Width: 602
GlyphClass: 4
Flags: W
LayerCount: 2
Fore
SplineSet
524 364 m 1,0,-1
 68 364 l 1,1,-1
 68 672 l 1,2,-1
 -278 672 l 1,3,-1
 -278 764 l 1,4,-1
 524 764 l 1,5,-1
 524 364 l 1,0,-1
398 452 m 1,6,-1
 398 672 l 1,7,-1
 198 672 l 1,8,-1
 198 452 l 1,9,-1
 398 452 l 1,6,-1
EndSplineSet
EndChar

StartChar: tm_uukaar
Encoding: 3010 3010 88
Width: 953
GlyphClass: 4
Flags: W
LayerCount: 2
Fore
SplineSet
892 472 m 2,0,1
 892 278 892 278 802 168 c 0,2,3
 670 0 670 0 344 0 c 0,4,5
 256 0 256 0 134 62 c 0,6,7
 0 134 0 134 -74 252 c 1,8,-1
 -18 306 l 1,9,10
 46 210 46 210 140 156 c 0,11,12
 150 152 150 152 185 138 c 128,-1,13
 220 124 220 124 253 115 c 128,-1,14
 286 106 286 106 344 106 c 0,15,16
 598 106 598 106 696 218 c 0,17,18
 764 296 764 296 764 452 c 2,19,-1
 764 652 l 2,20,21
 764 788 764 788 678 895 c 128,-1,22
 592 1002 592 1002 472 1002 c 0,23,24
 360 1002 360 1002 288 936 c 128,-1,25
 216 870 216 870 216 764 c 1,26,-1
 544 764 l 1,27,-1
 544 364 l 1,28,-1
 90 364 l 1,29,-1
 90 672 l 1,30,-1
 -274 672 l 1,31,-1
 -274 764 l 1,32,-1
 90 764 l 1,33,34
 90 916 90 916 196 1012 c 128,-1,35
 302 1108 302 1108 490 1108 c 0,36,37
 662 1108 662 1108 786 976 c 1,38,39
 892 854 892 854 892 692 c 2,40,-1
 892 472 l 2,0,1
416 452 m 1,41,-1
 416 672 l 1,42,-1
 216 672 l 1,43,-1
 216 452 l 1,44,-1
 416 452 l 1,41,-1
EndSplineSet
EndChar

StartChar: tm_ekaar
Encoding: 3014 3014 89
Width: 1018
GlyphClass: 2
Flags: W
LayerCount: 2
Fore
SplineSet
986 326 m 0,0,1
 986 166 986 166 914 10 c 1,2,-1
 974 10 l 1,3,-1
 974 -74 l 1,4,5
 784 -74 784 -74 656 2 c 1,6,7
 776 102 776 102 776 340 c 0,8,9
 776 834 776 834 380 834 c 0,10,11
 272 834 272 834 272 744 c 2,12,-1
 272 506 l 1,13,14
 430 488 430 488 538 376 c 0,15,16
 636 272 636 272 636 154 c 0,17,18
 636 114 636 114 607 70 c 128,-1,19
 578 26 578 26 546 26 c 1,20,-1
 476 46 l 2,21,22
 406 68 406 68 344 68 c 0,23,24
 246 68 246 68 178 34 c 2,25,-1
 106 0 l 1,26,27
 70 0 70 0 70 72 c 2,28,-1
 70 782 l 2,29,30
 70 848 70 848 121 878 c 128,-1,31
 172 908 172 908 304 908 c 0,32,33
 652 908 652 908 828 738 c 0,34,35
 986 586 986 586 986 326 c 0,0,1
410 136 m 1,36,37
 426 172 426 172 426 208 c 0,38,39
 426 280 426 280 380 340 c 1,40,41
 338 404 338 404 264 430 c 1,42,-1
 264 138 l 1,43,44
 292 138 292 138 318 138 c 128,-1,45
 344 138 344 138 368 140 c 0,46,47
 378 140 378 140 390 140 c 0,48,49
 404 136 404 136 410 136 c 1,36,37
EndSplineSet
EndChar

StartChar: tm_eekaar
Encoding: 3015 3015 90
Width: 1090
GlyphClass: 2
Flags: W
LayerCount: 2
Fore
SplineSet
1058 182 m 0,0,1
 1058 34 1058 34 971 -52 c 128,-1,2
 884 -138 884 -138 742 -138 c 0,3,4
 664 -138 664 -138 512 -64 c 128,-1,5
 360 10 360 10 274 10 c 1,6,-1
 218 4 l 1,7,-1
 162 0 l 1,8,9
 100 0 100 0 85 25 c 128,-1,10
 70 50 70 50 70 114 c 2,11,-1
 70 1056 l 2,12,13
 70 1126 70 1126 92 1148 c 128,-1,14
 114 1170 114 1170 188 1170 c 2,15,-1
 442 1170 l 2,16,17
 672 1170 672 1170 822 1054 c 128,-1,18
 972 938 972 938 972 772 c 0,19,20
 972 696 972 696 934 652 c 128,-1,21
 896 608 896 608 834 608 c 0,22,23
 790 608 790 608 703 653 c 128,-1,24
 616 698 616 698 564 698 c 0,25,26
 524 698 524 698 498 690 c 1,27,-1
 458 684 l 1,28,29
 426 684 426 684 413 700 c 128,-1,30
 400 716 400 716 400 770 c 2,31,-1
 400 1090 l 1,32,-1
 326 1090 l 2,33,34
 262 1090 262 1090 262 1030 c 2,35,-1
 262 148 l 2,36,37
 262 84 262 84 318 84 c 0,38,39
 362 84 362 84 504 28 c 128,-1,40
 646 -28 646 -28 676 -28 c 0,41,42
 748 -28 748 -28 801 29 c 128,-1,43
 854 86 854 86 854 202 c 0,44,45
 854 330 854 330 792 413 c 128,-1,46
 730 496 730 496 646 496 c 0,47,48
 614 496 614 496 614 456 c 2,49,-1
 614 182 l 2,50,51
 614 140 614 140 644 136 c 1,52,-1
 664 136 l 1,53,-1
 664 56 l 1,54,-1
 462 114 l 2,55,56
 400 132 400 132 400 200 c 2,57,-1
 400 460 l 2,58,59
 400 544 400 544 446 570 c 0,60,61
 474 586 474 586 538 586 c 0,62,63
 770 586 770 586 914 474 c 128,-1,64
 1058 362 1058 362 1058 182 c 0,0,1
762 794 m 0,65,66
 762 1010 762 1010 592 1064 c 1,67,-1
 592 772 l 1,68,69
 642 772 642 772 742 722 c 1,70,71
 762 736 762 736 762 794 c 0,65,66
EndSplineSet
EndChar

StartChar: tm_aikaar
Encoding: 3016 3016 91
Width: 1554
GlyphClass: 2
Flags: W
LayerCount: 2
Fore
SplineSet
1524 312 m 0,0,1
 1524 140 1524 140 1402 50 c 0,2,3
 1294 -28 1294 -28 1106 -28 c 1,4,-1
 1106 52 l 1,5,-1
 1148 48 l 1,6,7
 1318 48 1318 48 1318 326 c 0,8,9
 1318 478 1318 478 1196 590 c 128,-1,10
 1074 702 1074 702 932 702 c 0,11,12
 884 702 884 702 854 692 c 1,13,14
 958 654 958 654 1043 543 c 128,-1,15
 1128 432 1128 432 1128 328 c 0,16,17
 1128 180 1128 180 1032 72 c 0,18,19
 944 -24 944 -24 834 -24 c 0,20,21
 774 -24 774 -24 582 24 c 1,22,23
 660 78 660 78 660 194 c 0,24,25
 660 274 660 274 594 358 c 1,26,-1
 514 438 l 1,27,-1
 514 612 l 1,28,-1
 638 672 l 1,29,30
 608 702 608 702 444 702 c 0,31,32
 344 702 344 702 304 690 c 128,-1,33
 264 678 264 678 264 640 c 2,34,-1
 264 512 l 1,35,36
 338 512 338 512 404 483 c 128,-1,37
 470 454 470 454 532 396 c 0,38,39
 642 292 642 292 642 186 c 0,40,41
 642 136 642 136 614 87 c 128,-1,42
 586 38 586 38 554 38 c 0,43,44
 536 38 536 38 479 56 c 128,-1,45
 422 74 422 74 344 74 c 0,46,47
 246 74 246 74 176 36 c 2,48,-1
 108 -2 l 1,49,50
 70 -2 70 -2 70 46 c 2,51,-1
 70 670 l 2,52,53
 70 738 70 738 108 756 c 0,54,55
 150 772 150 772 318 772 c 0,56,57
 624 772 624 772 748 728 c 1,58,-1
 846 768 l 1,59,60
 1010 768 1010 768 1120 749 c 128,-1,61
 1230 730 1230 730 1320 678 c 0,62,63
 1524 560 1524 560 1524 312 c 0,0,1
954 340 m 0,64,65
 954 386 954 386 946 423 c 128,-1,66
 938 460 938 460 914 508 c 0,67,68
 864 614 864 614 770 654 c 1,69,-1
 716 622 l 1,70,-1
 716 68 l 1,71,72
 740 50 740 50 770 50 c 0,73,74
 838 50 838 50 892 118 c 0,75,76
 954 198 954 198 954 340 c 0,64,65
436 224 m 0,77,78
 436 294 436 294 372 366 c 0,79,80
 316 428 316 428 266 428 c 1,81,-1
 266 140 l 1,82,83
 292 148 292 148 334 148 c 0,84,85
 368 148 368 148 414 142 c 1,86,87
 436 170 436 170 436 224 c 0,77,78
EndSplineSet
EndChar

StartChar: tm_halant
Encoding: 3021 3021 95
Width: 0
GlyphClass: 4
Flags: W
LayerCount: 2
Fore
SplineSet
-388 1110 m 0,0,1
 -388 1058 -388 1058 -422 1022 c 1,2,3
 -460 988 -460 988 -516 988 c 0,4,5
 -574 988 -574 988 -605 1023 c 128,-1,6
 -636 1058 -636 1058 -636 1116 c 0,7,8
 -636 1170 -636 1170 -599 1202 c 128,-1,9
 -562 1234 -562 1234 -512 1234 c 0,10,11
 -456 1234 -456 1234 -422 1196 c 128,-1,12
 -388 1158 -388 1158 -388 1110 c 0,0,1
EndSplineSet
EndChar

StartChar: tm_two
Encoding: 3048 3048 98
Width: 1425
GlyphClass: 2
Flags: W
LayerCount: 2
Fore
SplineSet
1244 70 m 1,0,-1
 1226 0 l 1,1,-1
 586 0 l 2,2,3
 429 0 429 0 429 106 c 0,4,5
 429 153 429 153 478 181.5 c 128,-1,6
 527 210 527 210 586 210 c 2,7,-1
 779 210 l 2,8,9
 867 210 867 210 928 271.5 c 128,-1,10
 989 333 989 333 989 420 c 0,11,12
 989 500 989 500 945 560.5 c 128,-1,13
 901 621 901 621 831 621 c 0,14,15
 793 621 793 621 744 595 c 1,16,17
 814 555 814 555 814 437 c 0,18,19
 814 382 814 382 772.5 344.5 c 128,-1,20
 731 307 731 307 675 307 c 0,21,22
 618 307 618 307 580 351 c 128,-1,23
 542 395 542 395 542 455 c 0,24,25
 542 565 542 565 646.5 632.5 c 128,-1,26
 751 700 751 700 884 700 c 0,27,28
 987 700 987 700 1058 629 c 128,-1,29
 1129 558 1129 558 1129 455 c 0,30,31
 1129 321 1129 321 1025.5 230.5 c 128,-1,32
 922 140 922 140 779 140 c 2,33,-1
 595 140 l 2,34,35
 551 140 551 140 551 106 c 0,36,37
 551 70 551 70 604 70 c 2,38,-1
 1244 70 l 1,0,-1
675 560 m 1,39,40
 621 516 621 516 621 473 c 0,41,42
 621 386 621 386 666 386 c 0,43,44
 709 386 709 386 709 473 c 0,45,46
 709 518 709 518 675 560 c 1,39,40
EndSplineSet
EndChar

StartChar: tm_three
Encoding: 3049 3049 99
Width: 1424
GlyphClass: 2
Flags: W
LayerCount: 2
Fore
SplineSet
1270 70 m 1,0,-1
 1252 0 l 1,1,-1
 640 0 l 1,2,-1
 657 70 l 1,3,-1
 780 70 l 2,4,5
 874 70 874 70 941 130.5 c 128,-1,6
 1008 191 1008 191 1008 280 c 0,7,8
 1008 317 1008 317 982.5 342.5 c 128,-1,9
 957 368 957 368 920 368 c 0,10,11
 890 368 890 368 865 341 c 128,-1,12
 840 314 840 314 833 280 c 2,13,-1
 815 193 l 1,14,-1
 675 193 l 1,15,-1
 764 630 l 1,16,-1
 571 630 l 1,17,-1
 444 0 l 1,18,-1
 378 0 l 1,19,-1
 517 700 l 1,20,-1
 1095 700 l 1,21,-1
 1077 630 l 1,22,-1
 902 630 l 1,23,-1
 859 403 l 1,24,25
 918 455 918 455 990 455 c 0,26,27
 1057 455 1057 455 1102.5 403.5 c 128,-1,28
 1148 352 1148 352 1148 280 c 0,29,30
 1148 209 1148 209 1090 151 c 128,-1,31
 1032 93 1032 93 947 70 c 1,32,-1
 1270 70 l 1,0,-1
EndSplineSet
EndChar

StartChar: tm_four
Encoding: 3050 3050 100
Width: 1427
GlyphClass: 2
Flags: W
LayerCount: 2
Fore
SplineSet
915 316 m 1,0,-1
 644 316 l 2,1,2
 601 316 601 316 570.5 291 c 128,-1,3
 540 266 540 266 540 228 c 0,4,5
 540 158 540 158 609.5 114 c 128,-1,6
 679 70 679 70 766 70 c 0,7,8
 811 70 811 70 844 99.5 c 128,-1,9
 877 129 877 129 887 175 c 2,10,-1
 915 316 l 1,0,-1
979 630 m 1,11,-1
 784 630 l 1,12,-1
 735 386 l 1,13,-1
 930 386 l 1,14,-1
 979 630 l 1,11,-1
1042 245 m 2,15,16
 1017 125 1017 125 940 62.5 c 128,-1,17
 863 0 863 0 766 0 c 0,18,19
 651 0 651 0 559.5 64 c 128,-1,20
 468 128 468 128 468 228 c 0,21,22
 468 294 468 294 520.5 340 c 128,-1,23
 573 386 573 386 644 386 c 2,24,-1
 669 386 l 1,25,-1
 731 700 l 1,26,-1
 1344 700 l 1,27,-1
 1329 630 l 1,28,-1
 1118 630 l 1,29,-1
 1068 386 l 1,30,-1
 1232 386 l 1,31,-1
 1248 464 l 1,32,-1
 1309 464 l 1,33,-1
 1279 316 l 1,34,-1
 1055 316 l 1,35,-1
 1042 245 l 2,15,16
EndSplineSet
EndChar

StartChar: tm_five
Encoding: 3051 3051 101
Width: 1424
GlyphClass: 2
Flags: W
LayerCount: 2
Fore
SplineSet
1412 517 m 1,0,-1
 1359 526 l 1,1,2
 1369 563 1369 563 1369 598 c 0,3,4
 1369 723 1369 723 1253.5 825.5 c 128,-1,5
 1138 928 1138 928 965 928 c 0,6,7
 728 928 728 928 575.5 716 c 128,-1,8
 423 504 423 504 423 228 c 0,9,10
 423 -43 423 -43 515 -179.5 c 128,-1,11
 607 -316 607 -316 790 -316 c 0,12,13
 979 -316 979 -316 1103.5 -163.5 c 128,-1,14
 1228 -11 1228 -11 1228 193 c 0,15,16
 1228 257 1228 257 1200 304.5 c 128,-1,17
 1172 352 1172 352 1126 352 c 0,18,19
 1099 352 1099 352 1072.5 336.5 c 128,-1,20
 1046 321 1046 321 1039 298 c 2,21,-1
 980 0 l 1,22,-1
 840 0 l 1,23,-1
 965 630 l 1,24,-1
 759 630 l 1,25,-1
 634 0 l 1,26,-1
 566 0 l 1,27,-1
 706 700 l 1,28,-1
 1237 700 l 1,29,-1
 1219 630 l 1,30,-1
 1105 630 l 1,31,-1
 1057 386 l 1,32,33
 1101 437 1101 437 1171 437 c 0,34,35
 1261 437 1261 437 1314.5 368.5 c 128,-1,36
 1368 300 1368 300 1368 193 c 0,37,38
 1368 -47 1368 -47 1202.5 -216 c 128,-1,39
 1037 -385 1037 -385 799 -385 c 0,40,41
 589 -385 589 -385 471.5 -223 c 128,-1,42
 354 -61 354 -61 354 193 c 0,43,44
 354 513 354 513 519 764 c 128,-1,45
 684 1015 684 1015 948 1015 c 0,46,47
 1152 1015 1152 1015 1288.5 889.5 c 128,-1,48
 1425 764 1425 764 1425 613 c 0,49,50
 1425 566 1425 566 1412 517 c 1,0,-1
EndSplineSet
EndChar

StartChar: tm_six
Encoding: 3052 3052 102
Width: 1424
GlyphClass: 2
Flags: W
LayerCount: 2
Fore
SplineSet
784 316 m 1,0,-1
 513 316 l 2,1,2
 469 316 469 316 438 291 c 128,-1,3
 407 266 407 266 407 228 c 0,4,5
 407 158 407 158 477 114 c 128,-1,6
 547 70 547 70 635 70 c 0,7,8
 680 70 680 70 713 99.5 c 128,-1,9
 746 129 746 129 756 175 c 2,10,-1
 784 316 l 1,0,-1
846 630 m 1,11,-1
 653 630 l 1,12,-1
 603 386 l 1,13,-1
 798 386 l 1,14,-1
 846 630 l 1,11,-1
910 245 m 2,15,16
 884 125 884 125 808 62.5 c 128,-1,17
 732 0 732 0 635 0 c 0,18,19
 518 0 518 0 428 64 c 128,-1,20
 338 128 338 128 338 228 c 0,21,22
 338 294 338 294 389.5 340 c 128,-1,23
 441 386 441 386 513 386 c 2,24,-1
 537 386 l 1,25,-1
 600 700 l 1,26,-1
 1229 700 l 1,27,-1
 1213 630 l 1,28,-1
 988 630 l 1,29,-1
 938 386 l 1,30,-1
 1422 386 l 1,31,-1
 1410 316 l 1,32,-1
 1353 316 l 1,33,-1
 1291 0 l 1,34,-1
 1151 0 l 1,35,-1
 1213 316 l 1,36,-1
 1116 316 l 1,37,-1
 1055 0 l 1,38,-1
 967 0 l 1,39,-1
 1028 316 l 1,40,-1
 924 316 l 1,41,-1
 910 245 l 2,15,16
EndSplineSet
EndChar

StartChar: tm_seven
Encoding: 3053 3053 103
Width: 1425
GlyphClass: 2
Flags: W
LayerCount: 2
Fore
SplineSet
643 88 m 1,0,1
 706 88 706 88 753 128 c 128,-1,2
 800 168 800 168 800 228 c 0,3,4
 800 269 800 269 781 301 c 128,-1,5
 762 333 762 333 729 333 c 0,6,7
 684 333 684 333 654.5 296.5 c 128,-1,8
 625 260 625 260 625 210 c 0,9,10
 625 135 625 135 643 88 c 1,0,1
1042 0 m 1,11,-1
 1167 630 l 1,12,-1
 852 630 l 2,13,14
 704 630 704 630 594.5 540.5 c 128,-1,15
 485 451 485 451 485 316 c 0,16,17
 485 247 485 247 507 194.5 c 128,-1,18
 529 142 529 142 572 106 c 1,19,20
 555 135 555 135 555 228 c 256,21,22
 555 321 555 321 614.5 388 c 128,-1,23
 674 455 674 455 765 455 c 0,24,25
 837 455 837 455 884 398 c 128,-1,26
 931 341 931 341 931 263 c 0,27,28
 931 155 931 155 863 77.5 c 128,-1,29
 795 0 795 0 695 0 c 0,30,31
 576 0 576 0 495.5 94 c 128,-1,32
 415 188 415 188 415 316 c 0,33,34
 415 481 415 481 545.5 590.5 c 128,-1,35
 676 700 676 700 852 700 c 2,36,-1
 1430 700 l 1,37,-1
 1412 630 l 1,38,-1
 1307 630 l 1,39,-1
 1181 0 l 1,40,-1
 1042 0 l 1,11,-1
EndSplineSet
EndChar

StartChar: tm_eight
Encoding: 3054 3054 104
Width: 1427
GlyphClass: 2
Flags: W
LayerCount: 2
Fore
SplineSet
849 629 m 1,0,1
 745 611 745 611 670 548.5 c 128,-1,2
 595 486 595 486 595 402 c 0,3,4
 595 338 595 338 638.5 291 c 128,-1,5
 682 244 682 244 744 244 c 0,6,7
 817 244 817 244 864 307.5 c 128,-1,8
 911 371 911 371 911 454 c 0,9,10
 911 580 911 580 849 629 c 1,0,1
1024 140 m 1,11,-1
 411 140 l 2,12,13
 381 140 381 140 357 125 c 128,-1,14
 333 110 333 110 333 87 c 0,15,16
 333 43 333 43 412 -13.5 c 128,-1,17
 491 -70 491 -70 639 -70 c 0,18,19
 743 -70 743 -70 839.5 -18 c 128,-1,20
 936 34 936 34 1024 140 c 1,11,-1
1414 -245 m 1,21,-1
 1269 -245 l 1,22,-1
 1348 140 l 1,23,-1
 1164 140 l 1,24,25
 1051 4 1051 4 915 -63.5 c 128,-1,26
 779 -131 779 -131 621 -131 c 0,27,28
 421 -131 421 -131 311.5 -52.5 c 128,-1,29
 202 26 202 26 202 123 c 0,30,31
 202 160 202 160 233 184.5 c 128,-1,32
 264 209 264 209 307 209 c 2,33,-1
 666 209 l 1,34,35
 604 231 604 231 565 284.5 c 128,-1,36
 526 338 526 338 526 402 c 0,37,38
 526 534 526 534 652 617 c 128,-1,39
 778 700 778 700 937 700 c 0,40,41
 1069 700 1069 700 1169 620.5 c 128,-1,42
 1269 541 1269 541 1269 420 c 0,43,44
 1269 306 1269 306 1213 209 c 1,45,-1
 1364 209 l 1,46,-1
 1463 700 l 1,47,-1
 1603 700 l 1,48,-1
 1414 -245 l 1,21,-1
989 620 m 1,49,50
 1042 530 1042 530 1042 411 c 0,51,52
 1042 267 1042 267 919 209 c 1,53,-1
 1077 209 l 1,54,55
 1146 308 1146 308 1146 402 c 0,56,57
 1146 486 1146 486 1103 553 c 128,-1,58
 1060 620 1060 620 989 620 c 1,49,50
EndSplineSet
EndChar

StartChar: tm_nine
Encoding: 3055 3055 105
Width: 1427
GlyphClass: 2
Flags: W
LayerCount: 2
Fore
SplineSet
692 316 m 1,0,-1
 422 316 l 2,1,2
 379 316 379 316 348 291 c 128,-1,3
 317 266 317 266 317 228 c 0,4,5
 317 158 317 158 387 114 c 128,-1,6
 457 70 457 70 544 70 c 0,7,8
 589 70 589 70 622 99.5 c 128,-1,9
 655 129 655 129 665 175 c 2,10,-1
 692 316 l 1,0,-1
756 630 m 1,11,-1
 562 630 l 1,12,-1
 513 386 l 1,13,-1
 707 386 l 1,14,-1
 756 630 l 1,11,-1
1157 175 m 0,15,16
 1157 259 1157 259 1052 298 c 1,17,18
 982 240 982 240 982 158 c 0,19,20
 982 121 982 121 1007.5 95.5 c 128,-1,21
 1033 70 1033 70 1068 70 c 0,22,23
 1107 70 1107 70 1132 101.5 c 128,-1,24
 1157 133 1157 133 1157 175 c 0,15,16
1297 0 m 1,25,26
 1375 93 1375 93 1375 193 c 0,27,28
 1375 263 1375 263 1332.5 315.5 c 128,-1,29
 1290 368 1290 368 1226 368 c 0,30,31
 1163 368 1163 368 1113 342 c 1,32,33
 1167 322 1167 322 1201 276.5 c 128,-1,34
 1235 231 1235 231 1235 175 c 0,35,36
 1235 104 1235 104 1187 52 c 128,-1,37
 1139 0 1139 0 1068 0 c 0,38,39
 1005 0 1005 0 958.5 46.5 c 128,-1,40
 912 93 912 93 912 158 c 0,41,42
 912 257 912 257 982 316 c 1,43,-1
 833 316 l 1,44,-1
 819 245 l 2,45,46
 795 125 795 125 718.5 62.5 c 128,-1,47
 642 0 642 0 544 0 c 0,48,49
 428 0 428 0 337 64 c 128,-1,50
 246 128 246 128 246 228 c 0,51,52
 246 294 246 294 299 340 c 128,-1,53
 352 386 352 386 422 386 c 2,54,-1
 446 386 l 1,55,-1
 508 700 l 1,56,-1
 1122 700 l 1,57,-1
 1104 630 l 1,58,-1
 896 630 l 1,59,-1
 847 386 l 1,60,-1
 947 386 l 2,61,62
 1014 386 1014 386 1052 368 c 1,63,64
 1111 420 1111 420 1226 420 c 0,65,66
 1327 420 1327 420 1399.5 354.5 c 128,-1,67
 1472 289 1472 289 1472 193 c 0,68,69
 1472 109 1472 109 1410 0 c 1,70,-1
 1297 0 l 1,25,26
EndSplineSet
EndChar

StartChar: tm_ten
Encoding: 3056 3056 106
Width: 1260
GlyphClass: 2
Flags: W
LayerCount: 2
Fore
SplineSet
597 149 m 1,0,1
 558 74 558 74 508 37 c 128,-1,2
 458 0 458 0 395 0 c 0,3,4
 302 0 302 0 242 64 c 128,-1,5
 182 128 182 128 182 200 c 0,6,7
 182 224 182 224 186 244 c 2,8,-1
 279 700 l 1,9,-1
 419 700 l 1,10,-1
 325 244 l 2,11,12
 320 223 320 223 320 205 c 0,13,14
 320 155 320 155 346.5 112.5 c 128,-1,15
 373 70 373 70 413 70 c 0,16,17
 472 70 472 70 525 146 c 128,-1,18
 578 222 578 222 606 359 c 2,19,-1
 675 700 l 1,20,-1
 815 700 l 1,21,-1
 746 351 l 2,22,23
 728 262 728 262 728 204 c 0,24,25
 728 150 728 150 760.5 110 c 128,-1,26
 793 70 793 70 841 70 c 0,27,28
 957 70 957 70 1026 204 c 128,-1,29
 1095 338 1095 338 1095 500 c 0,30,31
 1095 691 1095 691 995.5 840 c 128,-1,32
 896 989 896 989 737 989 c 1,33,-1
 755 1042 l 1,34,35
 960 1042 960 1042 1097.5 880.5 c 128,-1,36
 1235 719 1235 719 1235 500 c 0,37,38
 1235 300 1235 300 1118.5 150 c 128,-1,39
 1002 0 1002 0 824 0 c 0,40,41
 739 0 739 0 673.5 40.5 c 128,-1,42
 608 81 608 81 597 149 c 1,0,1
EndSplineSet
EndChar

StartChar: tm_hundred
Encoding: 3057 3057 107
Width: 1166
GlyphClass: 2
Flags: W
LayerCount: 2
Fore
SplineSet
1284 700 m 1,0,-1
 1267 629 l 1,1,-1
 1117 629 l 1,2,-1
 991 0 l 1,3,-1
 851 0 l 1,4,-1
 977 629 l 1,5,-1
 770 629 l 1,6,-1
 644 0 l 1,7,-1
 504 0 l 1,8,-1
 599 472 l 2,9,10
 606 507 606 507 606 534 c 0,11,12
 606 579 606 579 589 613 c 128,-1,13
 572 647 572 647 540 647 c 0,14,15
 483 647 483 647 440 595.5 c 128,-1,16
 397 544 397 544 382 472 c 2,17,-1
 285 0 l 1,18,-1
 146 0 l 1,19,-1
 242 472 l 2,20,21
 263 577 263 577 336.5 647 c 128,-1,22
 410 717 410 717 503 717 c 0,23,24
 567 717 567 717 614 679.5 c 128,-1,25
 661 642 661 642 661 585 c 1,26,-1
 685 700 l 1,27,-1
 1284 700 l 1,0,-1
EndSplineSet
EndChar

StartChar: tm_thousand
Encoding: 3058 3058 108
Width: 1256
GlyphClass: 2
Flags: W
LayerCount: 2
Fore
SplineSet
551 316 m 1,0,-1
 280 316 l 2,1,2
 237 316 237 316 206 291 c 128,-1,3
 175 266 175 266 175 228 c 0,4,5
 175 158 175 158 245.5 114 c 128,-1,6
 316 70 316 70 402 70 c 0,7,8
 447 70 447 70 480 99.5 c 128,-1,9
 513 129 513 129 523 175 c 2,10,-1
 551 316 l 1,0,-1
615 630 m 1,11,-1
 420 630 l 1,12,-1
 371 386 l 1,13,-1
 565 386 l 1,14,-1
 615 630 l 1,11,-1
677 245 m 2,15,16
 653 125 653 125 576 62.5 c 128,-1,17
 499 0 499 0 402 0 c 0,18,19
 285 0 285 0 195 64 c 128,-1,20
 105 128 105 128 105 228 c 0,21,22
 105 294 105 294 156.5 340 c 128,-1,23
 208 386 208 386 280 386 c 2,24,-1
 304 386 l 1,25,-1
 367 700 l 1,26,-1
 997 700 l 1,27,-1
 983 630 l 1,28,-1
 755 630 l 1,29,-1
 705 386 l 1,30,-1
 1120 386 l 1,31,-1
 1105 316 l 1,32,-1
 971 316 l 1,33,-1
 945 175 l 1,34,35
 990 228 990 228 1067 228 c 0,36,37
 1134 228 1134 228 1179.5 176 c 128,-1,38
 1225 124 1225 124 1225 53 c 0,39,40
 1225 -78 1225 -78 1108 -161 c 128,-1,41
 991 -244 991 -244 840 -244 c 0,42,43
 740 -244 740 -244 542 -205 c 0,44,45
 346 -167 346 -167 244 -167 c 0,46,47
 181 -167 181 -167 134 -206.5 c 128,-1,48
 87 -246 87 -246 87 -307 c 0,49,50
 87 -384 87 -384 158 -411 c 1,51,-1
 149 -445 l 1,52,53
 82 -433 82 -433 36.5 -387 c 128,-1,54
 -9 -341 -9 -341 -9 -280 c 0,55,56
 -9 -205 -9 -205 70.5 -159.5 c 128,-1,57
 150 -114 150 -114 244 -114 c 0,58,59
 346 -114 346 -114 542 -153 c 0,60,61
 740 -192 740 -192 840 -192 c 0,62,63
 938 -192 938 -192 1011.5 -135 c 128,-1,64
 1085 -78 1085 -78 1085 9 c 0,65,66
 1085 61 1085 61 1061 100.5 c 128,-1,67
 1037 140 1037 140 997 140 c 256,68,69
 957 140 957 140 927 88 c 1,70,-1
 910 0 l 1,71,-1
 769 0 l 1,72,-1
 831 316 l 1,73,-1
 691 316 l 1,74,-1
 677 245 l 2,15,16
EndSplineSet
EndChar

StartChar: zerowidthnonjoiner
Encoding: 8204 8204 109
Width: 0
GlyphClass: 2
Flags: W
LayerCount: 2
Fore
SplineSet
315 1225 m 1,0,-1
 -34 -516 l 1,1,-1
 -103 -516 l 1,2,-1
 244 1225 l 1,3,-1
 315 1225 l 1,0,-1
EndSplineSet
EndChar

StartChar: zerowidthjoiner
Encoding: 8205 8205 110
Width: 0
GlyphClass: 2
Flags: W
LayerCount: 2
Fore
SplineSet
415 997 m 1,0,-1
 363 953 l 1,1,-1
 270 1073 l 1,2,-1
 -24 -441 l 1,3,-1
 -87 -441 l 1,4,-1
 206 1073 l 1,5,-1
 65 953 l 1,6,-1
 32 997 l 1,7,-1
 210 1145 l 1,8,-1
 89 1292 l 1,9,-1
 140 1334 l 1,10,-1
 260 1185 l 1,11,-1
 437 1334 l 1,12,-1
 472 1292 l 1,13,-1
 294 1145 l 1,14,-1
 415 997 l 1,0,-1
EndSplineSet
EndChar

StartChar: u2013
Encoding: 8211 8211 111
Width: 722
GlyphClass: 2
Flags: W
LayerCount: 2
Fore
SplineSet
733 319 m 1,0,-1
 -12 319 l 1,1,-1
 -12 370 l 1,2,-1
 733 370 l 1,3,-1
 733 319 l 1,0,-1
EndSplineSet
EndChar

StartChar: u2014
Encoding: 8212 8212 112
Width: 1284
GlyphClass: 2
Flags: W
LayerCount: 2
Fore
SplineSet
1296 318 m 1,0,-1
 -13 319 l 1,1,-1
 -13 371 l 1,2,-1
 1296 370 l 1,3,-1
 1296 318 l 1,0,-1
EndSplineSet
EndChar

StartChar: u2018
Encoding: 65539 -1 113
Width: 356
GlyphClass: 2
Flags: W
LayerCount: 2
Fore
SplineSet
252 954 m 1,0,-1
 252 790 l 1,1,-1
 100 790 l 1,2,-1
 100 918 l 2,3,4
 100 974 100 974 104 1000 c 128,-1,5
 108 1026 108 1026 112 1038 c 128,-1,6
 116 1050 116 1050 124 1070 c 0,7,8
 162 1132 162 1132 228 1164 c 1,9,-1
 264 1110 l 1,10,11
 222 1094 222 1094 200 1054 c 128,-1,12
 178 1014 178 1014 178 954 c 1,13,-1
 252 954 l 1,0,-1
EndSplineSet
EndChar

StartChar: u2019
Encoding: 65540 -1 114
Width: 356
GlyphClass: 2
Flags: W
LayerCount: 2
Fore
SplineSet
98 994 m 1,0,-1
 98 1156 l 1,1,-1
 248 1156 l 1,2,-1
 248 1028 l 2,3,4
 248 930 248 930 224 876 c 0,5,6
 210 850 210 850 182 825 c 128,-1,7
 154 800 154 800 118 782 c 1,8,-1
 84 836 l 1,9,10
 122 850 122 850 146 892 c 0,11,12
 170 928 170 928 170 994 c 1,13,-1
 98 994 l 1,0,-1
EndSplineSet
EndChar

StartChar: u201C
Encoding: 65541 -1 115
Width: 532
GlyphClass: 2
Flags: W
LayerCount: 2
Fore
SplineSet
216 954 m 1,0,-1
 216 790 l 1,1,-1
 66 790 l 1,2,-1
 66 918 l 1,3,-1
 70 1008 l 1,4,5
 78 1046 78 1046 90 1070 c 0,6,7
 124 1130 124 1130 194 1164 c 1,8,-1
 228 1110 l 1,9,10
 186 1094 186 1094 164 1054 c 128,-1,11
 142 1014 142 1014 142 954 c 1,12,-1
 216 954 l 1,0,-1
458 954 m 1,13,-1
 458 790 l 1,14,-1
 308 790 l 1,15,-1
 308 918 l 2,16,17
 308 1030 308 1030 336 1079 c 128,-1,18
 364 1128 364 1128 436 1164 c 1,19,-1
 470 1110 l 1,20,21
 428 1094 428 1094 406 1054 c 128,-1,22
 384 1014 384 1014 384 954 c 1,23,-1
 458 954 l 1,13,-1
EndSplineSet
EndChar

StartChar: u201D
Encoding: 65542 -1 116
Width: 532
GlyphClass: 2
Flags: W
LayerCount: 2
Fore
SplineSet
68 994 m 1,0,-1
 68 1156 l 1,1,-1
 220 1156 l 1,2,-1
 220 1028 l 2,3,4
 220 930 220 930 196 876 c 1,5,6
 164 818 164 818 90 782 c 1,7,-1
 56 836 l 1,8,9
 92 850 92 850 116 892 c 0,10,11
 140 928 140 928 140 994 c 1,12,-1
 68 994 l 1,0,-1
310 994 m 1,13,-1
 310 1156 l 1,14,-1
 460 1156 l 1,15,-1
 460 1028 l 2,16,17
 460 930 460 930 436 876 c 1,18,19
 404 818 404 818 332 782 c 1,20,-1
 298 836 l 1,21,22
 336 850 336 850 360 892 c 128,-1,23
 384 934 384 934 384 994 c 1,24,-1
 310 994 l 1,13,-1
EndSplineSet
EndChar

StartChar: u2026
Encoding: 8230 8230 117
Width: 1283
GlyphClass: 2
Flags: W
LayerCount: 2
Fore
SplineSet
265 136 m 0,0,1
 298 136 298 136 320.5 114 c 128,-1,2
 343 92 343 92 343 58 c 0,3,4
 343 26 343 26 320.5 3 c 128,-1,5
 298 -20 298 -20 265 -20 c 0,6,7
 233 -20 233 -20 210 3 c 128,-1,8
 187 26 187 26 187 58 c 0,9,10
 187 92 187 92 210 114 c 128,-1,11
 233 136 233 136 265 136 c 0,0,1
638 136 m 256,12,13
 670 136 670 136 693 114 c 128,-1,14
 716 92 716 92 716 58 c 0,15,16
 716 26 716 26 692.5 3 c 128,-1,17
 669 -20 669 -20 638 -20 c 0,18,19
 606 -20 606 -20 583 3 c 128,-1,20
 560 26 560 26 560 58 c 0,21,22
 560 92 560 92 583 114 c 128,-1,23
 606 136 606 136 638 136 c 256,12,13
1010 136 m 0,24,25
 1043 136 1043 136 1066 114 c 128,-1,26
 1089 92 1089 92 1089 58 c 0,27,28
 1089 26 1089 26 1065.5 3 c 128,-1,29
 1042 -20 1042 -20 1010 -20 c 256,30,31
 978 -20 978 -20 955.5 3 c 128,-1,32
 933 26 933 26 933 58 c 0,33,34
 933 92 933 92 955.5 114 c 128,-1,35
 978 136 978 136 1010 136 c 0,24,25
EndSplineSet
EndChar

StartChar: u2212
Encoding: 8722 8722 118
Width: 974
GlyphClass: 2
Flags: W
LayerCount: 2
Fore
SplineSet
133 450 m 1,0,-1
 133 508 l 1,1,-1
 894 508 l 1,2,-1
 894 450 l 1,3,-1
 133 450 l 1,0,-1
EndSplineSet
EndChar

StartChar: u25CC
Encoding: 9676 9676 119
Width: 1167
GlyphClass: 2
Flags: W
LayerCount: 2
Fore
SplineSet
654 665 m 0,0,1
 626 665 626 665 612 679 c 128,-1,2
 598 693 598 693 598 724 c 0,3,4
 598 746 598 746 615 762.5 c 128,-1,5
 632 779 632 779 654 779 c 0,6,7
 683 779 683 779 697.5 765 c 128,-1,8
 712 751 712 751 712 724 c 0,9,10
 712 693 712 693 697.5 679 c 128,-1,11
 683 665 683 665 654 665 c 0,0,1
840 616 m 0,12,13
 811 616 811 616 796.5 630.5 c 128,-1,14
 782 645 782 645 782 674 c 0,15,16
 782 701 782 701 796.5 715 c 128,-1,17
 811 729 811 729 840 729 c 0,18,19
 862 729 862 729 879 713 c 128,-1,20
 896 697 896 697 896 674 c 0,21,22
 896 645 896 645 882 630.5 c 128,-1,23
 868 616 868 616 840 616 c 0,12,13
470 616 m 0,24,25
 442 616 442 616 428 630.5 c 128,-1,26
 414 645 414 645 414 674 c 0,27,28
 414 697 414 697 431 713 c 128,-1,29
 448 729 448 729 470 729 c 0,30,31
 494 729 494 729 510 713 c 128,-1,32
 526 697 526 697 526 674 c 0,33,34
 526 645 526 645 512.5 630.5 c 128,-1,35
 499 616 499 616 470 616 c 0,24,25
973 482 m 0,36,37
 951 482 951 482 933.5 498 c 128,-1,38
 916 514 916 514 916 538 c 0,39,40
 916 567 916 567 930.5 581 c 128,-1,41
 945 595 945 595 973 595 c 256,42,43
 1001 595 1001 595 1014.5 581 c 128,-1,44
 1028 567 1028 567 1028 538 c 0,45,46
 1028 514 1028 514 1012 498 c 128,-1,47
 996 482 996 482 973 482 c 0,36,37
336 482 m 0,48,49
 307 482 307 482 293 495.5 c 128,-1,50
 279 509 279 509 279 538 c 256,51,52
 279 567 279 567 293 581 c 128,-1,53
 307 595 307 595 336 595 c 0,54,55
 364 595 364 595 378 581 c 128,-1,56
 392 567 392 567 392 538 c 0,57,58
 392 514 392 514 375 498 c 128,-1,59
 358 482 358 482 336 482 c 0,48,49
1024 298 m 0,60,61
 994 298 994 298 979.5 311.5 c 128,-1,62
 965 325 965 325 965 354 c 0,63,64
 965 382 965 382 979.5 396 c 128,-1,65
 994 410 994 410 1024 410 c 0,66,67
 1046 410 1046 410 1063 393 c 128,-1,68
 1080 376 1080 376 1080 354 c 0,69,70
 1080 331 1080 331 1063 314.5 c 128,-1,71
 1046 298 1046 298 1024 298 c 0,60,61
287 298 m 0,72,73
 257 298 257 298 243 311.5 c 128,-1,74
 229 325 229 325 229 354 c 0,75,76
 229 382 229 382 243 396 c 128,-1,77
 257 410 257 410 287 410 c 0,78,79
 310 410 310 410 326.5 393 c 128,-1,80
 343 376 343 376 343 354 c 0,81,82
 343 331 343 331 326.5 314.5 c 128,-1,83
 310 298 310 298 287 298 c 0,72,73
973 112 m 256,84,85
 945 112 945 112 930.5 126.5 c 128,-1,86
 916 141 916 141 916 169 c 0,87,88
 916 193 916 193 933.5 209.5 c 128,-1,89
 951 226 951 226 973 226 c 0,90,91
 996 226 996 226 1012 209.5 c 128,-1,92
 1028 193 1028 193 1028 169 c 0,93,94
 1028 141 1028 141 1014.5 126.5 c 128,-1,95
 1001 112 1001 112 973 112 c 256,84,85
336 112 m 0,96,97
 307 112 307 112 293 126.5 c 128,-1,98
 279 141 279 141 279 169 c 0,99,100
 279 198 279 198 293 212 c 128,-1,101
 307 226 307 226 336 226 c 0,102,103
 358 226 358 226 375 209.5 c 128,-1,104
 392 193 392 193 392 169 c 0,105,106
 392 141 392 141 378 126.5 c 128,-1,107
 364 112 364 112 336 112 c 0,96,97
840 -22 m 0,108,109
 811 -22 811 -22 796.5 -8 c 128,-1,110
 782 6 782 6 782 34 c 0,111,112
 782 63 782 63 796.5 78 c 128,-1,113
 811 93 811 93 840 93 c 0,114,115
 863 93 863 93 879.5 75 c 128,-1,116
 896 57 896 57 896 34 c 256,117,118
 896 11 896 11 879 -5.5 c 128,-1,119
 862 -22 862 -22 840 -22 c 0,108,109
470 -22 m 0,120,121
 448 -22 448 -22 431 -5.5 c 128,-1,122
 414 11 414 11 414 34 c 256,123,124
 414 57 414 57 430.5 75 c 128,-1,125
 447 93 447 93 470 93 c 0,126,127
 495 93 495 93 510.5 75 c 128,-1,128
 526 57 526 57 526 34 c 256,129,130
 526 11 526 11 510 -5.5 c 128,-1,131
 494 -22 494 -22 470 -22 c 0,120,121
654 -72 m 0,132,133
 632 -72 632 -72 615 -55 c 128,-1,134
 598 -38 598 -38 598 -16 c 0,135,136
 598 14 598 14 612 28.5 c 128,-1,137
 626 43 626 43 654 43 c 0,138,139
 683 43 683 43 697.5 28.5 c 128,-1,140
 712 14 712 14 712 -16 c 0,141,142
 712 -44 712 -44 697.5 -58 c 128,-1,143
 683 -72 683 -72 654 -72 c 0,132,133
EndSplineSet
EndChar

StartChar: tm_k_ikaar
Encoding: 65543 -1 120
Width: 1212
GlyphClass: 2
Flags: W
LayerCount: 2
Fore
SplineSet
1182 514 m 1,0,-1
 906 514 l 1,1,2
 934 602 934 602 934 696 c 0,3,4
 934 848 934 848 870 956 c 0,5,6
 816 1046 816 1046 762 1046 c 0,7,8
 720 1046 720 1046 720 1002 c 2,9,-1
 720 768 l 1,10,-1
 900 768 l 1,11,-1
 900 682 l 1,12,-1
 720 682 l 1,13,-1
 720 518 l 1,14,15
 814 518 814 518 890 490 c 128,-1,16
 966 462 966 462 1032 410 c 0,17,18
 1152 320 1152 320 1152 168 c 0,19,20
 1152 60 1152 60 1072 -8 c 128,-1,21
 992 -76 992 -76 882 -76 c 0,22,23
 776 -76 776 -76 742 -34 c 1,24,-1
 742 40 l 1,25,26
 772 28 772 28 806 28 c 0,27,28
 956 28 956 28 956 196 c 0,29,30
 956 284 956 284 890 348 c 128,-1,31
 824 412 824 412 720 430 c 1,32,-1
 720 86 l 2,33,34
 720 -10 720 -10 658 -10 c 0,35,36
 634 -10 634 -10 537 23 c 128,-1,37
 440 56 440 56 372 56 c 0,38,39
 286 56 286 56 208 16 c 1,40,41
 132 -18 132 -18 110 -22 c 1,42,43
 86 -22 86 -22 78 0 c 128,-1,44
 70 22 70 22 70 96 c 2,45,-1
 70 394 l 2,46,47
 70 448 70 448 97 472 c 128,-1,48
 124 496 124 496 190 506 c 1,49,-1
 190 654 l 2,50,51
 190 768 190 768 276 768 c 2,52,-1
 522 768 l 1,53,-1
 522 984 l 2,54,55
 522 1134 522 1134 654 1134 c 0,56,57
 840 1134 840 1134 992 999 c 128,-1,58
 1144 864 1144 864 1144 674 c 0,59,60
 1144 618 1144 618 1128 586 c 1,61,-1
 1182 586 l 1,62,-1
 1182 514 l 1,0,-1
522 528 m 1,63,-1
 522 682 l 1,64,-1
 436 682 l 2,65,66
 404 682 404 682 404 642 c 2,67,-1
 404 528 l 1,68,-1
 522 528 l 1,63,-1
522 122 m 1,69,-1
 522 452 l 1,70,-1
 412 452 l 2,71,72
 272 452 272 452 272 408 c 2,73,-1
 272 138 l 1,74,75
 300 150 300 150 354 150 c 0,76,77
 444 150 444 150 522 122 c 1,69,-1
EndSplineSet
Ligature2: "'psts' Post Base Substitutions lookup 8 subtable" tm_ka tm_ikaar
EndChar

StartChar: tm_ng_ikaar
Encoding: 65544 -1 121
Width: 2066
GlyphClass: 2
Flags: W
LayerCount: 2
Fore
SplineSet
1388 -18 m 1,0,-1
 1388 624 l 2,1,2
 1388 650 1388 650 1372 656 c 128,-1,3
 1356 662 1356 662 1338 664 c 128,-1,4
 1320 666 1320 666 1280 666 c 0,5,6
 1120 666 1120 666 1120 786 c 2,7,-1
 1120 972 l 2,8,9
 1120 1026 1120 1026 1158 1044 c 128,-1,10
 1196 1062 1196 1062 1286 1062 c 0,11,12
 1626 1062 1626 1062 1808 842 c 0,13,14
 1974 640 1974 640 1974 306 c 0,15,16
 1974 264 1974 264 1950 44 c 1,17,-1
 2026 44 l 1,18,-1
 2026 -24 l 1,19,-1
 1736 -24 l 1,20,21
 1784 234 1784 234 1784 350 c 0,22,23
 1784 634 1784 634 1660 812 c 0,24,25
 1546 980 1546 980 1378 980 c 0,26,27
 1336 980 1336 980 1328 973 c 128,-1,28
 1320 966 1320 966 1316 934 c 1,29,-1
 1316 786 l 2,30,31
 1316 744 1316 744 1380 744 c 2,32,-1
 1476 744 l 2,33,34
 1544 744 1544 744 1567 716 c 128,-1,35
 1590 688 1590 688 1590 614 c 2,36,-1
 1590 56 l 2,37,38
 1590 26 1590 26 1610 26 c 0,39,40
 1624 26 1624 26 1660 50 c 1,41,-1
 1660 -34 l 1,42,43
 1598 -64 1598 -64 1523 -81 c 128,-1,44
 1448 -98 1448 -98 1372 -98 c 0,45,46
 1250 -98 1250 -98 1140 -79 c 128,-1,47
 1030 -60 1030 -60 950 -22 c 1,48,-1
 950 38 l 1,49,50
 1054 62 1054 62 1054 172 c 0,51,52
 1054 284 1054 284 984 347 c 128,-1,53
 914 410 914 410 808 410 c 0,54,55
 784 410 784 410 784 380 c 2,56,-1
 784 48 l 2,57,58
 784 4 784 4 842 4 c 0,59,60
 856 6 856 6 864 6 c 1,61,-1
 864 -56 l 1,62,-1
 686 -56 l 2,63,64
 610 -56 610 -56 586 -30 c 0,65,66
 566 -4 566 -4 566 70 c 2,67,-1
 566 686 l 1,68,69
 456 686 456 686 365 560 c 128,-1,70
 274 434 274 434 274 244 c 0,71,72
 274 88 274 88 342 -10 c 1,73,-1
 12 -10 l 1,74,-1
 12 66 l 1,75,-1
 62 66 l 1,76,-1
 62 164 l 2,77,78
 62 294 62 294 141 450 c 128,-1,79
 220 606 220 606 346 684 c 1,80,-1
 146 684 l 1,81,-1
 146 766 l 1,82,-1
 1094 766 l 1,83,-1
 1094 684 l 1,84,-1
 784 684 l 1,85,-1
 784 490 l 1,86,-1
 852 490 l 2,87,88
 1016 490 1016 490 1127 413 c 128,-1,89
 1238 336 1238 336 1238 206 c 0,90,91
 1238 74 1238 74 1142 16 c 1,92,93
 1166 0 1166 0 1239 -9 c 128,-1,94
 1312 -18 1312 -18 1388 -18 c 1,0,-1
EndSplineSet
Ligature2: "'psts' Post Base Substitutions lookup 8 subtable" tm_nga tm_ikaar
EndChar

StartChar: tm_c_ikaar
Encoding: 65545 -1 122
Width: 1294
GlyphClass: 2
Flags: W
LayerCount: 2
Fore
SplineSet
1278 0 m 1,0,-1
 982 0 l 1,1,2
 998 44 998 44 1020 186 c 0,3,4
 1028 242 1028 242 1034 305 c 128,-1,5
 1040 368 1040 368 1040 402 c 0,6,7
 1040 452 1040 452 1032 510 c 128,-1,8
 1024 568 1024 568 1006 632 c 0,9,10
 968 772 968 772 904 870 c 0,11,12
 822 994 822 994 714 994 c 0,13,14
 690 994 690 994 690 950 c 2,15,-1
 690 766 l 1,16,-1
 938 766 l 1,17,-1
 938 682 l 1,18,-1
 690 682 l 1,19,-1
 690 532 l 1,20,21
 768 532 768 532 840 523 c 128,-1,22
 912 514 912 514 1006 496 c 1,23,-1
 1006 408 l 1,24,25
 834 448 834 448 690 448 c 1,26,-1
 690 110 l 2,27,28
 690 -78 690 -78 526 -78 c 0,29,30
 440 -78 440 -78 349 -26 c 128,-1,31
 258 26 258 26 208 26 c 0,32,33
 192 26 192 26 141 8 c 128,-1,34
 90 -10 90 -10 72 -10 c 0,35,36
 44 -10 44 -10 44 60 c 2,37,-1
 44 418 l 2,38,39
 44 466 44 466 66 481 c 128,-1,40
 88 496 88 496 156 514 c 1,41,-1
 156 674 l 2,42,43
 156 768 156 768 236 768 c 2,44,-1
 492 768 l 1,45,-1
 492 966 l 2,46,47
 492 1030 492 1030 522 1054 c 128,-1,48
 552 1078 552 1078 656 1078 c 0,49,50
 892 1078 892 1078 1060 876 c 128,-1,51
 1228 674 1228 674 1228 336 c 0,52,53
 1228 270 1228 270 1222 207 c 128,-1,54
 1216 144 1216 144 1200 68 c 1,55,-1
 1278 68 l 1,56,-1
 1278 0 l 1,0,-1
492 540 m 1,57,-1
 492 686 l 1,58,-1
 416 686 l 2,59,60
 372 686 372 686 372 648 c 2,61,-1
 372 540 l 1,62,-1
 492 540 l 1,57,-1
492 104 m 2,63,-1
 492 460 l 1,64,-1
 338 460 l 2,65,66
 244 460 244 460 244 402 c 2,67,-1
 244 96 l 1,68,69
 276 96 276 96 343 71 c 128,-1,70
 410 46 410 46 428 46 c 0,71,72
 492 46 492 46 492 104 c 2,63,-1
EndSplineSet
Ligature2: "'psts' Post Base Substitutions lookup 8 subtable" tm_ca tm_ikaar
EndChar

StartChar: tm_j_ikaar
Encoding: 65546 -1 123
Width: 1546
GlyphClass: 2
Flags: W
LayerCount: 2
Fore
SplineSet
1530 -4 m 1,0,-1
 1238 -4 l 1,1,2
 1252 38 1252 38 1269 163 c 128,-1,3
 1286 288 1286 288 1286 362 c 0,4,5
 1286 630 1286 630 1160 816 c 0,6,7
 1050 974 1050 974 934 974 c 0,8,9
 880 974 880 974 880 936 c 2,10,-1
 880 758 l 1,11,12
 1036 722 1036 722 1122 624 c 0,13,14
 1194 542 1194 542 1194 452 c 0,15,16
 1194 352 1194 352 1148 296 c 128,-1,17
 1102 240 1102 240 988 204 c 1,18,19
 1190 108 1190 108 1190 -94 c 0,20,21
 1190 -202 1190 -202 1104 -270 c 0,22,23
 1026 -330 1026 -330 926 -330 c 0,24,25
 860 -330 860 -330 816 -302 c 1,26,-1
 816 -224 l 1,27,-1
 852 -228 l 1,28,29
 912 -228 912 -228 952 -182 c 1,30,31
 994 -140 994 -140 994 -64 c 0,32,33
 994 26 994 26 939 90 c 128,-1,34
 884 154 884 154 820 154 c 0,35,36
 752 154 752 154 752 104 c 2,37,-1
 752 -168 l 2,38,39
 752 -232 752 -232 739 -248 c 128,-1,40
 726 -264 726 -264 682 -264 c 1,41,-1
 540 -218 l 2,42,43
 480 -198 480 -198 424 -186 c 128,-1,44
 368 -174 368 -174 332 -174 c 0,45,46
 222 -174 222 -174 150 -194 c 2,47,-1
 74 -214 l 1,48,49
 42 -214 42 -214 42 -144 c 2,50,-1
 42 108 l 2,51,52
 42 234 42 234 94 262 c 0,53,54
 114 272 114 272 176 278 c 128,-1,55
 238 284 238 284 342 284 c 0,56,57
 418 284 418 284 503 279 c 128,-1,58
 588 274 588 274 646 272 c 2,59,-1
 822 260 l 1,60,61
 1002 260 1002 260 1002 448 c 0,62,63
 1002 540 1002 540 927 610 c 128,-1,64
 852 680 852 680 782 680 c 0,65,66
 752 680 752 680 752 662 c 2,67,-1
 752 464 l 2,68,69
 752 426 752 426 788 426 c 2,70,-1
 818 424 l 1,71,-1
 818 356 l 1,72,-1
 660 356 l 2,73,74
 546 356 546 356 546 510 c 0,75,76
 546 576 546 576 474 634 c 128,-1,77
 402 692 402 692 292 692 c 0,78,79
 232 692 232 692 238 638 c 1,80,81
 334 638 334 638 418 570 c 128,-1,82
 502 502 502 502 502 406 c 0,83,84
 502 306 502 306 398 306 c 0,85,86
 372 306 372 306 342 314 c 128,-1,87
 312 322 312 322 294 328 c 0,88,89
 216 350 216 350 162 350 c 0,90,91
 124 350 124 350 100 344 c 2,92,-1
 76 340 l 1,93,94
 44 340 44 340 44 412 c 2,95,-1
 44 630 l 2,96,97
 44 716 44 716 78 742 c 0,98,99
 118 768 118 768 262 768 c 0,100,101
 376 768 376 768 416 758 c 0,102,103
 488 740 488 740 564 680 c 1,104,105
 564 774 564 774 682 774 c 1,106,-1
 682 960 l 2,107,108
 682 1014 682 1014 713 1037 c 128,-1,109
 744 1060 744 1060 834 1060 c 0,110,111
 1128 1060 1128 1060 1299 860 c 128,-1,112
 1470 660 1470 660 1470 314 c 0,113,114
 1470 132 1470 132 1440 68 c 1,115,-1
 1530 68 l 1,116,-1
 1530 -4 l 1,0,-1
334 426 m 0,117,118
 334 466 334 466 305 515 c 128,-1,119
 276 564 276 564 234 564 c 1,120,-1
 234 408 l 1,121,122
 258 408 258 408 280 400 c 2,123,-1
 312 392 l 1,124,125
 334 392 334 392 334 426 c 0,117,118
628 194 m 1,126,-1
 416 208 l 1,127,128
 304 208 304 208 274 195 c 128,-1,129
 244 182 244 182 244 128 c 2,130,-1
 244 -98 l 1,131,-1
 332 -90 l 1,132,133
 442 -90 442 -90 556 -138 c 1,134,-1
 556 74 l 2,135,136
 556 160 556 160 628 194 c 1,126,-1
EndSplineSet
Ligature2: "'psts' Post Base Substitutions lookup 8 subtable" tm_ja tm_ikaar
EndChar

StartChar: tm_ny_ikaar
Encoding: 65547 -1 124
Width: 1842
GlyphClass: 2
Flags: W
LayerCount: 2
Fore
SplineSet
1622 28 m 0,0,1
 1622 -122 1622 -122 1528 -214 c 0,2,3
 1418 -320 1418 -320 1200 -320 c 0,4,5
 1106 -320 1106 -320 875 -248 c 128,-1,6
 644 -176 644 -176 460 -176 c 0,7,8
 336 -176 336 -176 252 -204 c 0,9,10
 216 -214 216 -214 198 -222 c 128,-1,11
 180 -230 180 -230 142 -254 c 128,-1,12
 104 -278 104 -278 86 -282 c 1,13,14
 56 -282 56 -282 56 -238 c 2,15,-1
 56 470 l 2,16,17
 56 618 56 618 190 618 c 2,18,-1
 334 618 l 1,19,-1
 334 498 l 1,20,21
 292 516 292 516 278 516 c 0,22,23
 254 516 254 516 254 472 c 2,24,-1
 254 -116 l 1,25,26
 312 -98 312 -98 482 -98 c 0,27,28
 574 -98 574 -98 659 -112 c 128,-1,29
 744 -126 744 -126 854 -162 c 0,30,31
 1056 -228 1056 -228 1152 -228 c 0,32,33
 1268 -228 1268 -228 1344 -164 c 0,34,35
 1440 -86 1440 -86 1440 64 c 0,36,37
 1440 270 1440 270 1354 364 c 0,38,39
 1300 424 1300 424 1230 424 c 0,40,41
 1208 424 1208 424 1198 418 c 1,42,-1
 1194 384 l 1,43,-1
 1194 88 l 2,44,45
 1194 28 1194 28 1240 28 c 1,46,-1
 1280 34 l 1,47,-1
 1280 -44 l 1,48,-1
 1098 -44 l 2,49,50
 1024 -44 1024 -44 996 -8 c 0,51,52
 978 20 978 20 978 96 c 2,53,-1
 978 684 l 1,54,-1
 818 684 l 2,55,56
 666 684 666 684 584 510 c 1,57,58
 710 480 710 480 813 384 c 128,-1,59
 916 288 916 288 916 162 c 0,60,61
 916 100 916 100 878 56 c 0,62,63
 850 28 850 28 822 24 c 1,64,65
 718 70 718 70 610 70 c 0,66,67
 524 70 524 70 452 34 c 2,68,-1
 386 -2 l 1,69,70
 320 -2 320 -2 320 214 c 0,71,72
 320 330 320 330 402 469 c 128,-1,73
 484 608 484 608 590 684 c 1,74,-1
 400 684 l 1,75,-1
 400 768 l 1,76,-1
 1520 768 l 1,77,-1
 1520 684 l 1,78,-1
 1196 684 l 1,79,-1
 1196 504 l 1,80,81
 1346 504 1346 504 1484 360 c 128,-1,82
 1622 216 1622 216 1622 28 c 0,0,1
710 222 m 0,83,84
 710 280 710 280 660 344 c 1,85,86
 616 410 616 410 558 428 c 1,87,88
 542 406 542 406 542 288 c 0,89,90
 542 178 542 178 556 142 c 1,91,92
 598 142 598 142 625 142 c 128,-1,93
 652 142 652 142 694 136 c 1,94,95
 710 160 710 160 710 222 c 0,83,84
986 768 m 1,96,-1
 986 946 l 2,97,98
 986 1028 986 1028 1021 1068 c 128,-1,99
 1056 1108 1056 1108 1144 1108 c 0,100,101
 1290 1108 1290 1108 1372 1094 c 0,102,103
 1510 1070 1510 1070 1581 1003 c 128,-1,104
 1652 936 1652 936 1699 839 c 128,-1,105
 1746 742 1746 742 1746 654 c 0,106,107
 1746 612 1746 612 1732 576 c 1,108,-1
 1786 576 l 1,109,-1
 1786 498 l 1,110,-1
 1520 498 l 1,111,112
 1534 528 1534 528 1539 561 c 128,-1,113
 1544 594 1544 594 1544 654 c 0,114,115
 1544 732 1544 732 1527 796 c 128,-1,116
 1510 860 1510 860 1472 922 c 0,117,118
 1444 968 1444 968 1415 987 c 128,-1,119
 1386 1006 1386 1006 1354 1006 c 2,120,-1
 1294 1006 l 2,121,122
 1268 1006 1268 1006 1231 1004 c 128,-1,123
 1194 1002 1194 1002 1194 990 c 2,124,-1
 1194 768 l 1,125,-1
 986 768 l 1,96,-1
EndSplineSet
Ligature2: "'psts' Post Base Substitutions lookup 8 subtable" tm_nya tm_ikaar
EndChar

StartChar: tm_tt_ikaar
Encoding: 65548 -1 125
Width: 1244
GlyphClass: 2
Flags: W
LayerCount: 2
Fore
SplineSet
1222 112 m 1,0,-1
 1228 68 l 1,1,2
 1228 2 1228 2 1170 -36 c 128,-1,3
 1112 -74 1112 -74 1022 -74 c 0,4,5
 948 -74 948 -74 850 -42 c 2,6,-1
 724 2 l 1,7,8
 686 -20 686 -20 686 -94 c 0,9,10
 686 -182 686 -182 782 -206 c 1,11,-1
 782 -266 l 1,12,-1
 582 -224 l 2,13,14
 536 -214 536 -214 528 -208 c 0,15,16
 510 -196 510 -196 510 -164 c 0,17,18
 510 -62 510 -62 604 38 c 1,19,20
 480 78 480 78 400 78 c 0,21,22
 316 78 316 78 260 56 c 0,23,24
 224 42 224 42 194 14 c 1,25,-1
 162 -10 l 1,26,27
 132 -10 132 -10 122 2 c 128,-1,28
 112 14 112 14 112 52 c 2,29,-1
 112 646 l 2,30,31
 112 686 112 686 76 686 c 2,32,-1
 14 686 l 1,33,-1
 14 766 l 1,34,-1
 204 766 l 2,35,36
 264 766 264 766 287 747 c 128,-1,37
 310 728 310 728 310 674 c 2,38,-1
 310 154 l 1,39,-1
 380 156 l 1,40,41
 534 156 534 156 670 94 c 1,42,43
 714 106 714 106 752 146 c 1,44,-1
 608 202 l 1,45,46
 518 244 518 244 518 310 c 2,47,-1
 518 654 l 2,48,49
 518 720 518 720 542 748 c 0,50,51
 558 764 558 764 588 772 c 128,-1,52
 618 780 618 780 670 780 c 0,53,54
 856 780 856 780 972 650 c 0,55,56
 1072 534 1072 534 1072 392 c 0,57,58
 1072 150 1072 150 782 64 c 1,59,60
 854 30 854 30 914 30 c 0,61,62
 1010 30 1010 30 1010 106 c 0,63,64
 1010 124 1010 124 1004 152 c 1,65,-1
 1222 112 l 1,0,-1
884 386 m 0,66,67
 884 676 884 676 728 694 c 1,68,-1
 728 274 l 1,69,70
 752 230 752 230 818 214 c 1,71,72
 840 236 840 236 862 292 c 128,-1,73
 884 348 884 348 884 386 c 0,66,67
EndSplineSet
Ligature2: "'psts' Post Base Substitutions lookup 8 subtable" tm_tta tm_ikaar
EndChar

StartChar: tm_nn_ikaar
Encoding: 65549 -1 126
Width: 2388
GlyphClass: 2
Flags: W
LayerCount: 2
Fore
SplineSet
2358 472 m 0,0,1
 2358 314 2358 314 2272 70 c 1,2,-1
 2340 70 l 1,3,-1
 2340 -2 l 1,4,-1
 2046 -2 l 1,5,6
 2174 342 2174 342 2174 516 c 0,7,8
 2174 710 2174 710 2102 860 c 0,9,10
 2038 992 2038 992 1970 992 c 0,11,12
 1934 992 1934 992 1934 950 c 2,13,-1
 1934 766 l 1,14,-1
 2100 766 l 1,15,-1
 2100 684 l 1,16,-1
 1934 684 l 1,17,-1
 1934 104 l 1,18,-1
 2004 134 l 1,19,-1
 2004 64 l 1,20,-1
 1882 12 l 2,21,22
 1862 4 1862 4 1845 0 c 128,-1,23
 1828 -4 1828 -4 1808 -4 c 0,24,25
 1736 -4 1736 -4 1736 56 c 2,26,-1
 1736 688 l 1,27,-1
 1458 688 l 2,28,29
 1438 688 1438 688 1421 682 c 128,-1,30
 1404 676 1404 676 1384 660 c 1,31,32
 1528 578 1528 578 1588 472 c 0,33,34
 1636 388 1636 388 1636 260 c 0,35,36
 1636 122 1636 122 1548 25 c 128,-1,37
 1460 -72 1460 -72 1304 -72 c 0,38,39
 1196 -72 1196 -72 1112 -58 c 1,40,41
 1010 -46 1010 -46 1008 -20 c 1,42,43
 1012 -12 1012 -12 1019 -2 c 128,-1,44
 1026 8 1026 8 1046 34 c 0,45,46
 1088 86 1088 86 1114 136 c 0,47,48
 1152 216 1152 216 1152 292 c 0,49,50
 1152 388 1152 388 1114 464 c 0,51,52
 1098 494 1098 494 1073 527 c 128,-1,53
 1048 560 1048 560 1008 602 c 1,54,-1
 1170 672 l 1,55,56
 1074 700 1074 700 980 700 c 0,57,58
 916 700 916 700 866 686 c 1,59,60
 962 636 962 636 1040 536 c 0,61,62
 1084 478 1084 478 1106 422 c 128,-1,63
 1128 366 1128 366 1128 304 c 0,64,65
 1128 148 1128 148 1034 48 c 0,66,67
 948 -44 948 -44 832 -44 c 0,68,69
 780 -44 780 -44 691 -20 c 128,-1,70
 602 4 602 4 582 4 c 1,71,72
 658 76 658 76 658 180 c 0,73,74
 658 244 658 244 604 322 c 0,75,76
 566 380 566 380 514 420 c 1,77,-1
 514 598 l 1,78,-1
 646 666 l 1,79,80
 572 692 572 692 400 692 c 0,81,82
 320 692 320 692 292 673 c 128,-1,83
 264 654 264 654 264 608 c 2,84,-1
 264 500 l 1,85,86
 400 500 400 500 526 386 c 1,87,88
 638 278 638 278 638 176 c 0,89,90
 638 96 638 96 602 50 c 0,91,92
 578 22 578 22 548 18 c 1,93,-1
 470 38 l 2,94,95
 386 58 386 58 340 58 c 0,96,97
 254 58 254 58 182 22 c 0,98,99
 160 10 160 10 120 -8 c 0,100,101
 116 -10 116 -10 108 -14 c 1,102,103
 86 -14 86 -14 74 6 c 1,104,-1
 70 68 l 1,105,-1
 70 650 l 2,106,107
 70 722 70 722 107 745 c 128,-1,108
 144 768 144 768 288 768 c 0,109,110
 622 768 622 768 758 722 c 1,111,-1
 834 764 l 1,112,-1
 948 766 l 2,113,114
 1144 766 1144 766 1292 710 c 1,115,116
 1388 766 1388 766 1490 766 c 2,117,-1
 1734 766 l 1,118,-1
 1734 964 l 2,119,120
 1734 1078 1734 1078 1832 1078 c 0,121,122
 2062 1078 2062 1078 2210 906 c 128,-1,123
 2358 734 2358 734 2358 472 c 0,0,1
952 304 m 0,124,125
 952 408 952 408 906 510 c 128,-1,126
 860 612 860 612 774 638 c 1,127,-1
 716 610 l 1,128,-1
 716 52 l 1,129,130
 750 32 750 32 780 32 c 0,131,132
 848 32 848 32 900 105 c 128,-1,133
 952 178 952 178 952 304 c 0,124,125
1452 280 m 0,134,135
 1452 396 1452 396 1418 474 c 128,-1,136
 1384 552 1384 552 1280 630 c 1,137,-1
 1216 594 l 1,138,-1
 1216 -2 l 1,139,140
 1282 -2 1282 -2 1323 13 c 128,-1,141
 1364 28 1364 28 1396 70 c 0,142,143
 1452 148 1452 148 1452 280 c 0,134,135
416 124 m 1,144,145
 430 152 430 152 430 186 c 0,146,147
 430 258 430 258 385 328 c 128,-1,148
 340 398 340 398 264 420 c 1,149,-1
 264 122 l 1,150,151
 284 132 284 132 344 132 c 0,152,153
 394 132 394 132 416 124 c 1,144,145
EndSplineSet
Ligature2: "'psts' Post Base Substitutions lookup 8 subtable" tm_nna tm_ikaar
EndChar

StartChar: tm_t_ikaar
Encoding: 65550 -1 127
Width: 1168
GlyphClass: 2
Flags: W
LayerCount: 2
Fore
SplineSet
1154 488 m 1,0,-1
 876 488 l 1,1,2
 902 572 902 572 902 688 c 0,3,4
 902 828 902 828 841 925 c 128,-1,5
 780 1022 780 1022 720 1022 c 0,6,7
 684 1022 684 1022 684 978 c 2,8,-1
 684 766 l 1,9,-1
 856 766 l 1,10,-1
 856 682 l 1,11,-1
 684 682 l 1,12,-1
 684 514 l 1,13,14
 862 484 862 484 966 347 c 128,-1,15
 1070 210 1070 210 1070 22 c 0,16,17
 1070 -130 1070 -130 975 -226 c 128,-1,18
 880 -322 880 -322 750 -322 c 0,19,20
 672 -322 672 -322 501 -234 c 128,-1,21
 330 -146 330 -146 220 -146 c 0,22,23
 152 -146 152 -146 84 -196 c 0,24,25
 40 -226 40 -226 -8 -290 c 0,26,27
 -46 -338 -46 -338 -54 -340 c 0,28,29
 -76 -340 -76 -340 -76 -306 c 2,30,-1
 -76 -156 l 2,31,32
 -76 -96 -76 -96 -34 -72 c 1,33,34
 10 -52 10 -52 142 -52 c 0,35,36
 276 -52 276 -52 451 -127 c 128,-1,37
 626 -202 626 -202 694 -202 c 0,38,39
 794 -202 794 -202 850 -98 c 0,40,41
 894 -16 894 -16 894 66 c 0,42,43
 894 326 894 326 684 438 c 1,44,-1
 684 142 l 2,45,46
 684 -62 684 -62 510 -62 c 0,47,48
 426 -62 426 -62 340 -21 c 128,-1,49
 254 20 254 20 194 20 c 0,50,51
 164 20 164 20 124 6 c 2,52,-1
 74 -8 l 1,53,54
 30 -8 30 -8 30 40 c 2,55,-1
 30 392 l 2,56,57
 30 452 30 452 57 476 c 128,-1,58
 84 500 84 500 148 506 c 1,59,-1
 148 666 l 2,60,61
 148 768 148 768 248 768 c 2,62,-1
 486 768 l 1,63,-1
 486 944 l 2,64,65
 486 1110 486 1110 620 1110 c 0,66,67
 720 1110 720 1110 802 1078 c 128,-1,68
 884 1046 884 1046 964 974 c 0,69,70
 1114 838 1114 838 1114 662 c 0,71,72
 1114 618 1114 618 1100 564 c 1,73,-1
 1154 564 l 1,74,-1
 1154 488 l 1,0,-1
486 530 m 1,75,-1
 486 684 l 1,76,-1
 416 684 l 2,77,78
 364 684 364 684 364 650 c 2,79,-1
 364 530 l 1,80,-1
 486 530 l 1,75,-1
482 122 m 2,81,-1
 482 456 l 1,82,-1
 340 456 l 2,83,84
 230 456 230 456 230 402 c 2,85,-1
 230 84 l 1,86,87
 250 90 250 90 318 62 c 0,88,89
 348 50 348 50 375 43 c 128,-1,90
 402 36 402 36 420 34 c 0,91,92
 482 34 482 34 482 122 c 2,81,-1
EndSplineSet
Ligature2: "'psts' Post Base Substitutions lookup 8 subtable" tm_ta tm_ikaar
EndChar

StartChar: tm_n_ikaar
Encoding: 65551 -1 128
Width: 1276
GlyphClass: 2
Flags: W
LayerCount: 2
Fore
SplineSet
1260 496 m 1,0,-1
 978 496 l 1,1,2
 1010 564 1010 564 1010 656 c 0,3,4
 1010 812 1010 812 948 916 c 128,-1,5
 886 1020 886 1020 822 1020 c 0,6,7
 790 1020 790 1020 788 988 c 2,8,-1
 788 766 l 1,9,-1
 960 766 l 1,10,-1
 960 686 l 1,11,-1
 788 686 l 1,12,-1
 788 494 l 1,13,14
 978 476 978 476 1091 342 c 128,-1,15
 1204 208 1204 208 1204 22 c 0,16,17
 1204 -184 1204 -184 1072 -278 c 0,18,19
 986 -336 986 -336 882 -336 c 0,20,21
 794 -336 794 -336 594 -252 c 128,-1,22
 394 -168 394 -168 304 -168 c 0,23,24
 192 -168 192 -168 112 -218 c 0,25,26
 64 -248 64 -248 16 -308 c 0,27,28
 -20 -354 -20 -354 -32 -358 c 0,29,30
 -44 -358 -44 -358 -44 -292 c 2,31,-1
 -44 -222 l 2,32,33
 -44 -132 -44 -132 18 -94 c 1,34,35
 82 -60 82 -60 268 -60 c 0,36,37
 364 -60 364 -60 549 -142 c 128,-1,38
 734 -224 734 -224 794 -224 c 0,39,40
 892 -224 892 -224 959 -151 c 128,-1,41
 1026 -78 1026 -78 1026 52 c 0,42,43
 1026 200 1026 200 976 300 c 0,44,45
 918 412 918 412 818 412 c 1,46,-1
 788 410 l 1,47,-1
 788 98 l 2,48,49
 788 50 788 50 793 38 c 128,-1,50
 798 26 798 26 824 20 c 1,51,-1
 870 18 l 1,52,-1
 870 -48 l 1,53,-1
 714 -48 l 2,54,55
 636 -48 636 -48 608 -29 c 128,-1,56
 580 -10 580 -10 580 46 c 2,57,-1
 580 688 l 1,58,59
 460 688 460 688 374 578 c 0,60,61
 278 452 278 452 278 240 c 0,62,63
 278 84 278 84 348 0 c 1,64,-1
 14 0 l 1,65,-1
 14 72 l 1,66,-1
 70 72 l 1,67,-1
 64 160 l 1,68,69
 64 232 64 232 80 298 c 128,-1,70
 96 364 96 364 134 440 c 0,71,72
 210 594 210 594 342 688 c 1,73,-1
 146 686 l 1,74,-1
 146 766 l 1,75,-1
 580 766 l 1,76,-1
 580 944 l 2,77,78
 580 1026 580 1026 615 1066 c 128,-1,79
 650 1106 650 1106 738 1106 c 0,80,81
 930 1106 930 1106 1075 967 c 128,-1,82
 1220 828 1220 828 1220 652 c 0,83,84
 1220 610 1220 610 1206 574 c 1,85,-1
 1260 574 l 1,86,-1
 1260 496 l 1,0,-1
EndSplineSet
Ligature2: "'psts' Post Base Substitutions lookup 8 subtable" tm_na tm_ikaar
EndChar

StartChar: tm_nnn_ikaar
Encoding: 65552 -1 129
Width: 1850
GlyphClass: 2
Flags: W
LayerCount: 2
Fore
SplineSet
1818 -2 m 1,0,-1
 1526 -2 l 1,1,-1
 1596 230 l 1,2,3
 1634 378 1634 378 1634 496 c 0,4,5
 1634 698 1634 698 1572 848 c 128,-1,6
 1510 998 1510 998 1414 998 c 0,7,8
 1396 998 1396 998 1396 966 c 2,9,-1
 1396 768 l 1,10,-1
 1558 768 l 1,11,-1
 1558 688 l 1,12,-1
 1396 688 l 1,13,-1
 1396 92 l 2,14,15
 1396 44 1396 44 1420 44 c 1,16,-1
 1434 48 l 1,17,-1
 1470 70 l 1,18,-1
 1470 -2 l 1,19,-1
 1324 -60 l 2,20,21
 1308 -66 1308 -66 1276 -70 c 1,22,23
 1196 -70 1196 -70 1196 38 c 2,24,-1
 1196 690 l 1,25,-1
 986 690 l 2,26,27
 856 690 856 690 838 660 c 1,28,29
 946 618 946 618 1024 492 c 128,-1,30
 1102 366 1102 366 1102 216 c 0,31,32
 1102 -70 1102 -70 854 -70 c 0,33,34
 776 -70 776 -70 554 12 c 1,35,36
 624 66 624 66 624 142 c 0,37,38
 624 294 624 294 482 418 c 1,39,-1
 482 588 l 1,40,-1
 616 668 l 1,41,42
 548 696 548 696 388 696 c 0,43,44
 240 696 240 696 240 634 c 2,45,-1
 240 504 l 1,46,47
 374 504 374 504 493 390 c 128,-1,48
 612 276 612 276 612 148 c 0,49,50
 612 100 612 100 588 63 c 128,-1,51
 564 26 564 26 518 14 c 1,52,53
 404 62 404 62 298 62 c 0,54,55
 210 62 210 62 128 20 c 0,56,57
 104 8 104 8 88 -4 c 0,58,59
 86 -6 86 -6 80 -8 c 0,60,61
 50 -8 50 -8 44 24 c 1,62,-1
 42 72 l 1,63,-1
 42 640 l 2,64,65
 42 708 42 708 66 736 c 0,66,67
 100 774 100 774 198 774 c 0,68,69
 614 774 614 774 734 710 c 1,70,71
 792 738 792 738 844 752 c 128,-1,72
 896 766 896 766 956 766 c 2,73,-1
 1196 766 l 1,74,-1
 1196 940 l 2,75,76
 1196 1020 1196 1020 1210 1046 c 0,77,78
 1232 1080 1232 1080 1306 1080 c 0,79,80
 1546 1080 1546 1080 1686 890 c 0,81,82
 1818 712 1818 712 1818 440 c 0,83,84
 1818 262 1818 262 1742 66 c 1,85,-1
 1818 66 l 1,86,-1
 1818 -2 l 1,0,-1
896 254 m 0,87,88
 896 520 896 520 746 622 c 1,89,-1
 684 582 l 1,90,-1
 684 62 l 1,91,92
 730 28 730 28 780 28 c 0,93,94
 834 28 834 28 870 112 c 0,95,96
 876 126 876 126 886 168 c 128,-1,97
 896 210 896 210 896 254 c 0,87,88
402 206 m 0,98,99
 402 272 402 272 354 338 c 128,-1,100
 306 404 306 404 234 428 c 1,101,-1
 234 132 l 1,102,-1
 298 138 l 1,103,104
 360 138 360 138 384 130 c 1,105,106
 402 154 402 154 402 206 c 0,98,99
EndSplineSet
Ligature2: "'psts' Post Base Substitutions lookup 8 subtable" tm_nnna tm_ikaar
EndChar

StartChar: tm_p_ikaar
Encoding: 65553 -1 130
Width: 1276
GlyphClass: 2
Flags: W
LayerCount: 2
Fore
SplineSet
1262 -4 m 1,0,-1
 984 -4 l 1,1,2
 1004 74 1004 74 1014 172 c 128,-1,3
 1024 270 1024 270 1024 400 c 0,4,5
 1024 678 1024 678 891 849 c 128,-1,6
 758 1020 758 1020 546 1020 c 1,7,-1
 546 806 l 2,8,9
 546 784 546 784 580 772 c 0,10,11
 656 752 656 752 670 744 c 0,12,13
 966 612 966 612 966 288 c 0,14,15
 966 114 966 114 868 24 c 0,16,17
 790 -48 790 -48 674 -48 c 0,18,19
 592 -48 592 -48 492 -2 c 0,20,21
 444 18 444 18 402 30 c 128,-1,22
 360 42 360 42 334 42 c 0,23,24
 260 42 260 42 200 16 c 2,25,-1
 140 -10 l 1,26,27
 122 -10 122 -10 112 2 c 0,28,29
 106 14 106 14 106 60 c 2,30,-1
 106 650 l 2,31,32
 106 682 106 682 74 684 c 2,33,-1
 14 684 l 1,34,-1
 14 768 l 1,35,-1
 200 768 l 2,36,37
 266 768 266 768 286 748 c 128,-1,38
 306 728 306 728 306 658 c 2,39,-1
 306 108 l 1,40,-1
 366 116 l 1,41,42
 410 116 410 116 474 90 c 0,43,44
 546 64 546 64 586 64 c 0,45,46
 666 64 666 64 712 142 c 0,47,48
 750 214 750 214 750 324 c 0,49,50
 750 482 750 482 694 580 c 128,-1,51
 638 678 638 678 548 706 c 1,52,53
 348 706 348 706 348 858 c 2,54,-1
 348 984 l 2,55,56
 348 1058 348 1058 370 1081 c 128,-1,57
 392 1104 392 1104 464 1104 c 0,58,59
 838 1104 838 1104 1036 886 c 0,60,61
 1124 788 1124 788 1168 658 c 128,-1,62
 1212 528 1212 528 1212 362 c 0,63,64
 1212 166 1212 166 1178 70 c 1,65,-1
 1262 70 l 1,66,-1
 1262 -4 l 1,0,-1
EndSplineSet
Ligature2: "'psts' Post Base Substitutions lookup 8 subtable" tm_pa tm_ikaar
EndChar

StartChar: tm_m_ikaar
Encoding: 65554 -1 131
Width: 1548
GlyphClass: 2
Flags: W
LayerCount: 2
Fore
SplineSet
1534 -2 m 1,0,-1
 1236 -2 l 1,1,2
 1294 162 1294 162 1294 406 c 0,3,4
 1294 628 1294 628 1195 811 c 128,-1,5
 1096 994 1096 994 982 994 c 2,6,-1
 900 994 l 2,7,8
 874 994 874 994 872 962 c 2,9,-1
 872 748 l 1,10,11
 1004 704 1004 704 1101 567 c 128,-1,12
 1198 430 1198 430 1198 282 c 0,13,14
 1198 120 1198 120 1106 22 c 0,15,16
 1028 -66 1028 -66 912 -66 c 0,17,18
 800 -66 800 -66 621 6 c 128,-1,19
 442 78 442 78 372 78 c 0,20,21
 292 78 292 78 222 34 c 0,22,23
 184 12 184 12 170 2 c 0,24,25
 164 -2 164 -2 154 -10 c 1,26,27
 124 -10 124 -10 117 5 c 128,-1,28
 110 20 110 20 110 76 c 2,29,-1
 110 632 l 2,30,31
 110 662 110 662 103 673 c 128,-1,32
 96 684 96 684 64 684 c 2,33,-1
 10 684 l 1,34,-1
 10 766 l 1,35,-1
 184 766 l 2,36,37
 270 766 270 766 288 743 c 128,-1,38
 306 720 306 720 306 638 c 2,39,-1
 306 154 l 1,40,-1
 360 158 l 1,41,42
 448 158 448 158 544 122 c 1,43,-1
 544 636 l 2,44,45
 544 716 544 716 570 744 c 0,46,47
 598 780 598 780 668 780 c 1,48,-1
 668 982 l 2,49,50
 668 1030 668 1030 698 1054 c 128,-1,51
 728 1078 728 1078 820 1078 c 0,52,53
 1110 1078 1110 1078 1294 894 c 0,54,55
 1488 700 1488 700 1488 354 c 0,56,57
 1488 186 1488 186 1450 66 c 1,58,-1
 1534 66 l 1,59,-1
 1534 -2 l 1,0,-1
1016 328 m 0,60,61
 1016 524 1016 524 926 626 c 0,62,63
 862 694 862 694 786 694 c 0,64,65
 756 694 756 694 756 658 c 2,66,-1
 756 56 l 1,67,68
 792 42 792 42 820 42 c 0,69,70
 900 42 900 42 952 106 c 0,71,72
 1016 186 1016 186 1016 328 c 0,60,61
EndSplineSet
Ligature2: "'psts' Post Base Substitutions lookup 8 subtable" tm_ma tm_ikaar
EndChar

StartChar: tm_y_ikaar
Encoding: 65555 -1 132
Width: 1632
GlyphClass: 2
Flags: W
LayerCount: 2
Fore
SplineSet
1616 -2 m 1,0,-1
 1332 -2 l 1,1,2
 1370 86 1370 86 1370 392 c 0,3,4
 1370 528 1370 528 1342 633 c 128,-1,5
 1314 738 1314 738 1252 826 c 0,6,7
 1122 1006 1122 1006 888 1006 c 1,8,-1
 888 778 l 1,9,10
 1314 664 1314 664 1314 288 c 0,11,12
 1314 132 1314 132 1233 38 c 128,-1,13
 1152 -56 1152 -56 1042 -56 c 0,14,15
 950 -56 950 -56 848 -13 c 128,-1,16
 746 30 746 30 682 30 c 0,17,18
 646 30 646 30 594 8 c 2,19,-1
 540 -12 l 1,20,21
 492 -12 492 -12 492 46 c 2,22,-1
 492 106 l 1,23,24
 428 98 428 98 380 88 c 128,-1,25
 332 78 332 78 284 60 c 128,-1,26
 236 42 236 42 196 10 c 1,27,-1
 158 -12 l 1,28,29
 112 -12 112 -12 112 50 c 2,30,-1
 112 650 l 2,31,32
 112 686 112 686 70 686 c 2,33,-1
 12 686 l 1,34,-1
 12 766 l 1,35,-1
 204 766 l 2,36,37
 268 766 268 766 292 742 c 1,38,39
 312 716 312 716 312 654 c 2,40,-1
 312 142 l 1,41,-1
 492 192 l 1,42,-1
 492 632 l 2,43,44
 492 660 492 660 486 670 c 1,45,46
 464 676 464 676 450 676 c 2,47,-1
 398 674 l 1,48,-1
 398 756 l 1,49,-1
 608 756 l 2,50,51
 696 756 696 756 696 664 c 2,52,-1
 696 108 l 1,53,54
 718 108 718 108 747 104 c 128,-1,55
 776 100 776 100 810 86 c 0,56,57
 882 62 882 62 930 62 c 0,58,59
 1032 62 1032 62 1070 160 c 0,60,61
 1094 220 1094 220 1094 348 c 0,62,63
 1094 500 1094 500 1023 599 c 128,-1,64
 952 698 952 698 844 698 c 0,65,66
 692 698 692 698 692 838 c 2,67,-1
 692 974 l 2,68,69
 692 1036 692 1036 712 1058 c 0,70,71
 736 1092 736 1092 814 1092 c 0,72,73
 1180 1092 1180 1092 1378 882 c 0,74,75
 1560 688 1560 688 1560 360 c 0,76,77
 1560 154 1560 154 1520 72 c 1,78,-1
 1616 72 l 1,79,-1
 1616 -2 l 1,0,-1
EndSplineSet
Ligature2: "'psts' Post Base Substitutions lookup 8 subtable" tm_ya tm_ikaar
EndChar

StartChar: tm_r_ikaar
Encoding: 65556 -1 133
Width: 1236
GlyphClass: 2
Flags: W
LayerCount: 2
Fore
SplineSet
582 768 m 1,0,-1
 582 940 l 2,1,2
 582 1022 582 1022 604 1048 c 128,-1,3
 626 1074 626 1074 722 1074 c 0,4,5
 908 1074 908 1074 1060 910 c 0,6,7
 1220 734 1220 734 1220 472 c 0,8,9
 1220 378 1220 378 1194 257 c 128,-1,10
 1168 136 1168 136 1128 64 c 1,11,-1
 1204 64 l 1,12,-1
 1204 -4 l 1,13,-1
 912 -4 l 1,14,-1
 984 218 l 2,15,16
 1036 386 1036 386 1036 498 c 0,17,18
 1036 710 1036 710 967 850 c 128,-1,19
 898 990 898 990 802 990 c 1,20,-1
 802 766 l 1,21,-1
 582 768 l 1,0,-1
964 690 m 1,22,-1
 808 690 l 1,23,-1
 808 -142 l 2,24,25
 808 -286 808 -286 642 -286 c 0,26,27
 542 -286 542 -286 438 -238 c 128,-1,28
 334 -190 334 -190 270 -190 c 0,29,30
 186 -190 186 -190 118 -234 c 0,31,32
 82 -258 82 -258 38 -314 c 0,33,34
 6 -354 6 -354 -10 -358 c 1,35,36
 -34 -358 -34 -358 -34 -314 c 2,37,-1
 -34 -196 l 2,38,39
 -34 -134 -34 -134 8 -106 c 128,-1,40
 50 -78 50 -78 172 -78 c 0,41,42
 284 -78 284 -78 385 -126 c 128,-1,43
 486 -174 486 -174 518 -174 c 0,44,45
 590 -174 590 -174 590 -94 c 2,46,-1
 590 692 l 1,47,48
 442 674 442 674 362 540 c 0,49,50
 292 418 292 418 292 238 c 0,51,52
 292 88 292 88 368 0 c 1,53,-1
 34 0 l 1,54,-1
 34 68 l 1,55,-1
 88 68 l 1,56,-1
 80 182 l 1,57,58
 80 292 80 292 148 434 c 0,59,60
 230 602 230 602 364 692 c 1,61,-1
 158 692 l 1,62,-1
 158 768 l 1,63,-1
 964 768 l 1,64,-1
 964 690 l 1,22,-1
EndSplineSet
Ligature2: "'psts' Post Base Substitutions lookup 8 subtable" tm_ra tm_ikaar
EndChar

StartChar: tm_rr_ikaar
Encoding: 65557 -1 134
Width: 1528
GlyphClass: 2
Flags: W
LayerCount: 2
Fore
SplineSet
1514 0 m 1,0,-1
 1220 0 l 1,1,2
 1272 306 1272 306 1272 412 c 0,3,4
 1272 642 1272 642 1158 816 c 128,-1,5
 1044 990 1044 990 876 990 c 1,6,-1
 814 984 l 1,7,-1
 814 732 l 1,8,9
 984 690 984 690 1084 488 c 0,10,11
 1170 310 1170 310 1170 106 c 0,12,13
 1170 -116 1170 -116 1078 -228 c 0,14,15
 996 -328 996 -328 856 -328 c 0,16,17
 774 -328 774 -328 613 -246 c 128,-1,18
 452 -164 452 -164 288 -164 c 0,19,20
 180 -164 180 -164 108 -210 c 0,21,22
 62 -236 62 -236 14 -296 c 0,23,24
 -20 -338 -20 -338 -34 -342 c 1,25,26
 -54 -342 -54 -342 -54 -288 c 2,27,-1
 -54 -128 l 1,28,29
 10 -52 10 -52 182 -52 c 0,30,31
 272 -52 272 -52 360 -70 c 128,-1,32
 448 -88 448 -88 540 -128 c 0,33,34
 722 -204 722 -204 782 -204 c 0,35,36
 986 -204 986 -204 986 128 c 0,37,38
 986 368 986 368 904 530 c 0,39,40
 832 678 832 678 742 678 c 0,41,42
 718 678 718 678 712 658 c 1,43,-1
 712 586 l 1,44,-1
 712 80 l 2,45,46
 712 58 712 58 722 38 c 1,47,48
 732 28 732 28 766 28 c 2,49,-1
 798 28 l 1,50,-1
 798 -44 l 1,51,-1
 620 -44 l 2,52,53
 486 -44 486 -44 486 76 c 2,54,-1
 486 598 l 2,55,56
 486 646 486 646 440 646 c 256,57,58
 394 646 394 646 334 548 c 0,59,60
 266 430 266 430 266 264 c 0,61,62
 266 194 266 194 290 110 c 0,63,64
 302 72 302 72 316 44 c 128,-1,65
 330 16 330 16 348 0 c 1,66,-1
 14 0 l 1,67,-1
 14 68 l 1,68,-1
 72 68 l 1,69,70
 60 126 60 126 60 182 c 0,71,72
 60 276 60 276 110 406 c 0,73,74
 184 600 184 600 334 696 c 1,75,-1
 118 696 l 1,76,-1
 118 768 l 1,77,-1
 314 768 l 2,78,79
 400 768 400 768 437 752 c 128,-1,80
 474 736 474 736 498 690 c 1,81,82
 512 764 512 764 612 764 c 1,83,-1
 612 938 l 2,84,85
 612 1010 612 1010 632 1036 c 0,86,87
 660 1072 660 1072 752 1072 c 0,88,89
 1464 1072 1464 1072 1464 334 c 0,90,91
 1464 268 1464 268 1450 178 c 2,92,-1
 1436 72 l 1,93,-1
 1514 72 l 1,94,-1
 1514 0 l 1,0,-1
EndSplineSet
Ligature2: "'psts' Post Base Substitutions lookup 8 subtable" tm_rra tm_ikaar
EndChar

StartChar: tm_l_ikaar
Encoding: 65558 -1 135
Width: 1622
GlyphClass: 2
Flags: W
LayerCount: 2
Fore
SplineSet
1608 -2 m 1,0,-1
 1318 -2 l 1,1,2
 1360 236 1360 236 1360 358 c 0,3,4
 1360 580 1360 580 1264 770 c 0,5,6
 1152 984 1152 984 978 984 c 0,7,8
 914 984 914 984 901 977 c 128,-1,9
 888 970 888 970 888 942 c 2,10,-1
 888 762 l 1,11,12
 1062 732 1062 732 1169 605 c 128,-1,13
 1276 478 1276 478 1276 284 c 0,14,15
 1276 82 1276 82 1170 -18 c 0,16,17
 1086 -96 1086 -96 956 -96 c 0,18,19
 808 -96 808 -96 720 -8 c 0,20,21
 680 32 680 32 660 82 c 128,-1,22
 640 132 640 132 640 200 c 2,23,-1
 640 356 l 2,24,25
 640 506 640 506 554 606 c 0,26,27
 476 694 476 694 368 694 c 0,28,29
 298 694 298 694 266 677 c 128,-1,30
 234 660 234 660 234 614 c 2,31,-1
 234 496 l 1,32,33
 356 496 356 496 475 389 c 128,-1,34
 594 282 594 282 594 138 c 0,35,36
 594 88 594 88 563 50 c 128,-1,37
 532 12 532 12 506 10 c 1,38,-1
 434 32 l 2,39,40
 368 56 368 56 290 56 c 0,41,42
 200 56 200 56 136 24 c 2,43,-1
 70 -8 l 1,44,45
 42 -8 42 -8 42 32 c 2,46,-1
 42 688 l 2,47,48
 42 732 42 732 83 751 c 128,-1,49
 124 770 124 770 242 770 c 0,50,51
 494 770 494 770 636 670 c 0,52,53
 850 520 850 520 850 202 c 0,54,55
 850 78 850 78 867 37 c 128,-1,56
 884 -4 884 -4 942 -4 c 0,57,58
 1012 -4 1012 -4 1058 110 c 0,59,60
 1098 214 1098 214 1098 348 c 0,61,62
 1098 440 1098 440 1050 546 c 0,63,64
 992 672 992 672 912 672 c 0,65,66
 818 672 818 672 772 684 c 0,67,68
 688 708 688 708 688 788 c 2,69,-1
 688 962 l 2,70,71
 688 1024 688 1024 725 1046 c 128,-1,72
 762 1068 762 1068 872 1068 c 0,73,74
 1206 1068 1206 1068 1392 838 c 1,75,76
 1552 632 1552 632 1552 310 c 1,77,-1
 1530 70 l 1,78,-1
 1608 70 l 1,79,-1
 1608 -2 l 1,0,-1
388 202 m 0,80,81
 388 272 388 272 336 343 c 128,-1,82
 284 414 284 414 226 420 c 1,83,-1
 226 124 l 1,84,85
 258 132 258 132 298 132 c 0,86,87
 334 132 334 132 374 120 c 1,88,89
 388 144 388 144 388 202 c 0,80,81
EndSplineSet
Ligature2: "'psts' Post Base Substitutions lookup 8 subtable" tm_la tm_ikaar
EndChar

StartChar: tm_ll_ikaar
Encoding: 65559 -1 136
Width: 1694
GlyphClass: 2
Flags: W
LayerCount: 2
Fore
SplineSet
1664 484 m 0,0,1
 1664 298 1664 298 1590 74 c 1,2,-1
 1660 74 l 1,3,-1
 1660 -4 l 1,4,-1
 1362 -4 l 1,5,6
 1478 320 1478 320 1478 524 c 0,7,8
 1478 700 1478 700 1420 840 c 0,9,10
 1356 996 1356 996 1262 996 c 0,11,12
 1238 996 1238 996 1238 964 c 2,13,-1
 1238 766 l 1,14,-1
 1402 766 l 1,15,-1
 1402 682 l 1,16,-1
 1240 682 l 1,17,-1
 1240 66 l 2,18,19
 1240 42 1240 42 1258 42 c 0,20,21
 1264 42 1264 42 1280 48 c 2,22,-1
 1310 62 l 1,23,-1
 1310 -12 l 1,24,25
 1288 -14 1288 -14 1170 -66 c 0,26,27
 1140 -78 1140 -78 1114 -78 c 0,28,29
 1038 -78 1038 -78 1038 6 c 2,30,-1
 1038 688 l 1,31,-1
 904 688 l 2,32,33
 786 688 786 688 738 632 c 1,34,35
 938 486 938 486 938 214 c 0,36,37
 938 114 938 114 874 -8 c 1,38,39
 890 -14 890 -14 908 -14 c 0,40,41
 930 -14 930 -14 942 -12 c 1,42,-1
 942 -86 l 1,43,-1
 892 -90 l 1,44,45
 814 -90 814 -90 723 -61 c 128,-1,46
 632 -32 632 -32 622 -14 c 1,47,48
 664 14 664 14 701 106 c 128,-1,49
 738 198 738 198 738 284 c 0,50,51
 738 512 738 512 594 626 c 0,52,53
 508 694 508 694 352 694 c 0,54,55
 238 694 238 694 238 630 c 2,56,-1
 238 502 l 1,57,58
 316 502 316 502 381 470 c 128,-1,59
 446 438 446 438 506 372 c 0,60,61
 604 264 604 264 604 148 c 0,62,63
 604 92 604 92 573 51 c 128,-1,64
 542 10 542 10 512 10 c 1,65,-1
 446 32 l 2,66,67
 374 56 374 56 300 56 c 0,68,69
 222 56 222 56 150 20 c 2,70,-1
 76 -16 l 1,71,72
 58 -16 58 -16 51 -3 c 128,-1,73
 44 10 44 10 44 62 c 2,74,-1
 44 646 l 2,75,76
 44 718 44 718 74 746 c 0,77,78
 104 770 104 770 200 770 c 0,79,80
 386 770 386 770 456 760 c 128,-1,81
 526 750 526 750 670 688 c 1,82,83
 752 766 752 766 936 766 c 2,84,-1
 1038 766 l 1,85,-1
 1038 950 l 2,86,87
 1038 1084 1038 1084 1140 1084 c 0,88,89
 1382 1084 1382 1084 1530 898 c 0,90,91
 1664 728 1664 728 1664 484 c 0,0,1
400 200 m 256,92,93
 400 264 400 264 348 338 c 128,-1,94
 296 412 296 412 236 420 c 1,95,-1
 236 126 l 1,96,97
 278 132 278 132 314 132 c 256,98,99
 350 132 350 132 380 126 c 1,100,101
 400 136 400 136 400 200 c 256,92,93
EndSplineSet
Ligature2: "'psts' Post Base Substitutions lookup 8 subtable" tm_lla tm_ikaar
EndChar

StartChar: tm_lll_ikaar
Encoding: 65560 -1 137
Width: 1508
GlyphClass: 2
Flags: W
LayerCount: 2
Fore
SplineSet
1494 -2 m 1,0,-1
 1208 -2 l 1,1,2
 1264 114 1264 114 1264 460 c 0,3,4
 1264 708 1264 708 1122 874 c 0,5,6
 1006 1008 1006 1008 906 1008 c 0,7,8
 876 1008 876 1008 876 950 c 2,9,-1
 876 744 l 1,10,11
 1000 696 1000 696 1093 565 c 128,-1,12
 1186 434 1186 434 1186 288 c 0,13,14
 1186 110 1186 110 1092 10 c 0,15,16
 1008 -80 1008 -80 880 -80 c 0,17,18
 844 -80 844 -80 813 -74 c 128,-1,19
 782 -68 782 -68 746 -52 c 1,20,-1
 746 -210 l 1,21,22
 806 -234 806 -234 842 -238 c 1,23,24
 880 -238 880 -238 909 -213 c 128,-1,25
 938 -188 938 -188 938 -152 c 0,26,27
 938 -134 938 -134 930 -118 c 1,28,-1
 1150 -170 l 1,29,-1
 1156 -210 l 1,30,31
 1156 -274 1156 -274 1096 -316 c 0,32,33
 1044 -350 1044 -350 972 -350 c 0,34,35
 842 -350 842 -350 678 -268 c 0,36,37
 590 -226 590 -226 527 -207 c 128,-1,38
 464 -188 464 -188 410 -188 c 0,39,40
 208 -188 208 -188 90 -368 c 1,41,-1
 90 -150 l 1,42,43
 160 -74 160 -74 312 -74 c 0,44,45
 404 -74 404 -74 540 -130 c 1,46,-1
 540 32 l 1,47,48
 430 72 430 72 366 72 c 0,49,50
 288 72 288 72 218 30 c 2,51,-1
 148 -10 l 1,52,53
 126 -10 126 -10 119 0 c 128,-1,54
 112 10 112 10 112 48 c 2,55,-1
 112 652 l 2,56,57
 112 684 112 684 70 684 c 2,58,-1
 14 684 l 1,59,-1
 14 766 l 1,60,-1
 202 766 l 2,61,62
 268 766 268 766 292 742 c 0,63,64
 308 722 308 722 308 674 c 2,65,-1
 308 150 l 1,66,-1
 356 154 l 2,67,68
 400 154 400 154 446 146 c 128,-1,69
 492 138 492 138 540 120 c 1,70,-1
 540 650 l 2,71,72
 540 714 540 714 568 744 c 128,-1,73
 596 774 596 774 676 774 c 1,74,-1
 676 958 l 2,75,76
 676 1100 676 1100 802 1100 c 0,77,78
 1086 1100 1086 1100 1270 905 c 128,-1,79
 1454 710 1454 710 1454 398 c 0,80,81
 1454 184 1454 184 1404 70 c 1,82,-1
 1494 70 l 1,83,-1
 1494 -2 l 1,0,-1
1002 342 m 0,84,85
 1002 522 1002 522 922 616 c 0,86,87
 860 684 860 684 788 684 c 0,88,89
 752 684 752 684 746 670 c 1,90,-1
 746 44 l 1,91,92
 766 38 766 38 804 34 c 1,93,94
 884 34 884 34 938 102 c 0,95,96
 1002 184 1002 184 1002 342 c 0,84,85
EndSplineSet
Ligature2: "'psts' Post Base Substitutions lookup 8 subtable" tm_llla tm_ikaar
EndChar

StartChar: tm_v_ikaar
Encoding: 65561 -1 138
Width: 1702
GlyphClass: 2
Flags: W
LayerCount: 2
Fore
SplineSet
1686 0 m 1,0,-1
 1396 0 l 1,1,2
 1444 258 1444 258 1444 374 c 0,3,4
 1444 658 1444 658 1320 836 c 0,5,6
 1206 1004 1206 1004 1038 1004 c 0,7,8
 996 1004 996 1004 988 997 c 128,-1,9
 980 990 980 990 976 958 c 1,10,-1
 976 810 l 2,11,12
 976 768 976 768 1040 768 c 2,13,-1
 1136 768 l 2,14,15
 1204 768 1204 768 1227 740 c 128,-1,16
 1250 712 1250 712 1250 638 c 2,17,-1
 1250 80 l 2,18,19
 1250 50 1250 50 1270 50 c 0,20,21
 1284 50 1284 50 1320 74 c 1,22,-1
 1320 -10 l 1,23,24
 1190 -72 1190 -72 1032 -72 c 0,25,26
 800 -72 800 -72 638 0 c 1,27,28
 746 112 746 112 746 284 c 0,29,30
 746 462 746 462 652 574 c 0,31,32
 550 698 550 698 356 698 c 0,33,34
 290 698 290 698 264 679 c 128,-1,35
 238 660 238 660 238 608 c 2,36,-1
 238 510 l 1,37,38
 358 510 358 510 478 408 c 0,39,40
 610 296 610 296 610 156 c 0,41,42
 610 106 610 106 582 65 c 128,-1,43
 554 24 554 24 524 24 c 1,44,-1
 454 44 l 2,45,46
 380 64 380 64 292 64 c 0,47,48
 258 64 258 64 222 56 c 128,-1,49
 186 48 186 48 152 30 c 0,50,51
 126 18 126 18 102 4 c 0,52,53
 96 0 96 0 86 -4 c 1,54,55
 44 -4 44 -4 44 74 c 2,56,-1
 44 634 l 2,57,58
 44 734 44 734 84 755 c 128,-1,59
 124 776 124 776 312 776 c 0,60,61
 590 776 590 776 769 624 c 128,-1,62
 948 472 948 472 948 226 c 0,63,64
 948 78 948 78 882 14 c 1,65,66
 928 2 928 2 980 2 c 2,67,-1
 1004 2 l 2,68,69
 1020 2 1020 2 1048 6 c 1,70,-1
 1048 648 l 2,71,72
 1048 674 1048 674 1032 680 c 128,-1,73
 1016 686 1016 686 998 688 c 128,-1,74
 980 690 980 690 940 690 c 0,75,76
 780 690 780 690 780 810 c 2,77,-1
 780 996 l 2,78,79
 780 1050 780 1050 818 1068 c 128,-1,80
 856 1086 856 1086 946 1086 c 0,81,82
 1286 1086 1286 1086 1468 866 c 0,83,84
 1634 664 1634 664 1634 330 c 0,85,86
 1634 288 1634 288 1610 68 c 1,87,-1
 1686 68 l 1,88,-1
 1686 0 l 1,0,-1
400 204 m 0,89,90
 400 276 400 276 351 345 c 128,-1,91
 302 414 302 414 238 426 c 1,92,-1
 238 134 l 1,93,94
 254 136 254 136 270 137 c 128,-1,95
 286 138 286 138 310 138 c 0,96,97
 346 138 346 138 392 132 c 1,98,99
 400 156 400 156 400 204 c 0,89,90
EndSplineSet
Ligature2: "'psts' Post Base Substitutions lookup 8 subtable" tm_va tm_ikaar
EndChar

StartChar: tm_ss_ikaar
Encoding: 65562 -1 139
Width: 1942
GlyphClass: 2
Flags: W
LayerCount: 2
Fore
SplineSet
1926 460 m 1,0,-1
 1630 460 l 1,1,-1
 1630 536 l 2,2,3
 1630 760 1630 760 1570 898 c 0,4,5
 1518 1016 1518 1016 1450 1016 c 0,6,7
 1426 1016 1426 1016 1420 1010 c 0,8,9
 1414 994 1414 994 1414 982 c 2,10,-1
 1414 692 l 1,11,12
 1496 642 1496 642 1548 536 c 1,13,14
 1588 444 1588 444 1588 350 c 0,15,16
 1588 234 1588 234 1516 159 c 128,-1,17
 1444 84 1444 84 1238 -18 c 1,18,19
 1428 -18 1428 -18 1526 32 c 128,-1,20
 1624 82 1624 82 1624 168 c 0,21,22
 1624 192 1624 192 1612 226 c 1,23,-1
 1828 196 l 1,24,-1
 1836 160 l 1,25,26
 1836 52 1836 52 1676 -14 c 0,27,28
 1590 -48 1590 -48 1469 -69 c 128,-1,29
 1348 -90 1348 -90 1202 -90 c 1,30,31
 1168 -142 1168 -142 1168 -218 c 0,32,33
 1168 -286 1168 -286 1248 -286 c 0,34,35
 1288 -286 1288 -286 1330 -262 c 1,36,-1
 1330 -332 l 1,37,-1
 1090 -368 l 1,38,-1
 1060 -370 l 1,39,40
 974 -370 974 -370 974 -292 c 0,41,42
 974 -218 974 -218 1048 -88 c 1,43,44
 906 -88 906 -88 802 -63 c 128,-1,45
 698 -38 698 -38 636 2 c 1,46,47
 678 26 678 26 713 112 c 128,-1,48
 748 198 748 198 748 278 c 0,49,50
 748 450 748 450 660 562 c 0,51,52
 560 690 560 690 374 690 c 0,53,54
 244 690 244 690 244 620 c 2,55,-1
 244 506 l 1,56,57
 376 506 376 506 497 389 c 128,-1,58
 618 272 618 272 618 168 c 0,59,60
 618 118 618 118 589 71 c 128,-1,61
 560 24 560 24 524 24 c 1,62,-1
 464 42 l 2,63,64
 398 62 398 62 330 62 c 0,65,66
 254 62 254 62 194 44 c 0,67,68
 156 32 156 32 126 12 c 2,69,-1
 94 -8 l 1,70,71
 44 -8 44 -8 44 74 c 2,72,-1
 44 660 l 2,73,74
 44 722 44 722 87 744 c 128,-1,75
 130 766 130 766 266 766 c 0,76,77
 642 766 642 766 812 578 c 0,78,79
 950 424 950 424 950 238 c 0,80,81
 950 90 950 90 888 20 c 1,82,83
 984 -12 984 -12 1046 -12 c 0,84,85
 1152 -12 1152 -12 1238 74 c 1,86,-1
 1104 58 l 1,87,88
 1040 58 1040 58 1040 144 c 2,89,-1
 1040 648 l 2,90,91
 1040 768 1040 768 1140 768 c 2,92,-1
 1204 768 l 1,93,-1
 1204 992 l 2,94,95
 1204 1106 1204 1106 1342 1106 c 0,96,97
 1560 1106 1560 1106 1700 952 c 128,-1,98
 1840 798 1840 798 1840 534 c 1,99,-1
 1926 534 l 1,100,-1
 1926 460 l 1,0,-1
1408 392 m 0,101,102
 1408 498 1408 498 1367 587 c 128,-1,103
 1326 676 1326 676 1272 676 c 0,104,105
 1242 676 1242 676 1242 650 c 2,106,-1
 1242 144 l 1,107,-1
 1264 142 l 1,108,109
 1324 142 1324 142 1366 215 c 128,-1,110
 1408 288 1408 288 1408 392 c 0,101,102
408 204 m 0,111,112
 408 270 408 270 354 337 c 128,-1,113
 300 404 300 404 244 420 c 1,114,-1
 244 130 l 1,115,-1
 396 130 l 1,116,117
 408 154 408 154 408 204 c 0,111,112
EndSplineSet
Ligature2: "'psts' Post Base Substitutions lookup 8 subtable" tm_ssa tm_ikaar
EndChar

StartChar: tm_s_ikaar
Encoding: 65563 -1 140
Width: 2106
GlyphClass: 2
Flags: W
LayerCount: 2
Fore
SplineSet
2092 -2 m 1,0,-1
 1804 -2 l 1,1,2
 1852 280 1852 280 1852 404 c 0,3,4
 1852 672 1852 672 1748 833 c 128,-1,5
 1644 994 1644 994 1468 994 c 2,6,-1
 1416 994 l 2,7,8
 1384 994 1384 994 1384 954 c 2,9,-1
 1384 800 l 2,10,11
 1384 782 1384 782 1432 766 c 1,12,13
 1506 748 1506 748 1546 722 c 0,14,15
 1764 586 1764 586 1764 296 c 0,16,17
 1764 -74 1764 -74 1442 -74 c 0,18,19
 1284 -74 1284 -74 1206 4 c 0,20,21
 1118 92 1118 92 1118 298 c 0,22,23
 1118 694 1118 694 892 694 c 0,24,25
 790 694 790 694 742 632 c 1,26,27
 950 482 950 482 950 226 c 0,28,29
 950 120 950 120 880 -2 c 1,30,-1
 956 -2 l 1,31,-1
 956 -52 l 1,32,33
 732 -52 732 -52 652 12 c 1,34,35
 746 106 746 106 746 268 c 0,36,37
 746 452 746 452 647 572 c 128,-1,38
 548 692 548 692 378 692 c 0,39,40
 302 692 302 692 269 677 c 128,-1,41
 236 662 236 662 236 620 c 2,42,-1
 236 500 l 1,43,44
 304 500 304 500 367 473 c 128,-1,45
 430 446 430 446 492 392 c 0,46,47
 614 282 614 282 614 146 c 0,48,49
 614 102 614 102 590 70 c 128,-1,50
 566 38 566 38 546 34 c 1,51,-1
 482 48 l 2,52,53
 446 54 446 54 406 58 c 128,-1,54
 366 62 366 62 318 62 c 0,55,56
 220 62 220 62 150 26 c 2,57,-1
 84 -10 l 1,58,59
 60 -10 60 -10 50 6 c 0,60,61
 44 22 44 22 44 78 c 2,62,-1
 44 672 l 2,63,64
 44 732 44 732 83 750 c 128,-1,65
 122 768 122 768 248 768 c 0,66,67
 498 768 498 768 668 686 c 1,68,69
 740 744 740 744 787 757 c 128,-1,70
 834 770 834 770 924 770 c 0,71,72
 1118 770 1118 770 1224 634 c 128,-1,73
 1330 498 1330 498 1330 262 c 0,74,75
 1330 90 1330 90 1343 50 c 128,-1,76
 1356 10 1356 10 1412 10 c 0,77,78
 1474 10 1474 10 1524 84 c 0,79,80
 1588 182 1588 182 1588 368 c 0,81,82
 1588 488 1588 488 1534 582 c 0,83,84
 1474 688 1474 688 1362 688 c 0,85,86
 1184 688 1184 688 1184 798 c 2,87,-1
 1184 958 l 2,88,89
 1184 1022 1184 1022 1202 1046 c 0,90,91
 1228 1078 1228 1078 1312 1078 c 0,92,93
 2038 1078 2038 1078 2038 316 c 0,94,95
 2038 266 2038 266 2034 218 c 128,-1,96
 2030 170 2030 170 2016 68 c 1,97,-1
 2092 68 l 1,98,-1
 2092 -2 l 1,0,-1
402 202 m 0,99,100
 402 278 402 278 347 345 c 128,-1,101
 292 412 292 412 236 420 c 1,102,-1
 236 126 l 1,103,104
 256 136 256 136 314 136 c 0,105,106
 336 136 336 136 354 135 c 128,-1,107
 372 134 372 134 388 128 c 1,108,109
 402 152 402 152 402 202 c 0,99,100
EndSplineSet
Ligature2: "'psts' Post Base Substitutions lookup 8 subtable" tm_sa tm_ikaar
EndChar

StartChar: tm_h_ikaar
Encoding: 65564 -1 141
Width: 2530
GlyphClass: 2
Flags: W
LayerCount: 2
Fore
SplineSet
2516 -4 m 1,0,-1
 2220 -4 l 1,1,2
 2254 194 2254 194 2254 336 c 0,3,4
 2254 626 2254 626 2112 804 c 0,5,6
 1992 954 1992 954 1844 954 c 0,7,8
 1808 954 1808 954 1800 947 c 128,-1,9
 1792 940 1792 940 1792 914 c 2,10,-1
 1792 736 l 1,11,12
 1970 676 1970 676 2072 474 c 0,13,14
 2112 390 2112 390 2132 307 c 128,-1,15
 2152 224 2152 224 2152 128 c 0,16,17
 2152 -68 2152 -68 2020 -197 c 128,-1,18
 1888 -326 1888 -326 1674 -326 c 0,19,20
 1524 -326 1524 -326 1109 -234 c 128,-1,21
 694 -142 694 -142 526 -142 c 0,22,23
 348 -142 348 -142 216 -196 c 0,24,25
 136 -230 136 -230 68 -298 c 0,26,27
 46 -320 46 -320 24 -338 c 0,28,29
 18 -344 18 -344 6 -352 c 1,30,31
 -30 -352 -30 -352 -30 -314 c 2,32,-1
 -30 -168 l 2,33,34
 -30 -116 -30 -116 92 -74 c 1,35,36
 218 -36 218 -36 378 -36 c 0,37,38
 528 -36 528 -36 989 -132 c 128,-1,39
 1450 -228 1450 -228 1564 -228 c 0,40,41
 1962 -228 1962 -228 1962 190 c 0,42,43
 1962 394 1962 394 1882 542 c 0,44,45
 1810 678 1810 678 1718 678 c 0,46,47
 1680 678 1680 678 1680 626 c 2,48,-1
 1680 128 l 2,49,50
 1680 106 1680 106 1696 90 c 0,51,52
 1712 78 1712 78 1736 74 c 1,53,-1
 1766 74 l 1,54,-1
 1766 8 l 1,55,56
 1710 -10 1710 -10 1564 -34 c 2,57,-1
 1536 -38 l 1,58,59
 1460 -38 1460 -38 1460 66 c 2,60,-1
 1460 580 l 2,61,62
 1460 622 1460 622 1449 633 c 128,-1,63
 1438 644 1438 644 1404 644 c 0,64,65
 1356 644 1356 644 1306 552 c 0,66,67
 1244 440 1244 440 1244 288 c 0,68,69
 1244 218 1244 218 1247 190 c 128,-1,70
 1250 162 1250 162 1260 110 c 2,71,-1
 1276 16 l 1,72,73
 1276 -28 1276 -28 1222 -46 c 0,74,75
 1156 -64 1156 -64 942 -64 c 0,76,77
 910 -64 910 -64 866 -58 c 128,-1,78
 822 -52 822 -52 752 -36 c 0,79,80
 640 -12 640 -12 622 0 c 1,81,82
 736 78 736 78 736 290 c 0,83,84
 736 472 736 472 636 580 c 128,-1,85
 536 688 536 688 358 688 c 0,86,87
 230 688 230 688 230 626 c 2,88,-1
 230 496 l 1,89,90
 302 496 302 496 365 468 c 128,-1,91
 428 440 428 440 490 384 c 0,92,93
 606 278 606 278 606 158 c 0,94,95
 606 120 606 120 582 72 c 1,96,97
 550 22 550 22 516 22 c 1,98,-1
 456 42 l 2,99,100
 426 50 426 50 387 56 c 128,-1,101
 348 62 348 62 308 62 c 0,102,103
 222 62 222 62 150 26 c 2,104,-1
 78 -10 l 1,105,106
 40 -10 40 -10 40 64 c 2,107,-1
 40 658 l 2,108,109
 40 718 40 718 70 740 c 1,110,111
 112 764 112 764 274 764 c 0,112,113
 616 764 616 764 796 584 c 0,114,115
 940 440 940 440 940 240 c 0,116,117
 940 78 940 78 874 18 c 1,118,119
 920 6 920 6 982 6 c 256,120,121
 1044 6 1044 6 1060 18 c 1,122,123
 1034 76 1034 76 1034 188 c 0,124,125
 1034 294 1034 294 1103 448 c 128,-1,126
 1172 602 1172 602 1282 680 c 1,127,-1
 1096 680 l 1,128,-1
 1096 768 l 1,129,-1
 1312 768 l 2,130,131
 1446 768 1446 768 1476 688 c 1,132,133
 1492 762 1492 762 1564 762 c 1,134,-1
 1592 760 l 1,135,-1
 1592 916 l 2,136,137
 1592 986 1592 986 1617 1013 c 128,-1,138
 1642 1040 1642 1040 1730 1040 c 0,139,140
 2124 1040 2124 1040 2314 764 c 0,141,142
 2442 572 2442 572 2442 264 c 0,143,144
 2442 162 2442 162 2428 92 c 1,145,-1
 2516 92 l 1,146,-1
 2516 -4 l 1,0,-1
398 208 m 0,147,148
 398 274 398 274 342 342 c 0,149,150
 296 396 296 396 234 418 c 1,151,-1
 234 132 l 1,152,153
 276 138 276 138 312 138 c 0,154,155
 350 138 350 138 380 132 c 1,156,157
 398 148 398 148 398 208 c 0,147,148
EndSplineSet
Ligature2: "'psts' Post Base Substitutions lookup 8 subtable" tm_ha tm_ikaar
EndChar

StartChar: tm_k_iikaar
Encoding: 65565 -1 142
Width: 1176
GlyphClass: 2
Flags: W
LayerCount: 2
Fore
SplineSet
1144 166 m 0,0,1
 1144 60 1144 60 1064 -11 c 128,-1,2
 984 -82 984 -82 880 -82 c 0,3,4
 762 -82 762 -82 734 -34 c 1,5,-1
 734 42 l 1,6,7
 770 26 770 26 808 26 c 0,8,9
 866 26 866 26 908 67 c 128,-1,10
 950 108 950 108 950 194 c 0,11,12
 950 290 950 290 880 360 c 0,13,14
 844 394 844 394 806 411 c 128,-1,15
 768 428 768 428 718 428 c 1,16,-1
 718 68 l 2,17,18
 718 -16 718 -16 644 -16 c 0,19,20
 628 -16 628 -16 528 17 c 128,-1,21
 428 50 428 50 372 50 c 0,22,23
 324 50 324 50 287 42 c 128,-1,24
 250 34 250 34 202 10 c 1,25,-1
 104 -28 l 1,26,27
 70 -28 70 -28 70 32 c 2,28,-1
 70 396 l 2,29,30
 70 450 70 450 97 474 c 128,-1,31
 124 498 124 498 190 504 c 1,32,-1
 190 646 l 2,33,34
 190 768 190 768 282 768 c 2,35,-1
 518 768 l 1,36,-1
 518 1082 l 2,37,38
 518 1146 518 1146 542 1172 c 128,-1,39
 566 1198 566 1198 646 1198 c 0,40,41
 820 1198 820 1198 964 1116 c 0,42,43
 1128 1024 1128 1024 1128 886 c 0,44,45
 1128 830 1128 830 1106 806 c 1,46,-1
 786 866 l 1,47,-1
 786 896 l 1,48,49
 802 890 802 890 834 886 c 1,50,51
 902 886 902 886 902 962 c 0,52,53
 902 1034 902 1034 850 1080 c 0,54,55
 802 1118 802 1118 752 1118 c 0,56,57
 718 1118 718 1118 718 1070 c 2,58,-1
 718 768 l 1,59,-1
 996 768 l 1,60,-1
 996 682 l 1,61,-1
 718 682 l 1,62,-1
 718 518 l 1,63,64
 810 518 810 518 888 489 c 128,-1,65
 966 460 966 460 1028 410 c 0,66,67
 1144 316 1144 316 1144 166 c 0,0,1
518 530 m 1,68,-1
 518 680 l 1,69,-1
 434 680 l 2,70,71
 404 680 404 680 404 634 c 2,72,-1
 404 530 l 1,73,-1
 518 530 l 1,68,-1
518 118 m 1,74,-1
 518 450 l 1,75,-1
 392 450 l 2,76,77
 268 450 268 450 268 398 c 2,78,-1
 268 134 l 1,79,80
 316 146 316 146 372 146 c 0,81,82
 460 146 460 146 518 118 c 1,74,-1
EndSplineSet
Ligature2: "'abvs' Above Base Substitutions lookup 6 subtable" tm_ka tm_iikaar
EndChar

StartChar: tm_ng_iikaar
Encoding: 65566 -1 143
Width: 1752
GlyphClass: 2
Flags: W
LayerCount: 2
Fore
SplineSet
1400 -18 m 1,0,-1
 1400 640 l 2,1,2
 1400 670 1400 670 1350 670 c 2,3,-1
 1238 670 l 2,4,5
 1184 670 1184 670 1148 706 c 1,6,7
 1116 744 1116 744 1116 802 c 2,8,-1
 1116 1050 l 2,9,10
 1116 1080 1116 1080 1119 1105 c 128,-1,11
 1122 1130 1122 1130 1138 1148 c 0,12,13
 1146 1156 1146 1156 1162 1162 c 0,14,15
 1192 1174 1192 1174 1238 1174 c 0,16,17
 1422 1174 1422 1174 1570 1093 c 128,-1,18
 1718 1012 1718 1012 1718 874 c 0,19,20
 1718 824 1718 824 1696 794 c 1,21,-1
 1378 852 l 1,22,-1
 1378 876 l 1,23,-1
 1428 868 l 1,24,25
 1494 868 1494 868 1494 958 c 0,26,27
 1494 1016 1494 1016 1451 1058 c 128,-1,28
 1408 1100 1408 1100 1350 1100 c 0,29,30
 1328 1100 1328 1100 1316 1096 c 1,31,-1
 1316 800 l 2,32,33
 1316 748 1316 748 1380 748 c 2,34,-1
 1514 748 l 2,35,36
 1602 748 1602 748 1602 632 c 2,37,-1
 1602 50 l 2,38,39
 1602 26 1602 26 1614 26 c 1,40,-1
 1670 50 l 1,41,-1
 1670 -32 l 1,42,43
 1514 -98 1514 -98 1350 -98 c 0,44,45
 1248 -98 1248 -98 1138 -79 c 128,-1,46
 1028 -60 1028 -60 950 -22 c 1,47,-1
 950 38 l 1,48,49
 1054 62 1054 62 1054 172 c 0,50,51
 1054 284 1054 284 984 347 c 128,-1,52
 914 410 914 410 808 410 c 0,53,54
 784 410 784 410 784 380 c 2,55,-1
 784 48 l 2,56,57
 784 4 784 4 842 4 c 0,58,59
 856 6 856 6 864 6 c 1,60,-1
 864 -56 l 1,61,-1
 686 -56 l 2,62,63
 610 -56 610 -56 586 -30 c 0,64,65
 566 -4 566 -4 566 70 c 2,66,-1
 566 686 l 1,67,68
 456 686 456 686 365 560 c 128,-1,69
 274 434 274 434 274 244 c 0,70,71
 274 88 274 88 342 -10 c 1,72,-1
 12 -10 l 1,73,-1
 12 66 l 1,74,-1
 62 66 l 1,75,-1
 62 164 l 2,76,77
 62 294 62 294 141 450 c 128,-1,78
 220 606 220 606 346 684 c 1,79,-1
 146 684 l 1,80,-1
 146 766 l 1,81,-1
 1094 766 l 1,82,-1
 1094 684 l 1,83,-1
 784 684 l 1,84,-1
 784 490 l 1,85,-1
 852 490 l 2,86,87
 1016 490 1016 490 1127 413 c 128,-1,88
 1238 336 1238 336 1238 206 c 0,89,90
 1238 74 1238 74 1142 16 c 1,91,92
 1166 0 1166 0 1247 -9 c 128,-1,93
 1328 -18 1328 -18 1400 -18 c 1,0,-1
EndSplineSet
Ligature2: "'abvs' Above Base Substitutions lookup 6 subtable" tm_nga tm_iikaar
EndChar

StartChar: tm_c_iikaar
Encoding: 65567 -1 144
Width: 1070
GlyphClass: 2
Flags: W
LayerCount: 2
Fore
SplineSet
1110 892 m 0,0,1
 1110 836 1110 836 1088 800 c 1,2,-1
 764 864 l 1,3,-1
 764 892 l 1,4,-1
 812 884 l 1,5,6
 880 884 880 884 880 964 c 0,7,8
 880 1020 880 1020 831 1066 c 128,-1,9
 782 1112 782 1112 724 1112 c 0,10,11
 696 1112 696 1112 692 1082 c 1,12,-1
 692 766 l 1,13,-1
 970 766 l 1,14,-1
 970 678 l 1,15,-1
 692 678 l 1,16,-1
 692 520 l 1,17,18
 734 520 734 520 789 514 c 128,-1,19
 844 508 844 508 882 504 c 0,20,21
 1014 490 1014 490 1054 480 c 1,22,-1
 1054 396 l 1,23,24
 734 436 734 436 692 436 c 1,25,-1
 692 88 l 2,26,27
 692 -90 692 -90 514 -90 c 0,28,29
 436 -90 436 -90 352 -38 c 0,30,31
 264 12 264 12 204 12 c 0,32,33
 176 12 176 12 139 -5 c 128,-1,34
 102 -22 102 -22 72 -22 c 0,35,36
 44 -22 44 -22 44 52 c 2,37,-1
 44 394 l 2,38,39
 44 450 44 450 63 468 c 128,-1,40
 82 486 82 486 156 504 c 1,41,-1
 156 646 l 2,42,43
 156 714 156 714 182 740 c 128,-1,44
 208 766 208 766 268 766 c 2,45,-1
 492 766 l 1,46,-1
 492 1112 l 2,47,48
 492 1190 492 1190 606 1190 c 0,49,50
 802 1190 802 1190 956 1099 c 128,-1,51
 1110 1008 1110 1008 1110 892 c 0,0,1
492 530 m 1,52,-1
 492 678 l 1,53,-1
 420 678 l 2,54,55
 372 678 372 678 372 630 c 2,56,-1
 372 530 l 1,57,-1
 492 530 l 1,52,-1
492 100 m 2,58,-1
 492 450 l 1,59,-1
 368 450 l 2,60,61
 242 450 242 450 242 396 c 2,62,-1
 242 84 l 1,63,64
 276 84 276 84 340 60 c 128,-1,65
 404 36 404 36 434 32 c 1,66,67
 492 32 492 32 492 100 c 2,58,-1
EndSplineSet
Ligature2: "'abvs' Above Base Substitutions lookup 6 subtable" tm_ca tm_iikaar
EndChar

StartChar: tm_j_iikaar
Encoding: 65568 -1 145
Width: 1236
GlyphClass: 2
Flags: W
LayerCount: 2
Fore
SplineSet
1282 860 m 0,0,1
 1282 828 1282 828 1258 770 c 1,2,-1
 932 842 l 1,3,-1
 932 870 l 1,4,5
 962 858 962 858 988 858 c 0,6,7
 1052 858 1052 858 1052 940 c 0,8,9
 1052 994 1052 994 1009 1039 c 128,-1,10
 966 1084 966 1084 914 1084 c 0,11,12
 882 1084 882 1084 874 1080 c 1,13,14
 868 1064 868 1064 868 1054 c 2,15,-1
 868 760 l 1,16,17
 1190 678 1190 678 1190 442 c 0,18,19
 1190 252 1190 252 976 208 c 1,20,21
 1184 124 1184 124 1184 -82 c 0,22,23
 1184 -200 1184 -200 1102 -268 c 0,24,25
 1030 -328 1030 -328 928 -328 c 0,26,27
 860 -328 860 -328 806 -298 c 1,28,-1
 806 -224 l 1,29,-1
 846 -228 l 1,30,31
 918 -228 918 -228 958 -170 c 0,32,33
 992 -120 992 -120 992 -52 c 0,34,35
 992 32 992 32 930 95 c 128,-1,36
 868 158 868 158 792 158 c 0,37,38
 776 158 776 158 763 138 c 128,-1,39
 750 118 750 118 750 94 c 2,40,-1
 750 -190 l 2,41,42
 750 -262 750 -262 694 -262 c 0,43,44
 670 -262 670 -262 532 -217 c 128,-1,45
 394 -172 394 -172 350 -172 c 0,46,47
 218 -172 218 -172 146 -192 c 0,48,49
 112 -202 112 -202 88 -212 c 0,50,51
 84 -212 84 -212 78 -214 c 0,52,53
 42 -214 42 -214 42 -144 c 2,54,-1
 42 120 l 2,55,56
 42 238 42 238 96 268 c 0,57,58
 140 290 140 290 316 290 c 0,59,60
 520 290 520 290 626 276 c 1,61,-1
 790 262 l 1,62,63
 998 262 998 262 998 438 c 0,64,65
 998 540 998 540 924 614 c 0,66,67
 858 680 858 680 788 680 c 0,68,69
 750 680 750 680 750 644 c 2,70,-1
 750 482 l 2,71,72
 750 422 750 422 794 422 c 2,73,-1
 814 422 l 1,74,-1
 814 358 l 1,75,-1
 672 358 l 2,76,77
 600 358 600 358 570 390 c 0,78,79
 544 422 544 422 544 498 c 256,80,81
 544 574 544 574 478 634 c 0,82,83
 406 694 406 694 294 694 c 0,84,85
 242 694 242 694 236 640 c 1,86,87
 288 640 288 640 336 619 c 128,-1,88
 384 598 384 598 426 562 c 0,89,90
 500 494 500 494 500 386 c 0,91,92
 500 354 500 354 468 331 c 128,-1,93
 436 308 436 308 394 308 c 0,94,95
 380 308 380 308 362 311 c 128,-1,96
 344 314 344 314 286 330 c 0,97,98
 248 338 248 338 213 345 c 128,-1,99
 178 352 178 352 158 352 c 0,100,101
 122 352 122 352 106 348 c 2,102,-1
 76 344 l 1,103,104
 42 344 42 344 42 400 c 2,105,-1
 42 652 l 2,106,107
 42 722 42 722 83 745 c 128,-1,108
 124 768 124 768 264 768 c 0,109,110
 376 768 376 768 436 750 c 0,111,112
 494 736 494 736 558 684 c 1,113,114
 558 766 558 766 664 776 c 1,115,-1
 664 1030 l 2,116,117
 664 1122 664 1122 685 1145 c 128,-1,118
 706 1168 706 1168 790 1168 c 0,119,120
 972 1168 972 1168 1127 1077 c 128,-1,121
 1282 986 1282 986 1282 860 c 0,0,1
332 428 m 0,122,123
 332 450 332 450 326 470 c 128,-1,124
 320 490 320 490 304 516 c 0,125,126
 276 564 276 564 234 564 c 1,127,-1
 234 408 l 1,128,129
 262 408 262 408 280 402 c 2,130,-1
 308 394 l 1,131,132
 332 394 332 394 332 428 c 0,122,123
622 196 m 1,133,134
 576 204 576 204 501 208 c 128,-1,135
 426 212 426 212 346 212 c 0,136,137
 242 212 242 212 242 128 c 2,138,-1
 242 -96 l 1,139,-1
 322 -88 l 1,140,141
 412 -88 412 -88 552 -132 c 1,142,-1
 552 88 l 2,143,144
 552 160 552 160 622 196 c 1,133,134
EndSplineSet
Ligature2: "'abvs' Above Base Substitutions lookup 6 subtable" tm_ja tm_iikaar
EndChar

